<?xml version="1.0" encoding="utf-8"?>
<!-- Generator: Adobe Illustrator 16.0.0, SVG Export Plug-In . SVG Version: 6.00 Build 0)  -->
<!DOCTYPE svg PUBLIC "-//W3C//DTD SVG 1.1//EN" "http://www.w3.org/Graphics/SVG/1.1/DTD/svg11.dtd">
<svg version="1.1" xmlns="http://www.w3.org/2000/svg" xmlns:xlink="http://www.w3.org/1999/xlink" x="0px" y="0px"
	 width="27.875px" height="30.491px" viewBox="0 0 27.875 30.491" enable-background="new 0 0 27.875 30.491" xml:space="preserve">
<g id="Capa_1">
	<rect x="-644.958" y="74.325" fill="#FFFFFF" stroke="#000000" stroke-miterlimit="10" width="320" height="480"/>
	<rect x="-276.958" y="74.325" fill="#FFFFFF" stroke="#000000" stroke-miterlimit="10" width="320" height="480"/>
	<rect x="80.042" y="74.325" fill="#FFFFFF" stroke="#000000" stroke-miterlimit="10" width="320" height="480"/>
	<rect x="448.042" y="74.325" fill="#FFFFFF" stroke="#000000" stroke-miterlimit="10" width="320" height="480"/>
	<rect x="-644.958" y="604.325" fill="#FFFFFF" stroke="#000000" stroke-miterlimit="10" width="320" height="480"/>
	<rect x="-276.958" y="604.325" fill="#FFFFFF" stroke="#000000" stroke-miterlimit="10" width="320" height="480"/>
	<rect x="84.042" y="604.325" fill="#FFFFFF" stroke="#000000" stroke-miterlimit="10" width="320" height="480"/>
	<rect x="452.042" y="604.325" fill="#FFFFFF" stroke="#000000" stroke-miterlimit="10" width="320" height="480"/>
</g>
<g id="Capa_2">
	<rect x="-645.458" y="123.825" fill="#EBF1FF" width="320" height="431"/>
	<rect x="-645.458" y="74.825" fill="#FF900B" width="320" height="49"/>
	<text transform="matrix(1 0 0 1 -618.4585 108.3247)" fill="#FFFFFF" font-family="'Pacifico'" font-size="22">Uniresto</text>
	
		<line fill="none" stroke="#FFFFFF" stroke-width="3" stroke-linecap="round" stroke-linejoin="round" stroke-miterlimit="10" x1="-371.458" y1="106.325" x2="-345.458" y2="106.325"/>
	
		<line fill="none" stroke="#FFFFFF" stroke-width="3" stroke-linecap="round" stroke-linejoin="round" stroke-miterlimit="10" x1="-371.458" y1="99.325" x2="-345.458" y2="99.325"/>
	
		<line fill="none" stroke="#FFFFFF" stroke-width="3" stroke-linecap="round" stroke-linejoin="round" stroke-miterlimit="10" x1="-371.458" y1="91.325" x2="-345.458" y2="91.325"/>
	<g opacity="0.6">
		<text transform="matrix(1 0 0 1 -599.2188 177.9644)" fill="#160B2D" font-family="'Raleway-SemiBold'" font-size="24.842">Registro de usuario</text>
	</g>
	<rect x="-522.958" y="325.325" fill="#FFFFFF" stroke="#D8D8D8" stroke-miterlimit="10" width="172" height="39"/>
	<rect x="-522.958" y="383.325" fill="#FFFFFF" stroke="#D8D8D8" stroke-miterlimit="10" width="172" height="41"/>
	<rect x="-522.958" y="442.325" fill="#FFFFFF" stroke="#D8D8D8" stroke-miterlimit="10" width="172" height="39"/>
	<rect x="-615.458" y="221.504" fill="#FFFFFF" stroke="#160B2D" stroke-miterlimit="10" width="91" height="79.361"/>
	<g>
		<text transform="matrix(1 0 0 1 -506.5122 232.2813)"><tspan x="0" y="0" fill="#160B2D" font-family="'Raleway-Thin'" font-size="12">Selecciona una </tspan><tspan x="0" y="16.4" fill="#160B2D" font-family="'Raleway-Thin'" font-size="12">foto de perfil</tspan></text>
	</g>
	<rect x="-506.958" y="266.825" fill="#160B2D" stroke="#FFFFFF" stroke-miterlimit="10" width="157" height="33.5"/>
	<g>
		
			<text transform="matrix(1 0 0 1 -486.021 288.0327)" fill="#FFFFFF" font-family="'Choplin-ExtraLight-DEMO'" font-size="14.5954">Selecionar fotos</text>
	</g>
	<g>
		<g>
			<path fill="none" stroke="#160B2D" stroke-miterlimit="10" d="M-554.72,258.809c0,8.25-6.689,14.939-14.939,14.939
				c-8.249,0-14.936-6.689-14.936-14.939s6.687-14.936,14.936-14.936C-561.41,243.874-554.72,250.559-554.72,258.809z"/>
			<path fill="none" stroke="#160B2D" stroke-miterlimit="10" d="M-554.195,284.501c0,0-0.608,0.122-1.461,0
				s-8.279-2.557-8.402-9.497"/>
			<path fill="none" stroke="#160B2D" stroke-miterlimit="10" d="M-553.094,284.555c0,0,11.849,0.072,12.013,15.982"/>
			<path fill="none" stroke="#160B2D" stroke-miterlimit="10" d="M-586.013,284.501c0,0,0.609,0.122,1.461,0
				c0.853-0.122,8.28-2.557,8.401-9.497"/>
			<path fill="none" stroke="#160B2D" stroke-miterlimit="10" d="M-587.114,284.555c0,0-11.849,0.072-12.013,15.982"/>
		</g>
	</g>
	<rect x="-616.345" y="325.743" fill="#FFFFFF" stroke="#160B2D" stroke-miterlimit="10" width="93.465" height="39.063"/>
	<rect x="-616.345" y="383.729" fill="#FFFFFF" stroke="#160B2D" stroke-miterlimit="10" width="93.465" height="40.322"/>
	<rect x="-616.345" y="442.084" fill="#FFFFFF" stroke="#160B2D" stroke-miterlimit="10" width="93.465" height="39.145"/>
	<rect x="-522.958" y="499.325" fill="#FFFFFF" stroke="#D8D8D8" stroke-miterlimit="10" width="172" height="39"/>
	<rect x="-616.345" y="499.084" fill="#FFFFFF" stroke="#160B2D" stroke-miterlimit="10" width="93.465" height="39.145"/>
	<g>
		
			<text transform="matrix(1 0 0 1 -601.8491 349.8345)" fill="#160B2D" font-family="'Choplin-ExtraLight-DEMO'" font-size="14.5954">Nombre:</text>
	</g>
	<g>
		
			<text transform="matrix(1 0 0 1 -603.5034 408.4585)" fill="#160B2D" font-family="'Choplin-ExtraLight-DEMO'" font-size="14.5954">Apellido</text>
	</g>
	<g>
		
			<text transform="matrix(1 0 0 1 -607.5034 465.7788)" fill="#160B2D" font-family="'Choplin-ExtraLight-DEMO'" font-size="14.5954">Password:</text>
	</g>
	<g>
		
			<text transform="matrix(1 0 0 1 -607.5034 522.7788)" fill="#160B2D" font-family="'Choplin-ExtraLight-DEMO'" font-size="14.5954">Password:</text>
	</g>
	<rect x="-277.458" y="122.825" fill="#EBF1FF" width="321" height="431"/>
	<rect x="-276.458" y="73.825" fill="#FF900B" width="320" height="49"/>
	<rect x="-277.458" y="121.825" fill="#F48206" width="321" height="50"/>
	<rect x="-259.458" y="261.825" fill-rule="evenodd" clip-rule="evenodd" fill="#FFFFFF" width="278" height="276"/>
	<rect x="-244.458" y="277.825" opacity="0.1" fill-rule="evenodd" clip-rule="evenodd" width="73" height="66"/>
	<text transform="matrix(1 0 0 1 -154.229 297.3242)" font-family="'Raleway-Thin'" font-size="16">Marcos Sanchez </text>
	<text transform="matrix(1 0 0 1 -154.229 319.8242)" opacity="0.7" font-family="'Raleway-Thin'" font-size="11">18 de Julio -  19 : 30 hs.</text>
	<path fill-rule="evenodd" clip-rule="evenodd" d="M-12.788,319.926c-0.634-0.973-0.543-1.643,0.364-2.51
		c0.831-0.795,1.244-2.055,1.725-3.159c0.094-0.216-0.261-0.766-0.545-0.98c-0.706-0.534-1.51-0.938-2.238-1.447
		c-0.535-0.374-1.102-0.36-1.697-0.468c-0.82-0.148-1.537-0.971-2.227-1.588c-0.055-0.049,0.385-0.832,0.732-1.081
		c0.191-0.137,0.67,0.128,1.076,0.226c0.385-0.514,0.791-1.252,1.381-1.795c0.566-0.525,1.319-0.852,2.096-1.328
		c-0.369-0.276-0.738-0.553-1.11-0.828c-0.005,0.078-0.012,0.156-0.017,0.231c-0.451,0.063-0.902,0.126-1.354,0.189
		c0.082-0.392,0.164-0.783,0.283-1.343c-0.98-0.748-2.227,0.467-3.299-0.105c2.906-1.67,8.004-0.848,10.881,2.564
		c3.086,3.664,3.041,8.933-0.168,12.6c-2.994,3.422-8.297,4.242-11.977,1.854c0.779-1.63,0.115-2.748-1.746-2.833
		c-1.125-0.051-1.807-0.507-2.254-1.582c-1.625-3.904-0.614-8.416,2.611-11.093c0.27-0.223,0.738-0.204,1.114-0.298
		c0.044,0.264,0.182,0.554,0.116,0.787c-0.77,2.756,0.604,4.534,2.527,5.385c0.321,0.142,0.641,0.284,0.979,0.434
		c-0.4,1.236,0.031,2.209,0.693,3.188c0.328,0.485,0.445,1.144,0.549,1.743c0.125,0.723,0.037,1.492,0.232,2.188
		c0.131,0.469,0.596,0.845,0.912,1.261C-13.027,320.068-12.907,319.997-12.788,319.926z"/>
	<line opacity="0.1" fill="none" stroke="#000000" stroke-miterlimit="10" x1="-246.458" y1="366.325" x2="10.542" y2="366.325"/>
	<rect x="-236.985" y="391.87" fill="none" width="241.054" height="126.718"/>
	<text transform="matrix(1 0 0 1 -236.9858 400.5093)" opacity="0.8"><tspan x="0" y="0" font-family="'HelveticaLTStd-Light'" font-size="12">&quot;Sed ut perspiciatis unde omnis iste natus </tspan><tspan x="0" y="19.169" font-family="'HelveticaLTStd-Light'" font-size="12">error sit voluptatem </tspan><tspan x="0" y="38.337" font-family="'HelveticaLTStd-Light'" font-size="12">accusantium doloremque laudantium&quot;Sed ut </tspan><tspan x="0" y="57.505" font-family="'HelveticaLTStd-Light'" font-size="12">perspiciatis unde omnis iste natus error sit </tspan><tspan x="0" y="76.674" font-family="'HelveticaLTStd-Light'" font-size="12">voluptatem &quot;Sed ut perspiciatis unde omnis </tspan><tspan x="0" y="95.842" font-family="'HelveticaLTStd-Light'" font-size="12">iste natus error sit voluptatem dantium</tspan></text>
	<g>
		<defs>
			<rect id="SVGID_1_" x="-244.458" y="276.825" width="73" height="66"/>
		</defs>
		<clipPath id="SVGID_2_">
			<use xlink:href="#SVGID_1_"  overflow="visible"/>
		</clipPath>
		<g clip-path="url(#SVGID_2_)">
			
				<image overflow="visible" width="550" height="412" xlink:href="FD0A27C9.jpg"  transform="matrix(0.1955 0 0 0.1955 -259.2085 275.52)">
			</image>
		</g>
	</g>
	
		<line opacity="0.5" fill-rule="evenodd" clip-rule="evenodd" fill="#FFFFFF" stroke="#FF900B" stroke-width="2" stroke-linecap="round" stroke-linejoin="round" stroke-miterlimit="10" x1="-259.458" y1="260.825" x2="18.542" y2="260.825"/>
	<image overflow="visible" width="2360" height="1602" xlink:href="FD0A27CB.jpg"  transform="matrix(1 0 0 1 540.1069 -542.189)">
	</image>
	<rect x="3324.542" y="-202.175" fill="#EBF1FF" width="2161" height="1610"/>
	<rect x="3356.542" y="-240.175" fill="#FFFFFF" width="2006" height="58"/>
	<path opacity="0.6" fill-rule="evenodd" clip-rule="evenodd" fill="#778B8C" d="M4432.093,91.605
		c-0.634-0.973-0.543-1.643,0.364-2.511c0.831-0.793,1.244-2.053,1.725-3.158c0.094-0.216-0.261-0.766-0.545-0.98
		c-0.706-0.535-1.51-0.939-2.238-1.447c-0.535-0.373-1.102-0.361-1.697-0.468c-0.82-0.149-1.537-0.972-2.227-1.587
		c-0.055-0.049,0.385-0.832,0.732-1.082c0.191-0.137,0.67,0.128,1.076,0.226c0.385-0.513,0.791-1.252,1.381-1.796
		c0.566-0.523,1.319-0.85,2.096-1.328c-0.369-0.275-0.738-0.551-1.11-0.826c-0.005,0.077-0.012,0.154-0.017,0.231
		c-0.451,0.063-0.902,0.126-1.354,0.189c0.082-0.393,0.164-0.784,0.283-1.345c-0.98-0.748-2.227,0.468-3.299-0.104
		c2.906-1.669,8.004-0.848,10.881,2.564c3.086,3.664,3.041,8.933-0.168,12.6c-2.994,3.422-8.297,4.243-11.977,1.854
		c0.779-1.629,0.115-2.748-1.746-2.834c-1.125-0.051-1.807-0.506-2.254-1.58c-1.625-3.905-0.614-8.416,2.611-11.094
		c0.27-0.223,0.738-0.205,1.114-0.298c0.044,0.264,0.182,0.554,0.116,0.787c-0.77,2.756,0.604,4.534,2.527,5.386
		c0.321,0.142,0.641,0.283,0.979,0.434c-0.4,1.236,0.031,2.209,0.693,3.188c0.328,0.486,0.445,1.144,0.549,1.742
		c0.125,0.723,0.037,1.493,0.232,2.189c0.131,0.469,0.596,0.844,0.912,1.261C4431.854,91.747,4431.974,91.676,4432.093,91.605z"/>
	<g>
		<rect x="4753.542" y="-131.175" fill-rule="evenodd" clip-rule="evenodd" fill="#FFFFFF" width="216" height="187"/>
		<rect x="4753.542" y="68.825" fill-rule="evenodd" clip-rule="evenodd" fill="#FFFFFF" width="216" height="315"/>
		<text transform="matrix(1 0 0 1 4777.5415 -107.1753)" font-family="'Raleway-Thin'" font-size="15">Salidas Armadas</text>
		
			<line opacity="0.1" fill="none" stroke="#000000" stroke-miterlimit="10" x1="4765.542" y1="-93.675" x2="4946.542" y2="-93.675"/>
		<text transform="matrix(1 0 0 1 4804.5435 -55.6753)"><tspan x="0" y="0" font-family="'Raleway-Thin'" font-size="15">Sábado con amigos</tspan><tspan x="135.644" y="0" font-family="'Raleway-Thin'" font-size="15" letter-spacing="3">	</tspan><tspan x="144.001" y="0" font-family="'Raleway-Thin'" font-size="15" letter-spacing="31">	</tspan></text>
		<text transform="matrix(1 0 0 1 4805.5435 -17.6753)" font-family="'Raleway-Thin'" font-size="15">Locales Favoritos</text>
		<text transform="matrix(1 0 0 1 4805.5435 22.6763)" font-family="'Raleway-Thin'" font-size="15">Locales Favoritos</text>
		<circle opacity="0.1" fill-rule="evenodd" clip-rule="evenodd" cx="4777.042" cy="-61.998" r="12.5"/>
		<circle opacity="0.1" fill-rule="evenodd" clip-rule="evenodd" cx="4777.042" cy="-20.998" r="12.5"/>
		<circle opacity="0.1" fill-rule="evenodd" clip-rule="evenodd" cx="4777.042" cy="19.002" r="12.5"/>
		<text transform="matrix(1 0 0 1 4833.5396 290.0571)" font-family="'Raleway-Thin'" font-size="15">Macarena Diaz</text>
		<text transform="matrix(1 0 0 1 4833.5396 147.5571)" font-family="'Raleway-Thin'" font-size="15">Macarena Diaz</text>
		<text transform="matrix(1 0 0 1 4833.5396 194.5571)" font-family="'Raleway-Thin'" font-size="15">Macarena Diaz</text>
		<text transform="matrix(1 0 0 1 4833.5396 241.5571)" font-family="'Raleway-Thin'" font-size="15">Macarena Diaz</text>
		<text transform="matrix(1 0 0 1 4833.5396 337.5571)" font-family="'Raleway-Thin'" font-size="15">Macarena Diaz</text>
		
			<line opacity="0.1" fill="none" stroke="#000000" stroke-miterlimit="10" x1="4757.542" y1="102.325" x2="4959.542" y2="102.325"/>
		<g>
			<defs>
				<circle id="SVGID_3_" cx="4794.542" cy="189.502" r="20"/>
			</defs>
			<clipPath id="SVGID_4_">
				<use xlink:href="#SVGID_3_"  overflow="visible"/>
			</clipPath>
			<g clip-path="url(#SVGID_4_)">
				
					<image overflow="visible" width="594" height="565" xlink:href="FD0A27CE.jpg"  transform="matrix(0.1482 0 0 0.1482 4736.0415 166.2124)">
				</image>
			</g>
		</g>
		<g>
			<defs>
				<circle id="SVGID_5_" cx="4794.542" cy="142.212" r="20"/>
			</defs>
			<clipPath id="SVGID_6_">
				<use xlink:href="#SVGID_5_"  overflow="visible"/>
			</clipPath>
			<g clip-path="url(#SVGID_6_)">
				<defs>
					<rect id="SVGID_7_" x="4773.542" y="120.825" width="47" height="43"/>
				</defs>
				<clipPath id="SVGID_8_">
					<use xlink:href="#SVGID_7_"  overflow="visible"/>
				</clipPath>
				<g clip-path="url(#SVGID_8_)">
					
						<image overflow="visible" width="550" height="412" xlink:href="FD0A27CF.jpg"  transform="matrix(0.1274 0 0 0.1274 4763.9263 119.6143)">
					</image>
				</g>
			</g>
		</g>
		<g>
			<defs>
				<circle id="SVGID_9_" cx="4794.542" cy="236.212" r="20"/>
			</defs>
			<clipPath id="SVGID_10_">
				<use xlink:href="#SVGID_9_"  overflow="visible"/>
			</clipPath>
			<g clip-path="url(#SVGID_10_)">
				
					<image overflow="visible" width="594" height="565" xlink:href="FD0A27CA.jpg"  transform="matrix(0.1482 0 0 0.1482 4772.0396 212.2969)">
				</image>
			</g>
		</g>
		<g>
			<defs>
				<circle id="SVGID_11_" cx="4794.542" cy="285.002" r="20"/>
			</defs>
			<clipPath id="SVGID_12_">
				<use xlink:href="#SVGID_11_"  overflow="visible"/>
			</clipPath>
			<g transform="matrix(1 0 0 1 0 0)" clip-path="url(#SVGID_12_)">
				
					<image overflow="visible" width="360" height="180" xlink:href="FD0A27C5.jpg"  transform="matrix(0.294 0 0 0.294 4774.5415 263.2954)">
				</image>
			</g>
		</g>
		<g>
			<defs>
				<circle id="SVGID_13_" cx="4794.542" cy="332.502" r="20"/>
			</defs>
			<clipPath id="SVGID_14_">
				<use xlink:href="#SVGID_13_"  overflow="visible"/>
			</clipPath>
			<g transform="matrix(1 0 0 1 0 0)" clip-path="url(#SVGID_14_)">
				
					<image overflow="visible" width="360" height="180" xlink:href="FD0A27C6.jpg"  transform="matrix(0.294 0 0 0.294 4712.3755 304.1548)">
				</image>
			</g>
		</g>
		<text transform="matrix(1 0 0 1 4770.5415 90.8247)" opacity="0.6" font-family="'Choplin-Medium-DEMO'" font-size="18">Chat</text>
	</g>
	<g>
		<rect x="3759.542" y="-131.175" fill="#FFFFFF" width="204" height="181"/>
		<text transform="matrix(1 0 0 1 3783.5415 -105.1753)" font-family="'Raleway-Thin'" font-size="15">FAVORITOS</text>
		
			<line opacity="0.1" fill="none" stroke="#000000" stroke-miterlimit="10" x1="3771.542" y1="-91.675" x2="3952.542" y2="-91.675"/>
		<text transform="matrix(1 0 0 1 3818.5435 -54.6753)" font-family="'Raleway-Thin'" font-size="15">Locales Favoritos</text>
		<text transform="matrix(1 0 0 1 3818.5435 -14.3237)" font-family="'Raleway-Thin'" font-size="15">Platos Favoritos</text>
		<circle opacity="0.1" fill-rule="evenodd" clip-rule="evenodd" cx="3792.042" cy="-57.998" r="12.5"/>
		<circle opacity="0.1" fill-rule="evenodd" clip-rule="evenodd" cx="3792.042" cy="-17.998" r="12.5"/>
	</g>
	<g>
		<rect x="3972.542" y="-131.175" fill="#FFFFFF" width="204" height="181"/>
		<text transform="matrix(1 0 0 1 4000.5415 -103.1753)" font-family="'Raleway-Thin'" font-size="15">SOCIAL</text>
		
			<line opacity="0.1" fill="none" stroke="#000000" stroke-miterlimit="10" x1="3988.542" y1="-89.675" x2="4169.542" y2="-89.675"/>
		<text transform="matrix(1 0 0 1 4024.3853 -51.6753)" font-family="'Raleway-Thin'" font-size="15">Grupos de salidas</text>
		<text transform="matrix(1 0 0 1 4028.5435 -13.6753)" font-family="'Raleway-Thin'" font-size="15">Locales Favoritos</text>
		<text transform="matrix(1 0 0 1 4028.5435 26.6763)" font-family="'Raleway-Thin'" font-size="15">Locales Favoritos</text>
		<circle opacity="0.1" fill-rule="evenodd" clip-rule="evenodd" cx="4000.042" cy="-57.998" r="12.5"/>
		<circle opacity="0.1" fill-rule="evenodd" clip-rule="evenodd" cx="4000.042" cy="-16.998" r="12.5"/>
		<circle opacity="0.1" fill-rule="evenodd" clip-rule="evenodd" cx="4000.042" cy="23.002" r="12.5"/>
	</g>
	<g>
		<text transform="matrix(1 0 0 1 3775.5405 378.46)" font-family="'Raleway-Thin'" font-size="15"> PLATOS CERCA</text>
		<text transform="matrix(1 0 0 1 4104.5435 380.4072)" font-family="'Raleway-Thin'" font-size="13.4964">ver todos</text>
		<g>
			<circle fill="#FFFFFF" cx="4173.597" cy="495.5" r="9.78"/>
			<polyline fill="none" stroke="#000000" stroke-miterlimit="10" points="4170.37,489.143 4176.825,495.598 4170.565,501.857 			
				"/>
		</g>
		<g>
			<circle fill="#FFFFFF" cx="3764.446" cy="495.5" r="9.779"/>
			<polyline fill="none" stroke="#000000" stroke-miterlimit="10" points="3767.673,501.856 3761.218,495.401 3767.477,489.142 			
				"/>
		</g>
		
			<line opacity="0.1" fill="none" stroke="#000000" stroke-miterlimit="10" x1="3765.542" y1="391.325" x2="4180.542" y2="391.325"/>
		<g>
			<defs>
				<rect id="SVGID_15_" x="3791.542" y="406.825" width="114" height="102"/>
			</defs>
			<clipPath id="SVGID_16_">
				<use xlink:href="#SVGID_15_"  overflow="visible"/>
			</clipPath>
			<g transform="matrix(1 0 0 1 2.441406e-004 0)" clip-path="url(#SVGID_16_)">
				
					<image overflow="visible" width="1000" height="667" xlink:href="FD0A27C7.jpg"  transform="matrix(0.181 0 0 0.181 3752.5415 399.1255)">
				</image>
			</g>
		</g>
		<g>
			<defs>
				<rect id="SVGID_17_" x="3914.542" y="406.825" width="113" height="102"/>
			</defs>
			<clipPath id="SVGID_18_">
				<use xlink:href="#SVGID_17_"  overflow="visible"/>
			</clipPath>
			<g transform="matrix(1 0 0 1 -2.441406e-004 0)" clip-path="url(#SVGID_18_)">
				
					<image overflow="visible" width="1920" height="1280" xlink:href="FD0A27D9.jpg"  transform="matrix(0.0986 0 0 0.0986 3864.1821 390.5825)">
				</image>
			</g>
		</g>
		<g>
			<defs>
				<rect id="SVGID_19_" x="4037.542" y="406.825" width="116" height="102"/>
			</defs>
			<clipPath id="SVGID_20_">
				<use xlink:href="#SVGID_19_"  overflow="visible"/>
			</clipPath>
			<g transform="matrix(1 0 0 1 -2.441406e-004 0)" clip-path="url(#SVGID_20_)">
				
					<image overflow="visible" width="550" height="366" xlink:href="9277C012.jpg"  transform="matrix(0.2782 0 0 0.2782 4013.5415 406.5923)">
				</image>
			</g>
		</g>
		<rect x="4037.542" y="508.825" fill="#FFFFFF" width="116" height="71"/>
		<g opacity="0.6">
			<rect x="4049.988" y="520.088" fill="none" width="79.554" height="51.87"/>
			<text transform="matrix(1 0 0 1 4049.9878 529.4482)"><tspan x="0" y="0" font-family="'HelveticaLTStd-Light'" font-size="13">Sushi pop  </tspan><tspan x="0" y="19.168" font-family="'HelveticaLTStd-Light'" font-size="13">con Nigiri de</tspan><tspan x="0" y="38.337" font-family="'HelveticaLTStd-Light'" font-size="13">Wasabi</tspan></text>
		</g>
		<rect x="3914.542" y="508.825" fill="#FFFFFF" width="113" height="71"/>
		<g opacity="0.6">
			<rect x="3926.988" y="520.088" fill="none" width="79.554" height="51.87"/>
			<text transform="matrix(1 0 0 1 3926.9878 529.4482)"><tspan x="0" y="0" font-family="'HelveticaLTStd-Light'" font-size="13">Sushi pop  </tspan><tspan x="0" y="19.168" font-family="'HelveticaLTStd-Light'" font-size="13">con Nigiri de</tspan><tspan x="0" y="38.337" font-family="'HelveticaLTStd-Light'" font-size="13">Wasabi</tspan></text>
		</g>
		<rect x="3791.542" y="508.825" fill="#FFFFFF" width="114" height="71"/>
		<g opacity="0.6">
			<rect x="3803.988" y="520.088" fill="none" width="79.554" height="51.87"/>
			<text transform="matrix(1 0 0 1 3803.9878 529.4482)"><tspan x="0" y="0" font-family="'HelveticaLTStd-Light'" font-size="13">Sushi pop  </tspan><tspan x="0" y="19.168" font-family="'HelveticaLTStd-Light'" font-size="13">con Nigiri de</tspan><tspan x="0" y="38.337" font-family="'HelveticaLTStd-Light'" font-size="13">Wasabi</tspan></text>
		</g>
	</g>
	<g>
		<text transform="matrix(1 0 0 1 4104.5435 130.5029)" font-family="'Raleway-Thin'" font-size="13.4964">ver todos</text>
		<g>
			<circle fill="#FFFFFF" cx="4171.597" cy="229.5" r="9.78"/>
			<polyline fill="none" stroke="#000000" stroke-miterlimit="10" points="4168.37,223.143 4174.825,229.598 4168.565,235.857 			
				"/>
		</g>
		<g>
			<circle fill="#FFFFFF" cx="3768.446" cy="229.5" r="9.779"/>
			<polyline fill="none" stroke="#000000" stroke-miterlimit="10" points="3771.673,235.856 3765.218,229.401 3771.477,223.142 			
				"/>
		</g>
		
			<line opacity="0.1" fill="none" stroke="#000000" stroke-miterlimit="10" x1="3765.542" y1="140.325" x2="4180.542" y2="140.325"/>
		<g>
			<defs>
				<rect id="SVGID_21_" x="3791.542" y="156.825" width="114" height="102"/>
			</defs>
			<clipPath id="SVGID_22_">
				<use xlink:href="#SVGID_21_"  overflow="visible"/>
			</clipPath>
			<g clip-path="url(#SVGID_22_)">
				<text transform="matrix(1 0 0 1 3778.5405 303.4072)" font-family="'Raleway-Thin'" font-size="15">PLATOS CERCA</text>
			</g>
			<g transform="matrix(1 0 0 1 2.441406e-004 0)" clip-path="url(#SVGID_22_)">
				
					<image overflow="visible" width="450" height="252" xlink:href="9277C015.jpg"  transform="matrix(0.5644 0 0 0.5644 3711.0415 137.3823)">
				</image>
			</g>
		</g>
		<g>
			<defs>
				<rect id="SVGID_23_" x="3914.542" y="156.825" width="114" height="102"/>
			</defs>
			<clipPath id="SVGID_24_">
				<use xlink:href="#SVGID_23_"  overflow="visible"/>
			</clipPath>
			<g transform="matrix(1 0 0 1 0 1.525879e-005)" clip-path="url(#SVGID_24_)">
				
					<image overflow="visible" width="550" height="410" xlink:href="9277C016.jpg"  transform="matrix(0.2573 0 0 0.2573 3896.0415 154.9429)">
				</image>
			</g>
		</g>
		<g>
			<defs>
				<rect id="SVGID_25_" x="4037.542" y="156.825" width="114" height="102"/>
			</defs>
			<clipPath id="SVGID_26_">
				<use xlink:href="#SVGID_25_"  overflow="visible"/>
			</clipPath>
			<g transform="matrix(1 0 0 1 -2.441406e-004 -1.525879e-005)" clip-path="url(#SVGID_26_)">
				
					<image overflow="visible" width="700" height="700" xlink:href="9277C014.jpg"  transform="matrix(0.2214 0 0 0.2214 4027.0435 123.7124)">
				</image>
			</g>
		</g>
		<rect x="4037.542" y="257.825" fill="#FFFFFF" width="114" height="71"/>
		<rect x="4049.988" y="268.088" fill="none" width="79.554" height="51.87"/>
		<text transform="matrix(1 0 0 1 4049.9878 277.4482)" opacity="0.6"><tspan x="0" y="0" font-family="'HelveticaLTStd-Light'" font-size="13">Sushi pop  </tspan><tspan x="0" y="19.168" font-family="'HelveticaLTStd-Light'" font-size="13">con Nigiri de</tspan><tspan x="0" y="38.337" font-family="'HelveticaLTStd-Light'" font-size="13">Wasabi</tspan></text>
		<rect x="3914.542" y="257.825" fill="#FFFFFF" width="114" height="71"/>
		<rect x="3926.988" y="268.088" fill="none" width="79.554" height="51.87"/>
		<text transform="matrix(1 0 0 1 3926.9878 277.4482)" opacity="0.6"><tspan x="0" y="0" font-family="'HelveticaLTStd-Light'" font-size="13">Sushi pop  </tspan><tspan x="0" y="19.168" font-family="'HelveticaLTStd-Light'" font-size="13">con Nigiri de</tspan><tspan x="0" y="38.337" font-family="'HelveticaLTStd-Light'" font-size="13">Wasabi</tspan></text>
		<rect x="3791.542" y="257.825" fill="#FFFFFF" width="114" height="71"/>
		<rect x="3803.988" y="268.088" fill="none" width="79.554" height="51.87"/>
		<text transform="matrix(1 0 0 1 3803.9878 277.4482)" opacity="0.6"><tspan x="0" y="0" font-family="'HelveticaLTStd-Light'" font-size="13">Sushi pop  </tspan><tspan x="0" y="19.168" font-family="'HelveticaLTStd-Light'" font-size="13">con Nigiri de</tspan><tspan x="0" y="38.337" font-family="'HelveticaLTStd-Light'" font-size="13">Wasabi</tspan></text>
		<text transform="matrix(1 0 0 1 3775.5405 128.9932)" font-family="'Raleway-Thin'" font-size="15">LOCALES CERCA</text>
	</g>
	<g>
		<rect x="4208.542" y="-43.175" fill-rule="evenodd" clip-rule="evenodd" fill="#FFFFFF" width="529" height="240"/>
		<text transform="matrix(1 0 0 1 4314.771 0)" font-family="'Raleway-Thin'" font-size="18.7392">Marcos Sanchez </text>
		<text transform="matrix(1 0 0 1 4314.771 23.4307)" opacity="0.7" font-family="'Raleway-Thin'" font-size="15.332">18 de Julio -  19 : 30 hs.</text>
		<line opacity="0.1" fill="none" stroke="#000000" stroke-miterlimit="10" x1="4223.542" y1="60.325" x2="4712.542" y2="60.325"/>
		<rect x="4231.194" y="85.444" fill="none" width="482.107" height="106.473"/>
		<text transform="matrix(1 0 0 1 4231.1938 95.5239)" opacity="0.8"><tspan x="0" y="0" font-family="'HelveticaLTStd-Light'" font-size="14">&quot;Sed ut perspiciatis unde omnis iste natus error sit voluptatem </tspan><tspan x="0" y="23.168" font-family="'HelveticaLTStd-Light'" font-size="14">accusantium doloremque laudantium&quot;Sed ut perspiciatis unde omnis iste </tspan><tspan x="0" y="46.337" font-family="'HelveticaLTStd-Light'" font-size="14">natus error sit voluptatem &quot;Sed ut perspiciatis unde omnis iste natus error sit </tspan><tspan x="0" y="69.505" font-family="'HelveticaLTStd-Light'" font-size="14">voluptatem dantium</tspan></text>
		<g>
			<defs>
				<rect id="SVGID_27_" x="4223.542" y="-27.175" width="73" height="66"/>
			</defs>
			<clipPath id="SVGID_28_">
				<use xlink:href="#SVGID_27_"  overflow="visible"/>
			</clipPath>
			<g transform="matrix(1 0 0 1 0 1.907349e-006)" clip-path="url(#SVGID_28_)">
				
					<image overflow="visible" width="550" height="412" xlink:href="9277C013.jpg"  transform="matrix(0.1955 0 0 0.1955 4208.7915 -28.48)">
				</image>
			</g>
		</g>
		
			<line opacity="0.5" fill-rule="evenodd" clip-rule="evenodd" fill="#FFFFFF" stroke="#FF900B" stroke-width="2" stroke-linecap="round" stroke-linejoin="round" stroke-miterlimit="10" x1="4208.542" y1="-44.175" x2="4737.542" y2="-44.175"/>
		<path opacity="0.6" fill-rule="evenodd" clip-rule="evenodd" fill="#778B8C" d="M4492.097,24.605
			c-0.633-0.973-0.543-1.643,0.364-2.51c0.832-0.795,1.244-2.054,1.725-3.159c0.094-0.216-0.261-0.766-0.545-0.979
			c-0.706-0.535-1.51-0.939-2.238-1.447c-0.535-0.374-1.102-0.361-1.697-0.469c-0.82-0.148-1.537-0.971-2.227-1.588
			c-0.055-0.049,0.385-0.831,0.732-1.08c0.191-0.137,0.67,0.127,1.076,0.225c0.385-0.514,0.791-1.252,1.381-1.795
			c0.566-0.525,1.319-0.85,2.097-1.328c-0.37-0.275-0.739-0.552-1.111-0.827c-0.005,0.077-0.012,0.155-0.017,0.231
			c-0.451,0.063-0.902,0.127-1.354,0.189c0.082-0.393,0.164-0.783,0.283-1.344c-0.98-0.748-2.227,0.467-3.299-0.105
			c2.906-1.67,8.004-0.848,10.881,2.564c3.086,3.664,3.041,8.934-0.168,12.6c-2.994,3.422-8.297,4.244-11.977,1.854
			c0.779-1.629,0.115-2.747-1.746-2.833c-1.125-0.051-1.807-0.507-2.254-1.582c-1.625-3.904-0.614-8.415,2.611-11.092
			c0.27-0.224,0.738-0.205,1.114-0.299c0.044,0.264,0.181,0.555,0.116,0.787c-0.77,2.756,0.604,4.534,2.527,5.386
			c0.32,0.142,0.641,0.284,0.979,0.434c-0.4,1.236,0.031,2.208,0.693,3.188c0.328,0.485,0.445,1.144,0.549,1.743
			c0.125,0.723,0.037,1.492,0.232,2.188c0.131,0.47,0.596,0.846,0.912,1.262C4491.858,24.748,4491.977,24.676,4492.097,24.605z"/>
	</g>
	<g>
		<rect x="4208.542" y="210.825" fill-rule="evenodd" clip-rule="evenodd" fill="#FFFFFF" width="529" height="240"/>
		<rect x="4223.542" y="225.825" opacity="0.1" fill-rule="evenodd" clip-rule="evenodd" width="73" height="66"/>
		<text transform="matrix(1 0 0 1 4314.771 253.5713)" font-family="'Raleway-Thin'" font-size="18.7392">Sofía Muñoz</text>
		<text transform="matrix(1 0 0 1 4314.771 277.002)" opacity="0.7" font-family="'Raleway-Thin'" font-size="15.332">18 de Julio -  19 : 30 hs.</text>
		<path opacity="0.6" fill-rule="evenodd" clip-rule="evenodd" fill="#778B8C" d="M4492.099,278.176
			c-0.633-0.973-0.544-1.643,0.364-2.51c0.83-0.795,1.244-2.054,1.725-3.159c0.094-0.216-0.262-0.766-0.545-0.979
			c-0.706-0.535-1.51-0.939-2.238-1.447c-0.535-0.374-1.102-0.361-1.697-0.469c-0.82-0.148-1.537-0.971-2.227-1.588
			c-0.055-0.049,0.385-0.831,0.732-1.08c0.191-0.137,0.67,0.127,1.076,0.225c0.385-0.514,0.791-1.252,1.381-1.795
			c0.566-0.525,1.318-0.85,2.097-1.328c-0.37-0.275-0.739-0.552-1.111-0.827c-0.005,0.077-0.013,0.155-0.017,0.231
			c-0.451,0.063-0.902,0.127-1.354,0.189c0.082-0.393,0.164-0.783,0.283-1.344c-0.98-0.748-2.227,0.467-3.299-0.105
			c2.906-1.67,8.004-0.848,10.881,2.564c3.086,3.664,3.041,8.934-0.168,12.6c-2.994,3.422-8.297,4.244-11.977,1.854
			c0.779-1.629,0.115-2.747-1.746-2.833c-1.125-0.051-1.807-0.507-2.254-1.582c-1.625-3.904-0.615-8.415,2.611-11.092
			c0.27-0.224,0.738-0.205,1.114-0.299c0.044,0.264,0.182,0.555,0.116,0.787c-0.77,2.756,0.604,4.534,2.527,5.386
			c0.321,0.142,0.641,0.284,0.979,0.434c-0.4,1.236,0.031,2.208,0.693,3.188c0.328,0.485,0.445,1.144,0.549,1.743
			c0.125,0.723,0.037,1.492,0.232,2.188c0.131,0.47,0.596,0.846,0.912,1.262C4491.86,278.319,4491.98,278.248,4492.099,278.176z"/>
		
			<line opacity="0.1" fill="none" stroke="#000000" stroke-miterlimit="10" x1="4223.542" y1="314.325" x2="4712.542" y2="314.325"/>
		<rect x="4231.194" y="339.016" fill="none" width="482.107" height="106.473"/>
		<text transform="matrix(1 0 0 1 4231.1938 349.0952)" opacity="0.8"><tspan x="0" y="0" font-family="'HelveticaLTStd-Light'" font-size="14">&quot;Sed ut perspiciatis unde omnis iste natus error sit voluptatem </tspan><tspan x="0" y="23.169" font-family="'HelveticaLTStd-Light'" font-size="14">accusantium doloremque laudantium&quot;Sed ut perspiciatis unde omnis iste </tspan><tspan x="0" y="46.337" font-family="'HelveticaLTStd-Light'" font-size="14">natus error sit voluptatem &quot;Sed ut perspiciatis unde omnis iste natus error sit </tspan><tspan x="0" y="69.505" font-family="'HelveticaLTStd-Light'" font-size="14">voluptatem dantium</tspan></text>
		
			<line opacity="0.5" fill-rule="evenodd" clip-rule="evenodd" fill="#FFFFFF" stroke="#FF900B" stroke-width="2" stroke-linecap="round" stroke-linejoin="round" stroke-miterlimit="10" x1="4208.542" y1="211.825" x2="4737.542" y2="211.825"/>
		<g>
			<defs>
				<rect id="SVGID_29_" x="4223.542" y="224.825" width="73" height="66"/>
			</defs>
			<clipPath id="SVGID_30_">
				<use xlink:href="#SVGID_29_"  overflow="visible"/>
			</clipPath>
			<g transform="matrix(1 0 0 1 0 1.525879e-005)" clip-path="url(#SVGID_30_)">
				
					<image overflow="visible" width="594" height="565" xlink:href="9277C00D.jpg"  transform="matrix(0.1482 0 0 0.1482 4213.0405 216.9722)">
				</image>
			</g>
		</g>
	</g>
	<g>
		<g>
			<rect x="4208.542" y="468.825" fill-rule="evenodd" clip-rule="evenodd" fill="#FFFFFF" width="529" height="240"/>
			<rect x="4223.542" y="484.825" opacity="0.1" fill-rule="evenodd" clip-rule="evenodd" width="73" height="66"/>
			<text transform="matrix(1 0 0 1 4314.771 511.9941)" font-family="'Raleway-Thin'" font-size="18.7392">Marcos Sanchez </text>
			<text transform="matrix(1 0 0 1 4314.771 535.4248)" opacity="0.7" font-family="'Raleway-Thin'" font-size="15.332">18 de Julio -  19 : 30 hs.</text>
			<path opacity="0.6" fill-rule="evenodd" clip-rule="evenodd" fill="#778B8C" d="M4492.099,536.6
				c-0.633-0.973-0.544-1.643,0.364-2.51c0.83-0.795,1.244-2.055,1.725-3.159c0.094-0.216-0.262-0.766-0.545-0.98
				c-0.706-0.534-1.51-0.938-2.238-1.447c-0.535-0.374-1.102-0.36-1.697-0.468c-0.82-0.148-1.537-0.971-2.227-1.588
				c-0.055-0.049,0.385-0.832,0.732-1.081c0.191-0.137,0.67,0.128,1.076,0.226c0.385-0.514,0.791-1.252,1.381-1.795
				c0.566-0.525,1.318-0.852,2.097-1.328c-0.37-0.276-0.739-0.553-1.111-0.828c-0.005,0.078-0.013,0.156-0.017,0.231
				c-0.451,0.063-0.902,0.126-1.354,0.189c0.082-0.392,0.164-0.783,0.283-1.343c-0.98-0.748-2.227,0.467-3.299-0.105
				c2.906-1.67,8.004-0.848,10.881,2.564c3.086,3.664,3.041,8.933-0.168,12.6c-2.994,3.422-8.297,4.242-11.977,1.854
				c0.779-1.63,0.115-2.748-1.746-2.833c-1.125-0.051-1.807-0.507-2.254-1.582c-1.625-3.904-0.615-8.416,2.611-11.093
				c0.27-0.223,0.738-0.204,1.114-0.298c0.044,0.264,0.182,0.554,0.116,0.787c-0.77,2.756,0.604,4.534,2.527,5.385
				c0.321,0.142,0.641,0.284,0.979,0.434c-0.4,1.236,0.031,2.209,0.693,3.188c0.328,0.485,0.445,1.144,0.549,1.743
				c0.125,0.723,0.037,1.492,0.232,2.188c0.131,0.469,0.596,0.845,0.912,1.261C4491.86,536.742,4491.98,536.67,4492.099,536.6z"/>
			
				<line opacity="0.1" fill="none" stroke="#000000" stroke-miterlimit="10" x1="4223.542" y1="572.325" x2="4712.542" y2="572.325"/>
			<rect x="4231.194" y="597.44" fill="none" width="482.107" height="106.473"/>
			<text transform="matrix(1 0 0 1 4231.1938 607.519)" opacity="0.8"><tspan x="0" y="0" font-family="'HelveticaLTStd-Light'" font-size="14">&quot;Sed ut perspiciatis unde omnis iste natus error sit voluptatem </tspan><tspan x="0" y="23.169" font-family="'HelveticaLTStd-Light'" font-size="14">accusantium doloremque laudantium&quot;Sed ut perspiciatis unde omnis iste </tspan><tspan x="0" y="46.337" font-family="'HelveticaLTStd-Light'" font-size="14">natus error sit voluptatem &quot;Sed ut perspiciatis unde omnis iste natus error sit </tspan><tspan x="0" y="69.505" font-family="'HelveticaLTStd-Light'" font-size="14">voluptatem dantium</tspan></text>
			<g>
				<defs>
					<rect id="SVGID_31_" x="4223.542" y="483.825" width="73" height="66"/>
				</defs>
				<clipPath id="SVGID_32_">
					<use xlink:href="#SVGID_31_"  overflow="visible"/>
				</clipPath>
				<g transform="matrix(1 0 0 1 0 -3.051758e-005)" clip-path="url(#SVGID_32_)">
					
						<image overflow="visible" width="550" height="412" xlink:href="9277C00E.jpg"  transform="matrix(0.1955 0 0 0.1955 4208.7915 482.52)">
					</image>
				</g>
			</g>
		</g>
		
			<line opacity="0.5" fill-rule="evenodd" clip-rule="evenodd" fill="#FFFFFF" stroke="#FF900B" stroke-width="2" stroke-linecap="round" stroke-linejoin="round" stroke-miterlimit="10" x1="4208.542" y1="467.825" x2="4737.542" y2="467.825"/>
	</g>
	<rect x="3419.542" y="-288.175" opacity="0.4" fill="#778B8C" width="1920" height="50"/>
	<rect x="3356.542" y="-328.175" fill="#FF900B" width="1996" height="88"/>
	<path opacity="0.4" fill-rule="evenodd" clip-rule="evenodd" fill="none" stroke="#FFFFFF" stroke-miterlimit="10" d="
		M4124.042-269.221c0,7.671-4.873,14.545-11.5,14.545h-225c-6.627,0-12.5-6.874-12.5-14.545v-3.472c0-7.67,5.873-12.983,12.5-12.983
		h225c6.627,0,11.5,5.313,11.5,12.983V-269.221z"/>
	<path fill-rule="evenodd" clip-rule="evenodd" fill="#FFFFFF" d="M4137.795-283.769c5.527,1.303,8.285,7.573,5.5,12.504
		c-1.027,1.819-0.967,2.503,0.416,4.028c0.146,0.161,0.43,0.205,0.656,0.288c0.418,0.155,1.004,0.173,1.236,0.47
		c1.447,1.847,2.836,3.742,4.199,5.653c0.445,0.624,0.304,1.348-0.301,1.844c-0.671,0.552-1.375,1.07-2.103,1.548
		c-0.675,0.441-1.423,0.347-1.908-0.297c-1.385-1.831-2.751-3.679-4.049-5.57c-0.229-0.335-0.108-0.916-0.128-1.386
		c-0.006-0.146,0.104-0.306,0.075-0.442c-0.269-1.254-1.796-2.303-3.073-2.024c-2.035,0.444-4.011,0.463-5.959-0.403
		c-4.131-1.837-6.124-6.337-4.688-10.67C4129.042-282.363,4133.471-284.79,4137.795-283.769z M4129.67-276.948
		c-0.83,3.357,1.185,6.826,4.438,7.638c3.594,0.897,6.969-1.102,7.846-4.643c0.813-3.295-1.23-6.755-4.463-7.554
		C4133.891-282.395,4130.536-280.438,4129.67-276.948z"/>
	
		<rect x="4227.042" y="-283.675" fill-rule="evenodd" clip-rule="evenodd" fill="none" stroke="#FFFFFF" stroke-miterlimit="10" width="30" height="27"/>
	<text transform="matrix(1 0 0 1 4272.5415 -265.8423)" fill="#FFFFFF" font-family="'Raleway-SemiBold'" font-size="15">Andres  Maldonado</text>
	<circle fill="#778B8C" cx="4402.26" cy="-182.02" r="11.594"/>
	<polyline fill="none" stroke="#FFFFFF" stroke-miterlimit="10" points="4408.137,-185.432 4401.682,-178.977 4395.422,-185.236 	
		"/>
	<text transform="matrix(1 0 0 1 4370.5415 -208.1753)" font-family="'Raleway-Thin'" font-size="15">Acciones</text>
	<g>
		<g>
			<path fill="#FFFFFF" d="M4215.542-128.675c1.935,0,1.935-3,0-3S4213.607-128.675,4215.542-128.675L4215.542-128.675z"/>
		</g>
	</g>
	<rect x="4207.542" y="-129.175" fill-rule="evenodd" clip-rule="evenodd" fill="#FFFFFF" width="529" height="62"/>
	<g>
		<defs>
			<rect id="SVGID_33_" x="4223.542" y="-115.175" width="40" height="36"/>
		</defs>
		<clipPath id="SVGID_34_">
			<use xlink:href="#SVGID_33_"  overflow="visible"/>
		</clipPath>
		<g transform="matrix(1 0 0 1 4.882813e-004 0)" clip-path="url(#SVGID_34_)">
			
				<image overflow="visible" width="550" height="412" xlink:href="9277C00C.jpg"  transform="matrix(0.1071 0 0 0.1071 4215.4595 -116.4614)">
			</image>
		</g>
	</g>
	<polygon opacity="0.2" fill-rule="evenodd" clip-rule="evenodd" fill="none" stroke="#000000" stroke-miterlimit="10" points="
		4269.542,-97.775 4275.042,-104.076 4275.042,-116.675 4718.042,-116.675 4718.042,-79.675 4275.042,-79.675 4275.042,-94.1 	"/>
	<g>
		<text transform="matrix(1 0 0 1 4296.5415 -91.6753)" font-family="'Raleway-Thin'" font-size="15">¿Qué te gustaría compartir?</text>
	</g>
	<g>
		<path fill-rule="evenodd" clip-rule="evenodd" fill="#778B8C" d="M4695.031-87.801c-3.749,0-7.498-0.001-11.247,0.001
			c-0.613,0.001-1.146-0.197-1.585-0.624c-0.43-0.419-0.652-0.938-0.652-1.538c-0.003-4.376-0.009-8.752-0.003-13.127
			c0.003-1.219,0.945-2.144,2.171-2.151c1.394-0.008,2.788-0.005,4.181,0.001c0.21,0.001,0.362-0.055,0.51-0.208
			c0.78-0.808,1.572-1.604,2.358-2.407c0.446-0.455,0.981-0.695,1.62-0.696c1.793-0.002,3.587,0,5.38,0
			c0.577,0,1.088,0.189,1.495,0.593c0.839,0.827,1.658,1.674,2.499,2.497c0.12,0.119,0.329,0.206,0.498,0.208
			c1.317,0.017,2.636,0.007,3.954,0.01c1.403,0.002,2.31,0.91,2.309,2.313c0,4.278,0.001,8.557-0.003,12.836
			c0,1.371-0.925,2.292-2.302,2.294c-3.728,0.004-7.455,0.001-11.183,0.001C4695.031-87.799,4695.031-87.801,4695.031-87.801z
			 M4689.042-97.052c0.024,3.371,2.776,6.045,6.114,5.972c3.429-0.075,6.005-2.974,5.859-6.32c-0.136-3.118-2.898-5.759-6.045-5.688
			C4691.656-103.016,4688.949-100.257,4689.042-97.052z M4706.831-102.682c0.005-0.497-0.402-0.915-0.894-0.922
			c-0.479-0.007-0.909,0.417-0.916,0.907c-0.008,0.489,0.405,0.909,0.898,0.915C4706.419-101.777,4706.825-102.179,4706.831-102.682
			z"/>
		<path fill-rule="evenodd" clip-rule="evenodd" fill="#778B8C" d="M4695.036-101.615c2.503-0.002,4.53,2.046,4.523,4.573
			c-0.005,2.466-2.064,4.51-4.535,4.502c-2.48-0.008-4.535-2.058-4.523-4.515C4690.51-99.596,4692.515-101.611,4695.036-101.615z"/>
	</g>
	<g>
		<path fill-rule="evenodd" clip-rule="evenodd" fill="#FFFFFF" d="M4924.795-262.957c-2.746,0-5.23,0.015-7.717-0.011
			c-0.588-0.006-0.918,0.056-1.051,0.766c-0.215,1.163-1.361,1.94-2.574,1.937c-1.215-0.006-2.27-0.802-2.582-1.955
			c-0.061-0.224-0.107-0.453-0.174-0.736c-0.313,0-0.594,0-0.875,0c-2.369,0-4.737-0.007-7.107,0.008
			c-0.418,0.002-0.609-0.089-0.699-0.559c-0.137-0.717,0.039-1.21,0.531-1.77c2.521-2.866,3.789-6.229,3.799-10.061
			c0.006-2.396,0.895-4.378,2.841-5.838c0.095-0.07,0.188-0.149,0.294-0.198c0.914-0.426,1.636-0.844,1.736-2.114
			c0.092-1.186,1.471-1.841,2.682-1.629c1.166,0.204,2.016,1.201,1.977,2.416c-0.014,0.447,0.102,0.664,0.511,0.856
			c2.58,1.221,3.94,3.313,4.003,6.131c0.092,4.146,1.338,7.785,4.154,10.888C4924.873-264.463,4924.717-263.66,4924.795-262.957z
			 M4912.401-282.459c0.6,0,1.143-0.027,1.678,0.008c0.521,0.034,0.557-0.231,0.447-0.614c-0.152-0.534-0.746-0.904-1.279-0.764
			C4912.618-283.662,4912.305-283.249,4912.401-282.459z"/>
		<path fill-rule="evenodd" clip-rule="evenodd" fill="#FFFFFF" d="M4912.401-282.459c-0.096-0.789,0.217-1.202,0.846-1.37
			c0.533-0.141,1.127,0.229,1.279,0.764c0.109,0.383,0.074,0.648-0.447,0.614C4913.543-282.487,4913-282.459,4912.401-282.459z"/>
	</g>
	<g>
		<path fill-rule="evenodd" clip-rule="evenodd" fill="#FFFFFF" d="M4949.76-284.489c0.979,0,1.957,0,2.936,0
			c0.037,0.223,0.078,0.444,0.113,0.666c0.127,0.76,0.256,1.52,0.374,2.281c0.026,0.17,0.085,0.268,0.266,0.302
			c0.196,0.037,0.394,0.088,0.575,0.167c0.588,0.26,1.168,0.539,1.756,0.803c0.055,0.024,0.15,0.03,0.195-0.001
			c0.494-0.343,0.98-0.693,1.471-1.043c0.352-0.249,0.701-0.5,1.047-0.746c0.699,0.699,1.387,1.387,2.082,2.083
			c-0.037,0.057-0.076,0.121-0.119,0.181c-0.553,0.774-1.107,1.546-1.656,2.324c-0.035,0.05-0.041,0.157-0.012,0.21
			c0.434,0.746,0.781,1.526,0.98,2.368c0.035,0.149,0.117,0.2,0.256,0.222c0.992,0.162,1.988,0.329,2.982,0.494
			c0,0.978,0,1.957,0,2.936c-0.234,0.04-0.47,0.081-0.704,0.119c-0.755,0.125-1.507,0.253-2.261,0.369
			c-0.168,0.026-0.25,0.096-0.285,0.263c-0.045,0.214-0.1,0.431-0.188,0.63c-0.252,0.57-0.523,1.133-0.781,1.702
			c-0.025,0.056-0.03,0.15,0,0.196c0.344,0.493,0.695,0.98,1.043,1.469c0.251,0.352,0.502,0.702,0.746,1.047
			c-0.699,0.699-1.385,1.387-2.08,2.082c-0.053-0.032-0.111-0.066-0.166-0.106c-0.775-0.553-1.549-1.105-2.322-1.661
			c-0.078-0.058-0.139-0.08-0.232-0.023c-0.739,0.442-1.522,0.786-2.363,0.985c-0.15,0.034-0.201,0.116-0.223,0.254
			c-0.164,0.995-0.33,1.99-0.494,2.984c-0.979,0-1.956,0-2.936,0c-0.037-0.216-0.074-0.432-0.109-0.647
			c-0.127-0.768-0.26-1.533-0.377-2.3c-0.027-0.17-0.086-0.269-0.266-0.303c-0.207-0.041-0.419-0.095-0.611-0.18
			c-0.576-0.255-1.146-0.529-1.721-0.788c-0.055-0.025-0.148-0.03-0.193,0.001c-0.488,0.339-0.973,0.686-1.455,1.031
			c-0.357,0.253-0.713,0.507-1.064,0.758c-0.699-0.699-1.387-1.387-2.081-2.079c0.03-0.049,0.062-0.104,0.097-0.155
			c0.557-0.779,1.111-1.558,1.674-2.335c0.064-0.09,0.069-0.154,0.014-0.25c-0.434-0.723-0.773-1.489-0.967-2.312
			c-0.039-0.165-0.117-0.235-0.283-0.263c-0.99-0.157-1.977-0.324-2.967-0.488c0-0.979,0-1.958,0-2.936
			c0.994-0.165,1.99-0.332,2.985-0.494c0.138-0.021,0.218-0.072,0.255-0.222c0.197-0.842,0.545-1.622,0.979-2.369
			c0.029-0.053,0.023-0.159-0.012-0.209c-0.238-0.353-0.49-0.696-0.736-1.042c-0.35-0.489-0.699-0.977-1.043-1.459
			c0.699-0.699,1.387-1.387,2.082-2.082c0.047,0.03,0.102,0.061,0.15,0.096c0.78,0.555,1.561,1.11,2.336,1.672
			c0.091,0.063,0.154,0.071,0.251,0.014c0.729-0.436,1.501-0.773,2.329-0.972c0.15-0.036,0.219-0.108,0.242-0.259
			C4949.428-282.5,4949.594-283.495,4949.76-284.489z M4951.223-266.824c3.238,0.01,5.875-2.619,5.893-5.877
			c0.019-3.232-2.623-5.884-5.873-5.896s-5.887,2.618-5.9,5.886C4945.329-269.478,4947.97-266.833,4951.223-266.824z"/>
	</g>
	<g>
		<path fill-rule="evenodd" clip-rule="evenodd" fill="#FFFFFF" d="M4856.141-265.472c0.75-1.506,1.486-3.016,2.256-4.512
			c0.229-0.441,0.238-0.744-0.162-1.113c-3.164-2.92-2.975-8.102,1.021-10.912c4.289-3.02,11.088-3.373,15.543,0.115
			c4.5,3.523,4.188,9.008-0.66,12.068c-3.267,2.061-6.828,2.426-10.535,1.576c-0.682-0.154-1.215-0.102-1.826,0.221
			c-1.805,0.947-3.645,1.832-5.471,2.742C4856.253-265.349,4856.198-265.412,4856.141-265.472z"/>
		<path fill-rule="evenodd" clip-rule="evenodd" fill="#FFFFFF" d="M4878.117-271.722c1.698,1.887,1.7,4.324-0.038,6.256
			c-0.476,0.529-0.531,0.895-0.178,1.498c0.5,0.857,0.889,1.785,1.45,2.939c-1.483-0.732-2.716-1.375-3.979-1.943
			c-0.374-0.168-0.865-0.223-1.27-0.152c-2.933,0.52-5.695,0.262-8.083-1.709c-0.526-0.434-0.935-1.016-1.589-1.744
			C4870.015-266.054,4874.67-267.253,4878.117-271.722z"/>
	</g>
	<text transform="matrix(1 0 0 1 3771.5415 -260.9526)" fill="#FFFFFF" font-family="'Pacifico'" font-size="22">Uniresto</text>
	<polygon fill-rule="evenodd" clip-rule="evenodd" fill="none" stroke="#FFFFFF" stroke-miterlimit="10" points="4424.397,-270.669 
		4428.042,-274.844 4428.042,-282.675 4452.042,-282.675 4452.042,-258.675 4428.042,-258.675 4428.042,-268.234 	"/>
	<g>
		<defs>
			<circle id="SVGID_35_" cx="4241.542" cy="-269.998" r="20"/>
		</defs>
		<clipPath id="SVGID_36_">
			<use xlink:href="#SVGID_35_"  overflow="visible"/>
		</clipPath>
		<g transform="matrix(1 0 0 1 4.882813e-004 0)" clip-path="url(#SVGID_36_)">
			
				<image overflow="visible" width="360" height="180" xlink:href="9277C032.jpg"  transform="matrix(0.294 0 0 0.294 4221.5415 -291.7041)">
			</image>
		</g>
	</g>
	<circle fill-rule="evenodd" clip-rule="evenodd" fill="none" cx="4332.542" cy="149.502" r="20"/>
	<g>
		<path fill-rule="evenodd" clip-rule="evenodd" fill="#FFFFFF" d="M-53.536,154.784c0.75-1.506,1.486-3.016,2.256-4.512
			c0.229-0.441,0.238-0.744-0.162-1.113c-3.164-2.92-2.975-8.102,1.021-10.912c4.289-3.02,11.088-3.373,15.543,0.115
			c4.5,3.523,4.188,9.008-0.66,12.068c-3.267,2.061-6.828,2.426-10.535,1.576c-0.682-0.154-1.215-0.102-1.826,0.221
			c-1.805,0.947-3.645,1.832-5.471,2.742C-53.423,154.907-53.479,154.845-53.536,154.784z"/>
		<path fill-rule="evenodd" clip-rule="evenodd" fill="#FFFFFF" d="M-31.56,148.534c1.698,1.887,1.7,4.324-0.038,6.256
			c-0.476,0.529-0.531,0.895-0.178,1.498c0.5,0.857,0.889,1.785,1.45,2.939c-1.483-0.732-2.716-1.375-3.979-1.943
			c-0.374-0.168-0.865-0.223-1.27-0.152c-2.933,0.52-5.695,0.262-8.083-1.709c-0.526-0.434-0.935-1.016-1.589-1.744
			C-39.662,154.202-35.006,153.003-31.56,148.534z"/>
	</g>
	<g>
		<text transform="matrix(1 0 0 1 -250.1597 104.9487)" fill="#FFFFFF" font-family="'Pacifico'" font-size="18.9405">U</text>
		
			<circle fill-rule="evenodd" clip-rule="evenodd" fill="none" stroke="#FFFFFF" stroke-width="3" stroke-miterlimit="10" cx="-243.057" cy="96.951" r="13.929"/>
	</g>
	<g>
		
			<circle fill="none" stroke="#FFFFFF" stroke-width="2" stroke-linecap="round" stroke-linejoin="round" stroke-miterlimit="10" cx="-187.2" cy="29.322" r="5.876"/>
		<path fill="none" stroke="#FFFFFF" stroke-width="2" stroke-linecap="round" stroke-linejoin="round" stroke-miterlimit="10" d="
			M-181.118,39.43c0,0-0.24,0.046-0.574,0c-0.335-0.048-3.258-1.006-3.305-3.737"/>
		<path fill="none" stroke="#FFFFFF" stroke-width="2" stroke-linecap="round" stroke-linejoin="round" stroke-miterlimit="10" d="
			M-180.684,39.449c0,0,4.661,0.029,4.726,6.288"/>
		<path fill="none" stroke="#FFFFFF" stroke-width="2" stroke-linecap="round" stroke-linejoin="round" stroke-miterlimit="10" d="
			M-193.635,39.43c0,0,0.24,0.046,0.575,0c0.336-0.048,3.257-1.006,3.305-3.737"/>
		<path fill="none" stroke="#FFFFFF" stroke-width="2" stroke-linecap="round" stroke-linejoin="round" stroke-miterlimit="10" d="
			M-194.067,39.449c0,0-4.661,0.029-4.726,6.288"/>
	</g>
	<g>
		
			<line fill="none" stroke="#FFFFFF" stroke-width="3" stroke-linecap="round" stroke-linejoin="round" stroke-miterlimit="10" x1="-7.458" y1="106.325" x2="18.542" y2="106.325"/>
		
			<line fill="none" stroke="#FFFFFF" stroke-width="3" stroke-linecap="round" stroke-linejoin="round" stroke-miterlimit="10" x1="-7.458" y1="99.325" x2="18.542" y2="99.325"/>
		
			<line fill="none" stroke="#FFFFFF" stroke-width="3" stroke-linecap="round" stroke-linejoin="round" stroke-miterlimit="10" x1="-7.458" y1="91.325" x2="18.542" y2="91.325"/>
	</g>
	<g>
		<g>
			<path fill-rule="evenodd" clip-rule="evenodd" fill="#FFFFFF" d="M17.355,157.299c-2.746,0-5.23,0.015-7.717-0.011
				c-0.588-0.006-0.918,0.056-1.051,0.766c-0.215,1.163-1.361,1.94-2.574,1.937c-1.215-0.006-2.27-0.802-2.582-1.955
				c-0.061-0.224-0.107-0.453-0.174-0.736c-0.313,0-0.594,0-0.875,0c-2.369,0-4.737-0.007-7.107,0.008
				c-0.418,0.002-0.609-0.089-0.699-0.559c-0.137-0.717,0.039-1.21,0.531-1.77c2.521-2.866,3.789-6.229,3.799-10.061
				c0.006-2.396,0.895-4.378,2.841-5.838c0.095-0.07,0.188-0.149,0.294-0.198c0.914-0.426,1.636-0.844,1.736-2.114
				c0.092-1.186,1.471-1.841,2.682-1.629c1.166,0.204,2.016,1.201,1.977,2.416c-0.014,0.447,0.102,0.664,0.511,0.856
				c2.58,1.221,3.94,3.313,4.003,6.131c0.092,4.146,1.338,7.785,4.154,10.888C17.433,155.792,17.277,156.596,17.355,157.299z
				 M4.961,137.796c0.6,0,1.143-0.027,1.678,0.008c0.521,0.034,0.557-0.231,0.447-0.614c-0.152-0.534-0.746-0.904-1.279-0.764
				C5.178,136.594,4.865,137.007,4.961,137.796z"/>
			<path fill-rule="evenodd" clip-rule="evenodd" fill="#FF900B" d="M4.961,137.796c-0.096-0.789,0.217-1.202,0.846-1.37
				c0.533-0.141,1.127,0.229,1.279,0.764c0.109,0.383,0.074,0.648-0.447,0.614C6.104,137.769,5.561,137.796,4.961,137.796z"/>
		</g>
		<path fill-rule="evenodd" clip-rule="evenodd" fill="#FF900B" d="M-2,154.158c0,0,2.041-2.167,2.208-4.333
			s-0.625-6.458,1.125-8.042c1.833-1.583,1.833-1.583,1.833-1.583s-1.268,1.374-1.708,2.708C0.177,146.785,2.25,152.492-2,154.158z"
			/>
	</g>
	<rect x="-279.458" y="171.825" fill="#FFFFFF" width="321" height="58"/>
	<circle fill="#FF900B" cx="-117.74" cy="229.98" r="11.594"/>
	<text transform="matrix(1 0 0 1 -149.4585 203.8247)" fill="#F48206" font-family="'Raleway-Thin'" font-size="15">Acciones</text>
	<polyline fill="none" stroke="#FFFFFF" stroke-miterlimit="10" points="-111.863,228.568 -118.318,235.023 -124.578,228.764 	"/>
	<g>
		<defs>
			<circle id="SVGID_37_" cx="-236.792" cy="146.627" r="17.667"/>
		</defs>
		<clipPath id="SVGID_38_">
			<use xlink:href="#SVGID_37_"  overflow="visible"/>
		</clipPath>
		<g transform="matrix(1 0 0 1 1.525879e-005 -7.629395e-006)" clip-path="url(#SVGID_38_)">
			
				<image overflow="visible" width="360" height="180" xlink:href="9277C035.jpg"  transform="matrix(0.2597 0 0 0.2597 -254.4585 127.4531)">
			</image>
		</g>
	</g>
	<polygon fill-rule="evenodd" clip-rule="evenodd" fill="none" stroke="#FFFFFF" stroke-miterlimit="10" points="-207.762,148.633 
		-203.958,144.458 -203.958,136.325 -178.958,136.325 -178.958,160.325 -203.958,160.325 -203.958,151.068 	"/>
	<path fill-rule="evenodd" clip-rule="evenodd" fill="#FFFFFF" d="M-88.132,135.802c5.337,1.258,8,7.312,5.311,12.073
		c-0.992,1.756-0.934,2.417,0.401,3.889c0.142,0.155,0.415,0.198,0.634,0.278c0.403,0.15,0.969,0.167,1.193,0.453
		c1.397,1.783,2.738,3.613,4.055,5.458c0.43,0.603,0.293,1.301-0.291,1.78c-0.648,0.533-1.328,1.034-2.03,1.495
		c-0.651,0.426-1.374,0.334-1.843-0.287c-1.337-1.768-2.656-3.552-3.909-5.378c-0.222-0.324-0.105-0.885-0.124-1.338
		c-0.006-0.141,0.1-0.295,0.072-0.427c-0.259-1.21-1.733-2.223-2.967-1.955c-1.965,0.429-3.872,0.447-5.753-0.39
		c-3.988-1.773-5.913-6.118-4.527-10.301C-96.583,137.16-92.307,134.817-88.132,135.802z M-95.977,142.388
		c-0.801,3.242,1.144,6.591,4.285,7.374c3.47,0.867,6.728-1.063,7.574-4.482c0.786-3.181-1.188-6.522-4.309-7.293
		C-91.902,137.129-95.141,139.019-95.977,142.388z"/>
	<path fill-rule="evenodd" clip-rule="evenodd" fill="#FFFFFF" d="M14.167,2.514c5.337,1.258,8,7.312,5.311,12.073
		c-0.992,1.756-0.934,2.417,0.401,3.889c0.142,0.155,0.415,0.198,0.634,0.278c0.403,0.15,0.969,0.167,1.193,0.453
		c1.397,1.783,2.738,3.613,4.055,5.458c0.43,0.603,0.293,1.301-0.291,1.78c-0.648,0.533-1.328,1.034-2.03,1.495
		c-0.651,0.426-1.374,0.334-1.843-0.287c-1.337-1.768-2.656-3.552-3.909-5.378c-0.222-0.324-0.105-0.885-0.124-1.338
		c-0.006-0.141,0.1-0.295,0.072-0.427c-0.259-1.21-1.733-2.223-2.967-1.955c-1.965,0.429-3.872,0.447-5.753-0.39
		C4.93,16.393,3.005,12.048,4.391,7.865C5.716,3.872,9.993,1.529,14.167,2.514z M6.323,9.1c-0.801,3.242,1.144,6.591,4.285,7.374
		c3.47,0.867,6.728-1.063,7.574-4.482c0.786-3.181-1.188-6.522-4.309-7.293C10.398,3.84,7.159,5.73,6.323,9.1z"/>
</g>
</svg>
