<?xml version="1.0" encoding="utf-8"?>
<!-- Generator: Adobe Illustrator 19.1.1, SVG Export Plug-In . SVG Version: 6.00 Build 0)  -->
<svg version="1.1" id="Capa_1" xmlns="http://www.w3.org/2000/svg" xmlns:xlink="http://www.w3.org/1999/xlink" x="0px" y="0px"
	 viewBox="-291 381.5 27.9 30.5" style="enable-background:new -291 381.5 27.9 30.5;" xml:space="preserve">
<style type="text/css">
	.st0{fill:none;}
	.st1{fill:#FFFFFF;}
</style>
<g id="Capa_1_1_">
</g>
<g>
	<path class="st0" d="M-276.3,390.3c-3.3,0-5.9,2.6-5.9,5.9c0,3.2,2.6,5.9,5.9,5.9c3.2,0,5.9-2.6,5.9-5.9
		C-270.4,393-273,390.3-276.3,390.3z"/>
	<path class="st1" d="M-267.8,394.3c-0.1,0-0.1-0.1-0.1-0.2c-0.2-0.8-0.5-1.6-0.9-2.4c0-0.1,0-0.1,0-0.2c0.6-0.8,1.2-1.7,1.8-2.5
		c0,0,0,0,0,0c-0.7-0.7-1.4-1.4-2.1-2.1c-0.3,0.2-0.7,0.5-1,0.7c-0.5,0.3-1,0.7-1.5,1c-0.1,0-0.1,0-0.2,0c-0.6-0.3-1.2-0.6-1.8-0.8
		c-0.2-0.1-0.4-0.1-0.6-0.2c-0.2,0-0.2-0.1-0.3-0.3c-0.2-1-0.3-1.7-0.5-2.7c0,0,0,0.3,0,0.3h-2.9c-0.2,1-0.3,1.7-0.5,2.7
		c0,0.1-0.1,0.1-0.2,0.1c-0.9,0.2-1.7,0.6-2.5,1c-0.9-0.6-1.7-0.9-2.6-1.9c0,0,0,0,0,0c-0.7,1-1.4,1.3-2.1,2c0.3,0.5,0.7,0.9,1,1.4
		c0.2,0.3,0.5,0.7,0.7,1c0,0.1,0,0.1,0,0.2c-0.4,0.7-0.8,1.5-1,2.4c0,0.1-0.1,0.2-0.2,0.2c-1,0.2-1.9,0.3-2.9,0.5v2.9
		c1,0.2,1.9,0.3,2.9,0.5c0.1,0,0.2,0.1,0.3,0.3c0.2,0.8,0.5,1.6,1,2.3c0,0.1-0.1,0.2-0.2,0.3c-0.6,0.8-0.9,1.6-1.9,2.5c0,0,0,0,0,0
		c1,0.7,1.7,1.5,2.4,2.5c0,0,0,0,0,0c0.8-1,1.7-1.4,2.5-2c0.1,0,0.1-0.1,0.2-0.1c0.6,0.3,1.2,0.5,1.8,0.7c0.2,0.1,0.4,0.1,0.6,0.2
		c0.2,0,0.2,0.1,0.3,0.3c0.1,1,0.3,2,0.5,2.9c0,0,0,0,0,0h2.9c0.2-1,0.3-2,0.5-3c0-0.2,0.1-0.3,0.4-0.3c0.8,0,1.5-0.4,2.1-0.9
		c0.2-0.1,0.2-0.1,0.3-0.1c0.8,0.6,1.6,1.2,2.5,1.8c0,0,0,0,0,0c0.7-0.7,1.4-1.4,2.1-2.1c-0.2-0.3-0.5-0.7-0.7-1
		c-0.3-0.5-0.7-1-1-1.5c0-0.1,0-0.1,0-0.2c0.3-0.6,0.5-1.2,0.8-1.7c0.1-0.2,0.1-0.4,0.2-0.6c0-0.2,0.1-0.2,0.3-0.3
		c1-0.2,1.7-0.3,2.7-0.5c0,0-0.2,0-0.2,0v-2.9C-266,394.6-266.8,394.4-267.8,394.3z M-276.3,402.1c-3.3,0-5.9-2.7-5.9-5.9
		c0-3.3,2.7-5.9,5.9-5.9s5.9,2.7,5.9,5.9C-270.4,399.5-273.1,402.1-276.3,402.1z"/>
</g>
</svg>
