<?xml version="1.0" encoding="utf-8"?>
<!-- Generator: Adobe Illustrator 16.0.0, SVG Export Plug-In . SVG Version: 6.00 Build 0)  -->
<!DOCTYPE svg PUBLIC "-//W3C//DTD SVG 1.1//EN" "http://www.w3.org/Graphics/SVG/1.1/DTD/svg11.dtd">
<svg version="1.1" id="Capa_1" xmlns="http://www.w3.org/2000/svg" xmlns:xlink="http://www.w3.org/1999/xlink" x="0px" y="0px"
	 width="50px" height="50px" viewBox="0 0 50 50" enable-background="new 0 0 50 50" xml:space="preserve">
<g>
	<path fill="#EBF1FF" d="M42.425,37H5.086C2.557,37,0.5,35.028,0.5,32.5c0-2.527,2.057-4.5,4.586-4.5h37.339
		c2.528,0,4.586,1.973,4.586,4.5C47.011,35.028,44.953,37,42.425,37z M5.086,30c-1.445,0-2.621,1.056-2.621,2.5S3.641,35,5.086,35
		h37.339c1.445,0,2.621-1.056,2.621-2.5S43.87,30,42.425,30H5.086z"/>
	<path fill="#EBF1FF" d="M36.838,44h-25.51c-2.163,0-6.569-4-6.569-7h1.965c0,2,3.543,5,4.604,5h25.51c1,0,4.604-3,4.604-5h1.966
		C43.407,40,39.135,44,36.838,44z"/>
	<g>
		<path fill="#FF900B" d="M4.922,23c0,0-4.34,1.063-2.703,3.928c0.738,2.723,5.814,2.027,6.715,0.389
			c0.819,0.655,1.637,2.487,4.75,2.651c3.111,0.163,4.75-1.541,4.995-2.933c0.246-1.393,0.628,2.674,6.168,2.848
			c0.979-0.126,4.886-0.934,5.705-3.227c1.146,1.638,2.619,3.128,4.749,3.197c3.85,0,4.667-1.571,5.159-2.718
			c0.325-0.569,2.431,3.985,6.06,1.126C48.476,26.721,48.238,23,46.11,23C43.981,23,4.922,23,4.922,23z"/>
		<path fill="#EBF1FF" d="M14.099,30.925c-0.152,0-0.308-0.003-0.466-0.013c-2.649-0.14-3.933-1.398-4.709-2.26
			c-0.955,0.668-2.339,0.98-3.49,0.98c-2.111,0-3.642-0.92-4.126-2.469c-0.624-1.163-0.469-2.112-0.224-2.711
			c0.765-1.86,3.29-2.474,3.575-2.554L4.788,22H46.11c1.145,0,2.078,0.582,2.495,1.787c0.545,1.572,0.141,3.895-1.478,5.169
			c-0.997,0.785-2.017,1.15-3.03,1.15l0,0c-1.48,0-2.588-0.857-3.299-1.508c-0.827,1.229-2.301,2.244-5.498,2.244
			c-2.112-0.069-3.614-1.259-4.677-2.486c-1.848,1.98-5.468,2.543-5.649,2.565L24.895,31h-0.078c-3.086,0-4.792-1.393-5.728-2.368
			C18.256,29.935,16.584,30.925,14.099,30.925z M8.636,25.747l0.912,0.729c0.246,0.196,0.46,0.439,0.687,0.695
			c0.696,0.783,1.485,1.673,3.5,1.777c2.605,0.137,3.818-1.211,3.976-2.104c0.175-0.993,0.827-1.101,1.099-1.101
			c0.567,0,0.86,0.396,1.119,0.748c0.545,0.739,1.676,2.271,4.869,2.396c1.151-0.166,4.247-0.942,4.828-2.567l0.64-1.791
			l1.091,1.558c1.313,1.875,2.54,2.732,3.977,2.78c3.313,0,3.84-1.226,4.223-2.121l0.051-0.101c0.196-0.343,0.545-0.546,0.934-0.546
			c0.513,0,0.842,0.316,1.257,0.72c0.528,0.511,1.329,1.285,2.301,1.285c0.562,0,1.171-0.257,1.814-0.762
			c0.89-0.701,1.15-2.489,0.837-3.397C46.54,23.346,46.217,23,46.11,23H5.068c-0.569,1-1.853,1.086-2.167,1.857
			c-0.081,0.197-0.151,0.7,0.172,1.267l0.095,0.316c0.287,1.058,1.807,1.184,2.266,1.184c1.33,0,2.434-0.501,2.64-0.876
			L8.636,25.747z"/>
	</g>
	<path fill="#EBF1FF" d="M44.718,23h-1.965c0-9-8.082-14.521-18.015-14.521C14.805,8.479,6.723,14,6.723,23H4.758
		c0-10,8.962-16.486,19.98-16.486S44.718,13,44.718,23z"/>
	<g>
		<polyline fill="#FF900B" points="28.586,29.274 38.184,34.567 43.899,29.274 		"/>
		<polygon fill="#EBF1FF" points="38.331,35.771 28.112,30.136 29.062,28.415 38.038,33.366 43.232,28.554 44.566,29.996 		"/>
	</g>
	<g>
		<circle fill="#FFFFFF" cx="16.405" cy="14.54" r="0.92"/>
		<circle fill="#EBF1FF" cx="16.405" cy="14.541" r="1.902"/>
	</g>
	<g>
		<circle fill="#FFFFFF" cx="24.001" cy="12.556" r="0.737"/>
		<path fill="#EBF1FF" d="M24.001,14.276c-0.948,0-1.719-0.771-1.719-1.72c0-0.948,0.771-1.72,1.719-1.72s1.719,0.772,1.719,1.72
			C25.72,13.504,24.949,14.276,24.001,14.276z M24.001,12.311c-0.135,0-0.246,0.109-0.246,0.245s0.11,0.246,0.246,0.246
			c0.136,0,0.245-0.11,0.245-0.246S24.137,12.311,24.001,12.311z"/>
	</g>
	<g>
		<circle fill="#FFFFFF" cx="32.558" cy="14.48" r="0.532"/>
		<path fill="#EBF1FF" d="M32.558,15.996c-0.835,0-1.515-0.68-1.515-1.515s0.68-1.515,1.515-1.515c0.836,0,1.516,0.68,1.516,1.515
			S33.394,15.996,32.558,15.996z M32.558,14.03c-0.248,0-0.45,0.203-0.45,0.45c0,0.248,0.202,0.45,0.45,0.45s0.451-0.202,0.451-0.45
			C33.009,14.233,32.806,14.03,32.558,14.03z"/>
	</g>
	<g>
		<circle fill="#FFFFFF" cx="24.411" cy="17.879" r="0.328"/>
		<path fill="#EBF1FF" d="M24.41,19.189c-0.722,0-1.31-0.587-1.31-1.31c0-0.723,0.588-1.311,1.31-1.311
			c0.723,0,1.31,0.588,1.31,1.311C25.72,18.602,25.133,19.189,24.41,19.189z M24.41,17.224c-0.361,0-0.655,0.293-0.655,0.655
			c0,0.361,0.293,0.655,0.655,0.655s0.655-0.294,0.655-0.655C25.065,17.517,24.771,17.224,24.41,17.224z"/>
	</g>
</g>
</svg>
