<?xml version="1.0" encoding="utf-8"?>
<!-- Generator: Adobe Illustrator 19.1.1, SVG Export Plug-In . SVG Version: 6.00 Build 0)  -->
<svg version="1.1" id="Capa_1" xmlns="http://www.w3.org/2000/svg" xmlns:xlink="http://www.w3.org/1999/xlink" x="0px" y="0px"
	 viewBox="-214 364.2 166.6 112.7" style="enable-background:new -214 364.2 166.6 112.7;" xml:space="preserve">
<style type="text/css">
	.st0{fill:#FFFFFF;}
	.st1{fill:#F4A60C;}
</style>
<g>
	<path class="st0" d="M-71.5,476.9h-113c-0.8,0-1.5-0.7-1.5-1.5v-78.5c0-0.8,0.7-1.5,1.5-1.5s1.5,0.7,1.5,1.5v77h110v-77
		c0-0.8,0.7-1.5,1.5-1.5s1.5,0.7,1.5,1.5v78.5C-70,476.2-70.7,476.9-71.5,476.9z"/>
	<path class="st0" d="M-175.5,407.5c-1.1,0-2.4-0.2-3.4-1c-0.9-0.7-2-2-2-4.6c-0.1-1.5-0.6-2.6-1.4-3c-0.6-0.3-1.3-0.2-1.9,0.2
		c-0.8,0.5-1.2,1.5-1.1,2.6c0,0.1,0,0.2,0,0.3c0,0.1,0,0.2,0,0.2c-0.2,2.2-1.3,3.4-2.1,4.1c-2.6,1.8-6.3,0.8-6.7,0.7
		c-0.8-0.2-1.2-1-1-1.8l7.6-32.1c0.2-0.7,0.8-1.2,1.5-1.2h59.3c0.8,0,1.5,0.7,1.5,1.5s-0.7,1.5-1.5,1.5h-58.1l-7,29.4
		c0.9,0.1,2,0,2.7-0.5c0.2-0.1,0.8-0.6,0.9-1.9c0-0.1,0-0.1,0-0.2c0,0,0,0,0,0c-0.1-2.1,0.9-4,2.5-5.1c1.5-1,3.4-1.1,4.9-0.3
		c1.1,0.5,2.8,2,3,5.6c0,1.1,0.3,1.9,0.8,2.3c1,0.7,2.9,0.3,3.6,0.1c0.8-0.2,1.6,0.2,1.9,1c0.3,0.8-0.2,1.6-1,1.9
		C-173,407.2-174.1,407.5-175.5,407.5z"/>
	<path class="st0" d="M-160,407c-1,0-2.2-0.2-3.1-0.9c-0.9-0.6-2-2-2-4.6c-0.1-1.5-0.5-2.5-1.3-2.9c-0.6-0.3-1.3-0.2-1.9,0.2
		c-0.8,0.5-1.3,1.5-1.2,2.7c0,0.1,0,0.2,0,0.3c0,0.1,0,0.2,0,0.3c-0.2,2.3-1.3,3.4-2.1,4c-2.6,1.7-6.4,0.3-6.8,0.2
		c-0.8-0.3-1.2-1.2-0.9-1.9c0.3-0.8,1.2-1.2,1.9-0.9c0.7,0.3,3,0.9,4.1,0.1c0.2-0.1,0.7-0.5,0.8-1.8c0-0.1,0-0.1,0-0.2c0,0,0,0,0,0
		c-0.1-2.2,0.9-4.1,2.6-5.2c1.5-1,3.4-1.1,4.9-0.3c1,0.5,2.8,2,2.9,5.5c0,1.1,0.2,1.8,0.7,2.2c1,0.7,3.1,0.2,3.5,0
		c0.8-0.3,1.6,0.1,1.9,0.9c0.3,0.8-0.1,1.6-0.9,1.9C-157.1,406.6-158.4,407-160,407z"/>
	<path class="st0" d="M-145.1,407c-1,0-2.2-0.2-3.1-0.9c-0.9-0.6-2-2-2-4.6c-0.1-1.5-0.5-2.5-1.3-2.9c-0.6-0.3-1.3-0.2-1.9,0.2
		c-0.8,0.5-1.3,1.5-1.2,2.7c0,0.1,0,0.2,0,0.3c0,0.1,0,0.2,0,0.3c-0.2,2.3-1.3,3.4-2.1,4c-2.6,1.7-6.4,0.3-6.8,0.2
		c-0.8-0.3-1.2-1.2-0.9-1.9c0.3-0.8,1.2-1.2,1.9-0.9c0.7,0.3,3,0.9,4.1,0.1c0.2-0.1,0.7-0.5,0.8-1.8c0-0.1,0-0.1,0-0.2c0,0,0,0,0,0
		c-0.1-2.2,0.9-4.1,2.6-5.2c1.5-1,3.4-1.1,4.9-0.3c1,0.5,2.8,2,2.9,5.5c0,1.1,0.2,1.8,0.7,2.2c1,0.7,3.1,0.2,3.5,0
		c0.8-0.3,1.6,0.1,1.9,0.9c0.3,0.8-0.1,1.6-0.9,1.9C-142.1,406.6-143.5,407-145.1,407z"/>
	<path class="st0" d="M-129.2,407c-1,0-2.2-0.2-3.1-0.9c-0.9-0.6-2-2-2-4.6c-0.1-1.5-0.5-2.5-1.3-2.9c-0.6-0.3-1.3-0.2-1.9,0.2
		c-0.8,0.5-1.3,1.5-1.2,2.7c0,0.1,0,0.2,0,0.3c0,0.1,0,0.2,0,0.2c-0.2,2.3-1.3,3.4-2.1,4c-2.6,1.7-6.4,0.3-6.8,0.2
		c-0.8-0.3-1.2-1.2-0.9-1.9s1.2-1.2,1.9-0.9c0.7,0.3,3,0.9,4.1,0.1c0.2-0.1,0.7-0.5,0.8-1.8c0-0.1,0-0.1,0-0.2l0-0.1
		c-0.1-2.2,0.9-4.1,2.6-5.2c1.5-1,3.4-1.1,4.9-0.3c1,0.5,2.8,2,2.9,5.5c0,1.1,0.2,1.8,0.7,2.2c1,0.7,3.1,0.2,3.5,0
		c0.8-0.3,1.6,0.1,1.9,0.9s-0.1,1.6-0.9,1.9C-126.3,406.6-127.7,407-129.2,407z"/>
	<path class="st0" d="M-112.5,407c-1,0-2.2-0.2-3.1-0.9c-0.9-0.6-2-2-2-4.6c-0.1-1.5-0.5-2.5-1.3-2.9c-0.6-0.3-1.3-0.2-1.9,0.2
		c-0.8,0.5-1.3,1.5-1.2,2.7c0,0.1,0,0.2,0,0.3c0,0.1,0,0.2,0,0.3c-0.2,2.3-1.3,3.4-2.1,4c-2.6,1.7-6.4,0.3-6.8,0.2
		c-0.8-0.3-1.2-1.2-0.9-1.9c0.3-0.8,1.2-1.2,1.9-0.9c0.7,0.3,3,0.9,4.1,0.1c0.2-0.1,0.7-0.5,0.8-1.8c0-0.1,0-0.1,0-0.2c0,0,0,0,0,0
		c-0.1-2.2,0.9-4.1,2.6-5.2c1.5-1,3.4-1.1,4.9-0.3c1,0.5,2.8,2,2.9,5.5c0,1.1,0.2,1.8,0.7,2.2c1,0.7,3.1,0.2,3.5,0
		c0.8-0.3,1.6,0.1,1.9,0.9s-0.1,1.6-0.9,1.9C-109.5,406.6-110.9,407-112.5,407z"/>
	<path class="st0" d="M-96.6,407c-1,0-2.2-0.2-3.1-0.9c-0.9-0.6-2-2-2-4.6c-0.1-1.5-0.5-2.5-1.3-2.9c-0.6-0.3-1.3-0.2-1.9,0.2
		c-0.8,0.5-1.3,1.5-1.2,2.7c0,0.1,0,0.2,0,0.3c0,0.1,0,0.2,0,0.2c-0.2,2.3-1.3,3.4-2.1,4c-2.6,1.7-6.4,0.3-6.8,0.2
		c-0.8-0.3-1.2-1.2-0.9-1.9c0.3-0.8,1.2-1.2,1.9-0.9c0.7,0.3,3,0.9,4.1,0.1c0.2-0.1,0.7-0.5,0.8-1.8c0-0.1,0-0.1,0-0.2c0,0,0,0,0,0
		c-0.1-2.2,0.9-4.1,2.6-5.2c1.5-1,3.4-1.1,4.9-0.3c1,0.5,2.8,2,2.9,5.5c0,1.1,0.2,1.8,0.7,2.2c1,0.7,3.1,0.2,3.5,0
		c0.8-0.3,1.6,0.1,1.9,0.9s-0.1,1.6-0.9,1.9C-93.7,406.6-95.1,407-96.6,407z"/>
	<path class="st0" d="M-79.9,407c-1,0-2.2-0.2-3.1-0.9c-0.9-0.6-2-2-2-4.6c-0.1-1.5-0.5-2.5-1.3-2.9c-0.6-0.3-1.3-0.2-1.9,0.2
		c-0.8,0.5-1.3,1.5-1.2,2.7c0,0.1,0,0.2,0,0.3c0,0.1,0,0.2,0,0.2c-0.2,2.3-1.3,3.4-2.1,4c-2.6,1.7-6.4,0.3-6.8,0.2
		c-0.8-0.3-1.2-1.2-0.9-1.9c0.3-0.8,1.2-1.2,1.9-0.9c0.7,0.3,3,0.9,4.1,0.1c0.2-0.1,0.7-0.5,0.8-1.8c0-0.1,0-0.1,0-0.2l0-0.1
		c-0.1-2.2,0.9-4.1,2.6-5.2c1.5-1,3.4-1.1,4.9-0.3c1,0.5,2.8,2,2.9,5.5c0,1.1,0.2,1.8,0.7,2.2c1,0.7,2.9,0.2,3.6,0
		c0.8-0.3,1.6,0.1,1.9,0.9c0.3,0.8-0.1,1.6-0.9,1.9C-76.9,406.6-78.3,407-79.9,407z"/>
	<path class="st0" d="M-65,407c-1,0-2.2-0.2-3.1-0.9c-0.9-0.6-2-2-2-4.6c-0.1-1.5-0.5-2.5-1.3-2.9c-0.6-0.3-1.3-0.2-1.9,0.2
		c-0.8,0.5-1.3,1.5-1.2,2.7c0,0.1,0,0.2,0,0.3c0,0.1,0,0.2,0,0.3c-0.2,2.3-1.3,3.4-2.1,4c-2.6,1.7-6.4,0.3-6.8,0.2
		c-0.8-0.3-1.2-1.2-0.9-1.9c0.3-0.8,1.2-1.2,1.9-0.9c0.7,0.3,3,0.9,4.1,0.1c0.2-0.1,0.7-0.5,0.8-1.8c0-0.1,0-0.1,0-0.2c0,0,0,0,0,0
		c-0.1-2.2,0.9-4.1,2.6-5.2c1.5-1,3.4-1.1,4.9-0.3c1,0.5,2.8,2,2.9,5.5c0,1.1,0.2,1.8,0.7,2.2c1,0.7,3.1,0.2,3.5,0
		c0.8-0.3,1.6,0.1,1.9,0.9s-0.1,1.6-0.9,1.9C-62,406.6-63.4,407-65,407z"/>
	<path class="st0" d="M-79.2,407.5c-1.4,0-2.6-0.4-2.8-0.4c-0.8-0.3-1.2-1.1-1-1.9c0.3-0.8,1.1-1.2,1.9-1c0.6,0.2,2.5,0.6,3.5-0.1
		c0.5-0.4,0.8-1.1,0.8-2.2c0.1-3.7,1.9-5.1,3-5.7c1.5-0.8,3.4-0.7,4.9,0.3c1.7,1.1,2.6,3,2.5,5.2c0,0.1,0,0.1,0,0.2
		c0.1,1.4,0.7,1.8,0.9,1.9c0.7,0.5,1.8,0.6,2.7,0.5l-7-29.4H-127c-0.8,0-1.5-0.7-1.5-1.5s0.7-1.5,1.5-1.5h58.4
		c0.7,0,1.3,0.5,1.5,1.2l7.6,32.1c0.2,0.8-0.3,1.6-1,1.8c-0.4,0.1-4.1,1.1-6.7-0.7c-0.9-0.6-2-1.8-2.1-4.1c0,0,0-0.1,0-0.1
		c0-0.1,0-0.2,0-0.3c0.1-1.1-0.4-2.1-1.1-2.6c-0.6-0.4-1.3-0.4-1.9-0.2c-0.8,0.4-1.3,1.5-1.4,3.1c0,2.6-1.1,3.9-2,4.6
		C-76.9,407.3-78.1,407.5-79.2,407.5z"/>
	<path class="st0" d="M-135.5,475.4c-0.8,0-1.5-0.7-1.5-1.5v-20.1c0.1-2.7,2.1-7.8,9.1-7.8c0.8,0,1.5,0.7,1.5,1.5s-0.7,1.5-1.5,1.5
		c-5.7,0-6.1,4.4-6.1,4.9v20C-134,474.7-134.7,475.4-135.5,475.4z"/>
	<path class="st0" d="M-121.5,475.4c-0.8,0-1.5-0.7-1.5-1.5v-20.1c0-0.4-0.4-4.8-6.1-4.8c-0.8,0-1.5-0.7-1.5-1.5s0.7-1.5,1.5-1.5
		c7,0,9.1,5.1,9.1,7.8v20.1C-120,474.7-120.7,475.4-121.5,475.4z"/>
	<path class="st0" d="M-152.5,435.9h-20c-0.8,0-1.5-0.7-1.5-1.5v-18c0-0.8,0.7-1.5,1.5-1.5h20c0.8,0,1.5,0.7,1.5,1.5v18
		C-151,435.2-151.7,435.9-152.5,435.9z M-171,432.9h17v-15h-17V432.9z"/>
	<path class="st0" d="M-87.5,435.9h-20c-0.8,0-1.5-0.7-1.5-1.5v-18c0-0.8,0.7-1.5,1.5-1.5h20c0.8,0,1.5,0.7,1.5,1.5v18
		C-86,435.2-86.7,435.9-87.5,435.9z M-106,432.9h17v-15h-17V432.9z"/>
	<path class="st0" d="M-87.5,462.9h-20c-0.8,0-1.5-0.7-1.5-1.5v-18c0-0.8,0.7-1.5,1.5-1.5h20c0.8,0,1.5,0.7,1.5,1.5v18
		C-86,462.2-86.7,462.9-87.5,462.9z M-106,459.9h17v-15h-17V459.9z"/>
	<path class="st0" d="M-152.5,462.9h-20c-0.8,0-1.5-0.7-1.5-1.5v-18c0-0.8,0.7-1.5,1.5-1.5h20c0.8,0,1.5,0.7,1.5,1.5v18
		C-151,462.2-151.7,462.9-152.5,462.9z M-171,459.9h17v-15h-17V459.9z"/>
	<path class="st0" d="M-120.5,435.9h-19c-0.8,0-1.5-0.7-1.5-1.5v-18c0-0.8,0.7-1.5,1.5-1.5h19c0.8,0,1.5,0.7,1.5,1.5v18
		C-119,435.2-119.7,435.9-120.5,435.9z M-138,432.9h16v-15h-16V432.9z"/>
</g>
<g>
	<circle class="st1" cx="-65.9" cy="436.1" r="12.3"/>
	<path class="st0" d="M-65.9,449.9c-7.6,0-13.8-6.2-13.8-13.8c0-7.6,6.2-13.8,13.8-13.8s13.8,6.2,13.8,13.8
		C-52.1,443.7-58.3,449.9-65.9,449.9z M-65.9,425.3c-6,0-10.8,4.8-10.8,10.8c0,6,4.8,10.8,10.8,10.8s10.8-4.8,10.8-10.8
		C-55.1,430.1-60,425.3-65.9,425.3z"/>
</g>
<g>
	<polyline class="st1" points="-71.3,434.4 -66.1,439.6 -50.9,424.4 	"/>
	<path class="st0" d="M-66.1,441.1c-0.4,0-0.8-0.1-1.1-0.4l-5.2-5.2c-0.6-0.6-0.6-1.5,0-2.1s1.5-0.6,2.1,0l4.1,4.1l14.2-14.2
		c0.6-0.6,1.5-0.6,2.1,0s0.6,1.5,0,2.1L-65,440.6C-65.3,440.9-65.7,441.1-66.1,441.1z"/>
</g>
</svg>
