<?xml version="1.0" encoding="utf-8"?>
<!-- Generator: Adobe Illustrator 16.0.0, SVG Export Plug-In . SVG Version: 6.00 Build 0)  -->
<!DOCTYPE svg PUBLIC "-//W3C//DTD SVG 1.1//EN" "http://www.w3.org/Graphics/SVG/1.1/DTD/svg11.dtd">
<svg version="1.1" id="Capa_1" xmlns="http://www.w3.org/2000/svg" xmlns:xlink="http://www.w3.org/1999/xlink" x="0px" y="0px"
	 width="166.637px" height="112.666px" viewBox="0 0 166.637 112.666" enable-background="new 0 0 166.637 112.666"
	 xml:space="preserve">
<g>
	<path fill="#FFFFFF" d="M424.818,76.653c0,6.175-5.005,11.18-11.179,11.18H307.997c-6.175,0-11.18-5.005-11.18-11.18V4.013
		c0-6.174,5.005-11.18,11.18-11.18H413.64c6.174,0,11.179,5.005,11.179,11.18L424.818,76.653L424.818,76.653z"/>
	<path fill="#FF900B" d="M414.139,88.833H308.497c-6.991,0-12.68-5.688-12.68-12.68V3.513c0-6.992,5.688-12.68,12.68-12.68H414.14
		c6.991,0,12.679,5.688,12.679,12.68v72.64C426.818,83.146,421.131,88.833,414.139,88.833z M308.497-6.167
		c-5.337,0-9.68,4.342-9.68,9.68v72.64c0,5.339,4.343,9.681,9.68,9.681H414.14c5.337,0,9.679-4.342,9.679-9.681V3.513
		c0-5.337-4.342-9.68-9.679-9.68H308.497z"/>
</g>
<g>
	<path fill="#FFFFFF" d="M416.818,68.836c0,5.961-2.112,11.997-6.175,11.997h-97.792c-4.063,0-8.033-6.036-8.033-11.997V10.288
		c0-5.961,3.972-10.455,8.033-10.455h97.792c4.063,0,6.175,4.494,6.175,10.455V68.836z"/>
	<path fill="#FF900B" d="M410.643,81.833h-97.792c-4.813,0-9.033-6.072-9.033-12.997V10.288c0-6.868,4.054-12.455,9.033-12.455
		h97.792c4.736,0,8.175,5.238,8.175,12.455v58.548C418.818,75.138,415.953,81.833,410.643,81.833z M312.851,0.833
		c-3.214,0-6.033,4.418-6.033,9.455v58.548c0,5.14,2.933,9.997,6.033,9.997h97.792c2.854,0,5.175-4.484,5.175-9.997V10.288
		c0-5.39-2.225-9.455-5.175-9.455H312.851z"/>
</g>
<g>
	<ellipse fill="#FFFFFF" cx="358.635" cy="57.369" rx="33.179" ry="7.841"/>
	<path fill="#FF900B" d="M358.635,66.71c-16.702,0-34.68-2.923-34.68-9.341s17.978-9.342,34.68-9.342s34.679,2.924,34.679,9.342
		S375.338,66.71,358.635,66.71z M358.635,51.027c-20.498,0-31.68,4.189-31.68,6.342s11.182,6.341,31.68,6.341
		c20.497,0,31.679-4.188,31.679-6.341S379.133,51.027,358.635,51.027z"/>
</g>
<g>
	<path fill="#FFFFFF" d="M386.09,31.361c0,0-10.412,6.521-29.635,6.288c-19.224-0.232-27.5-6.288-27.5-6.288
		s-2.156,28.182,26.688,28.182C384.488,59.543,386.09,31.361,386.09,31.361z"/>
	<path fill="#FF900B" d="M355.642,61.043c-9.042,0-16.106-2.679-20.998-7.958c-8.088-8.729-7.226-21.307-7.186-21.838
		c0.042-0.543,0.375-1.021,0.869-1.249c0.493-0.226,1.071-0.169,1.513,0.152c0.075,0.054,8.228,5.615,26.632,5.837
		c0.332,0.004,0.658-0.155,0.985-0.155c0.001,0,0.002,0,0.003,0c17.859,0,27.736-5.845,27.835-5.906
		c0.478-0.295,1.079-0.221,1.559,0.065c0.481,0.286,0.766,0.855,0.733,1.414C387.57,31.702,385.559,61.043,355.642,61.043z
		 M330.454,33.955c0.176,3.882,1.222,11.525,6.405,17.109c4.301,4.631,10.62,6.979,18.782,6.979
		c22.142,0,27.388-17.356,28.601-24.202c-4.188,1.916-13.265,4.992-26.781,4.992c-0.001,0-0.002,0-0.003,0
		c-0.339,0-0.678,0.159-1.021,0.155C342.54,38.82,334.213,35.837,330.454,33.955z"/>
</g>
<g>
	<path fill="#FFFFFF" d="M331.242,30.663c0,0,1.354-3.571,3.729-3.805c2.375-0.232-0.083-1.009,1.357-1.241
		c1.439-0.233,3.645-1.708,4.917-1.397c1.271,0.31,3.39-0.319,4.66-0.043c1.272,0.275,4.917,3.69,4.578,5.244"/>
	<path fill="#FF900B" d="M331.242,32.164c-0.179,0-0.357-0.032-0.532-0.098c-0.774-0.294-1.164-1.16-0.87-1.935
		c0.165-0.435,1.639-4.103,4.566-4.702c0.023-0.08,0.055-0.159,0.091-0.237c0.267-0.572,0.802-0.927,1.593-1.055
		c0.397-0.064,1.026-0.327,1.637-0.581c1.293-0.539,2.631-1.095,3.875-0.792c0.4,0.097,1.187,0.019,1.877-0.05
		c0.93-0.093,1.894-0.187,2.747-0.002c1.481,0.321,3.896,2.534,4.982,4.224c0.681,1.059,0.924,1.977,0.743,2.806
		c-0.179,0.809-0.976,1.325-1.785,1.146c-0.779-0.17-1.284-0.917-1.163-1.695c-0.164-0.889-2.567-3.273-3.44-3.555
		c-0.366-0.081-1.122-0.004-1.787,0.062c-0.977,0.097-1.985,0.197-2.885-0.021c-0.33-0.055-1.424,0.404-2.01,0.647
		c-0.451,0.188-0.912,0.38-1.367,0.532c-0.029,0.116-0.072,0.23-0.129,0.342c-0.494,0.979-1.691,1.097-2.269,1.153
		c-1.081,0.106-2.15,1.998-2.473,2.844C332.417,31.794,331.847,32.164,331.242,32.164z"/>
</g>
<g>
	<path fill="#FFFFFF" d="M350.222,30.663c0,0-1.661-4.165,1.071-5.032c2.732-0.868,0.909-1.8,2.209-2.033
		c1.301-0.232,4.018-0.232,4.562,0c0.543,0.233,3.55,1.555,3.639,1.941c0.089,0.388,2.961-0.388,3.582-0.621
		c0.62-0.232,0.697,1.36,2.328,2.466c1.631,1.105,3.339,2.581,3.262,3.279c-0.077,0.699,1.24,1.709,1.009,2.563"/>
	<path fill="#FF900B" d="M371.884,34.726c-0.131,0-0.263-0.017-0.396-0.053c-0.724-0.197-1.179-0.892-1.097-1.615
		c-0.063-0.128-0.198-0.332-0.293-0.476c-0.313-0.475-0.691-1.049-0.726-1.749c-0.268-0.377-1.183-1.244-2.603-2.208
		c-0.962-0.652-1.515-1.432-1.867-2.004c-1.117,0.334-2.982,0.773-3.856,0.303c-0.194-0.104-0.375-0.266-0.52-0.455
		c-0.404-0.272-1.704-0.909-2.991-1.466c-0.435-0.09-2.057-0.121-3.223-0.003c-0.307,0.96-1.128,1.603-2.565,2.06
		c-0.24,0.076-0.332,0.181-0.396,0.314c-0.302,0.634-0.021,2.007,0.266,2.736c0.302,0.77-0.075,1.641-0.845,1.944
		c-0.769,0.303-1.639-0.069-1.942-0.837c-0.123-0.307-1.168-3.058-0.19-5.125c0.436-0.919,1.196-1.574,2.2-1.893
		c0.321-0.102,0.516-0.188,0.627-0.248c0.162-1.348,1.165-1.723,1.771-1.832c1.087-0.195,4.342-0.362,5.416,0.097
		c2.054,0.882,3.141,1.458,3.732,1.891c0.678-0.108,1.927-0.429,2.37-0.596c1.464-0.549,2.283,0.826,2.549,1.279
		c0.264,0.446,0.562,0.951,1.149,1.35c3.585,2.432,3.935,3.789,3.928,4.44c0.058,0.101,0.152,0.245,0.222,0.349
		c0.41,0.624,1.031,1.566,0.727,2.688C373.148,34.287,372.544,34.726,371.884,34.726z"/>
</g>
<g>
	<path fill="#FFFFFF" d="M366.52,25.589c0,0,0.198-1.422,2.526-1.344c2.33,0.077,3.317-1.488,4.329-0.925
		c1.01,0.563,4.805,0.788,6.047,1.284c1.241,0.494,1.97,0.831,2.28,1.918c0.31,1.088,1.114,2.743,1.114,2.743v0.567"/>
	<path fill="#FF900B" d="M383.318,31.333c-0.828,0-1.5-0.671-1.5-1.5v-0.148c-0.358-0.608-1.021-1.802-1.292-2.751
		c-0.081-0.284-0.4-0.449-1.461-0.869l-0.166-0.066c-0.419-0.167-1.575-0.345-2.504-0.487c-1.646-0.253-2.748-0.44-3.479-0.775
		c-0.116,0.048-0.276,0.125-0.404,0.186c-0.725,0.348-1.815,0.881-3.391,0.822c-0.519-0.015-0.786,0.071-0.878,0.125
		c-0.138,0.725-0.773,1.261-1.552,1.218c-0.826-0.042-1.464-0.748-1.421-1.575c0.053-1,0.913-2.863,3.95-2.766
		c0.807,0.026,1.396-0.242,1.991-0.528c0.713-0.342,1.789-0.857,2.955-0.208c0.351,0.177,1.811,0.401,2.683,0.535
		c1.3,0.2,2.424,0.373,3.159,0.666l0.16,0.063c1.284,0.509,2.74,1.087,3.24,2.835c0.182,0.64,0.818,1.786,1.178,2.358
		c0.148,0.239,0.229,0.516,0.229,0.797v0.567C384.818,30.662,384.146,31.333,383.318,31.333z"/>
</g>
<g>
	<circle fill="#FFFFFF" cx="393.862" cy="31.876" r="12.308"/>
	<path fill="#FF900B" d="M393.862,45.684c-7.612,0-13.808-6.194-13.808-13.808s6.194-13.808,13.808-13.808
		c7.614,0,13.809,6.194,13.809,13.808S401.475,45.684,393.862,45.684z M393.862,21.068c-5.959,0-10.808,4.848-10.808,10.808
		s4.849,10.808,10.808,10.808s10.809-4.848,10.809-10.808S399.821,21.068,393.862,21.068z"/>
</g>
<g>
	<polyline fill="#FFFFFF" points="388.522,30.18 393.702,35.358 408.94,20.122 	"/>
	<path fill="#FF900B" d="M393.702,36.858c-0.385,0-0.769-0.146-1.062-0.439l-5.18-5.179c-0.586-0.585-0.586-1.535,0-2.121
		s1.535-0.586,2.121,0l4.119,4.118l14.178-14.176c0.586-0.586,1.535-0.586,2.121,0s0.586,1.536,0,2.121l-15.238,15.236
		C394.469,36.712,394.086,36.858,393.702,36.858z"/>
</g>
<g>
	<polyline fill="#FFFFFF" points="419.861,105.573 409.924,90.401 392.93,97.506 395.936,113.026 	"/>
	<path fill="#FF900B" d="M395.934,114.526c-0.704,0-1.332-0.498-1.471-1.215l-3.006-15.521c-0.136-0.698,0.237-1.396,0.895-1.669
		l16.993-7.104c0.667-0.281,1.438-0.043,1.833,0.562l9.938,15.172c0.454,0.692,0.261,1.623-0.433,2.077s-1.622,0.262-2.077-0.434
		l-9.254-14.129l-14.717,6.151l2.772,14.323c0.157,0.813-0.374,1.601-1.188,1.758C396.125,114.519,396.029,114.526,395.934,114.526z
		"/>
</g>
<g>
	<path fill="#FFFFFF" d="M388.652,79.96l-6.995-21.161c0,0,0.518-2.381,3.497-1.817c2.981,0.563,9.709,18.633,9.709,18.633
		s-2.64-6.918-1.241-7.186c1.397-0.269,3.608-2.189,4.541-1.084c0.932,1.106,3.201,7.221,3.201,7.221s-3.201-5.531-1.979-5.822
		s5.008-2.154,6.229,2.154c1.223,4.308,1.713,3.318,1.713,3.318l-1.713-4.773c0,0,3.9,1.455,4.832,3.027
		c0.933,1.571-0.522,17.002-0.522,17.002l-16.993,8.034l-9.868-12.731c0,0,0.854-4.037,1.164-4.113
		C384.537,80.582,388.652,79.96,388.652,79.96z"/>
	<path fill="#FF900B" d="M392.931,99.006c-0.453,0-0.895-0.204-1.187-0.581l-9.868-12.73c-0.271-0.35-0.373-0.799-0.282-1.229
		c0.997-4.716,1.362-5.034,2.271-5.26c0.219-0.056,1.438-0.249,2.807-0.459l-6.438-19.476c-0.085-0.256-0.099-0.526-0.042-0.789
		c0.231-1.067,1.388-3.086,4.1-3.086c0.363,0,0.749,0.038,1.143,0.112c1.882,0.355,4.433,4.227,7.605,11.531
		c0.097-0.036,0.196-0.063,0.301-0.084c0.276-0.053,0.797-0.313,1.255-0.539c0.898-0.448,1.827-0.911,2.789-0.911
		c0.768,0,1.452,0.312,1.927,0.875c0.114,0.136,0.26,0.33,0.464,0.681c0.685-0.211,1.614-0.467,2.604-0.467
		c1.339,0,2.462,0.467,3.307,1.352c0.153,0.007,0.308,0.037,0.455,0.093c0.734,0.272,4.454,1.737,5.598,3.668
		c0.977,1.646,0.364,10.646-0.319,17.907c-0.05,0.527-0.373,0.988-0.853,1.216l-16.993,8.034
		C393.365,98.959,393.147,99.006,392.931,99.006z M384.677,84.409l8.7,11.227l15.131-7.154c0.593-6.551,0.979-13.969,0.608-15.309
		c-0.148-0.21-0.444-0.459-0.828-0.72l0.449,1.257c0.139,0.383,0.113,0.807-0.066,1.171c-0.28,0.565-0.868,0.933-1.498,0.933
		c-1.456,0-2.153-1.518-3.002-4.508c-0.448-1.58-1.161-1.713-1.794-1.713c-0.421,0-0.877,0.096-1.295,0.209
		c0.85,1.988,1.646,4.131,1.688,4.241c0.271,0.729-0.063,1.548-0.768,1.88c-0.702,0.33-1.546,0.066-1.938-0.605
		c-1.094-1.889-2.333-4.338-2.445-5.902c-0.207-0.432-0.354-0.701-0.451-0.866c-0.34,0.104-0.884,0.376-1.237,0.552
		c-0.396,0.197-0.801,0.399-1.208,0.557c0.096,0.939,0.611,2.921,1.492,5.293l0.053,0.142c0.289,0.774-0.104,1.636-0.876,1.927
		c-0.774,0.289-1.43-0.097-1.725-0.867l0.149-0.147c0-0.001,0-0.002,0-0.002v-0.005c-4-9.055-7.377-16.725-8.809-17.553
		c-0.858-0.146-1.451,0.113-1.652,0.408l6.771,20.64c0.139,0.42,0.06,0.879-0.171,1.256c-0.232,0.377-0.632,0.632-1.067,0.698
		c-1.324,0.199-2.763,0.421-3.604,0.557C385.114,82.583,384.879,83.511,384.677,84.409z"/>
</g>
<g>
	<line fill="none" x1="394.083" y1="102.506" x2="412.801" y2="95.464"/>
	<path fill="#FF900B" d="M394.083,104.006c-0.606,0-1.179-0.37-1.404-0.972c-0.291-0.775,0.101-1.641,0.876-1.934l18.718-7.041
		c0.772-0.291,1.642,0.101,1.934,0.875c0.291,0.775-0.102,1.642-0.876,1.934l-18.719,7.042
		C394.437,103.976,394.259,104.006,394.083,104.006z"/>
</g>
<g>
	<line fill="none" x1="388.652" y1="79.96" x2="390.883" y2="86.56"/>
	<path fill="#FF900B" d="M390.883,88.06c-0.626,0-1.21-0.395-1.421-1.02l-2.23-6.6c-0.266-0.785,0.156-1.637,0.94-1.901
		s1.637,0.155,1.9,0.94l2.23,6.6c0.266,0.785-0.156,1.637-0.94,1.9C391.204,88.034,391.042,88.06,390.883,88.06z"/>
</g>
<rect x="289.068" y="-10.649" fill="none" width="144.5" height="112.666"/>
<ellipse fill="none" stroke="#FF900B" stroke-linecap="round" stroke-linejoin="round" stroke-miterlimit="10" cx="-344.182" cy="-94.833" rx="0.667" ry="1"/>
<path fill="#FF900B" d="M68.139,103.207H25.103c-7.145,0-12.958-5.813-12.958-12.959V24.489c0-7.146,5.813-12.958,12.958-12.958
	h43.035c7.146,0,12.958,5.813,12.958,12.958v65.759c0,3.461-1.347,6.716-3.794,9.163C74.854,101.859,71.6,103.207,68.139,103.207z
	 M25.103,14.41c-5.557,0-10.079,4.522-10.079,10.079v65.759c0,5.559,4.521,10.079,10.079,10.079h43.036
	c5.557,0,10.079-4.521,10.079-10.079l-0.001-65.759c0-5.557-4.521-10.079-10.079-10.079H25.103z"/>
<g>
	<g>
		<ellipse fill="#FFFFFF" cx="46.621" cy="59.086" rx="21.39" ry="5.055"/>
		<path fill="#FF900B" d="M46.621,65.107c-10.767,0-22.357-1.885-22.357-6.021s11.59-6.021,22.357-6.021s22.356,1.885,22.356,6.021
			S57.388,65.107,46.621,65.107z M46.621,54.998c-13.213,0-20.423,2.7-20.423,4.088s7.209,4.089,20.423,4.089
			c13.214,0,20.422-2.701,20.422-4.089S59.835,54.998,46.621,54.998z"/>
	</g>
	<g>
		<path fill="#FFFFFF" d="M64.319,42.319c0,0-6.712,4.204-19.104,4.054c-12.391-0.149-17.728-4.054-17.728-4.054
			s-1.39,18.167,17.204,18.167C63.287,60.486,64.319,42.319,64.319,42.319z"/>
		<path fill="#FF900B" d="M44.692,61.453c-5.829,0-10.383-1.727-13.537-5.129c-5.213-5.628-4.658-13.737-4.632-14.079
			c0.027-0.351,0.242-0.659,0.56-0.805c0.319-0.146,0.692-0.109,0.976,0.098c0.048,0.035,5.303,3.552,17.169,3.697
			c0.213,0.002,0.424-0.168,0.635-0.168c0.001,0,0.001,0,0.002,0c11.514,0,17.881-3.7,17.945-3.74
			c0.307-0.19,0.695-0.109,1.005,0.076c0.31,0.184,0.493,0.568,0.472,0.928C65.273,42.522,63.978,61.453,44.692,61.453z
			 M28.454,43.991c0.114,2.502,0.787,7.43,4.129,11.029c2.772,2.985,6.846,4.5,12.108,4.5c14.274,0,17.656-11.264,18.438-15.677
			c-2.701,1.235-8.551,3.144-17.265,3.144c0,0-0.001,0-0.002,0c-0.219,0-0.437,0.177-0.657,0.175
			C36.244,47.054,30.876,45.205,28.454,43.991z"/>
	</g>
	<g>
		<path fill="#FFFFFF" d="M28.961,41.869c0,0,0.874-2.302,2.404-2.453c1.531-0.149-0.054-0.65,0.875-0.8
			c0.929-0.15,2.351-1.101,3.17-0.9c0.819,0.2,2.184-0.205,3.004-0.027c0.819,0.177,3.169,2.379,2.952,3.38"/>
		<path fill="#FF900B" d="M28.961,42.836c-0.114,0-0.229-0.02-0.343-0.063c-0.5-0.189-0.75-0.748-0.561-1.247
			c0.106-0.28,1.056-2.644,2.944-3.031c0.016-0.052,0.035-0.103,0.058-0.153c0.171-0.369,0.517-0.598,1.027-0.68
			c0.257-0.041,0.662-0.211,1.055-0.375c0.834-0.348,1.695-0.706,2.498-0.511c0.259,0.063,0.764,0.013,1.211-0.032
			c0.599-0.06,1.22-0.121,1.771-0.001c0.955,0.207,2.511,1.634,3.211,2.724c0.438,0.682,0.596,1.274,0.479,1.808
			c-0.114,0.521-0.629,0.854-1.151,0.738c-0.501-0.109-0.828-0.591-0.749-1.092c-0.106-0.574-1.655-2.111-2.219-2.292
			c-0.236-0.052-0.723-0.002-1.152,0.041c-0.629,0.063-1.281,0.126-1.86-0.014c-0.213-0.035-0.917,0.26-1.296,0.417
			c-0.291,0.121-0.588,0.245-0.881,0.343c-0.019,0.075-0.046,0.148-0.083,0.221c-0.318,0.632-1.09,0.707-1.461,0.744
			c-0.698,0.068-1.387,1.288-1.594,1.833C29.719,42.599,29.351,42.836,28.961,42.836z"/>
	</g>
	<g>
		<path fill="#FFFFFF" d="M41.197,41.869c0,0-1.07-2.685,0.691-3.243c1.762-0.56,0.586-1.16,1.423-1.312
			c0.839-0.149,2.59-0.149,2.941,0c0.35,0.151,2.288,1.002,2.344,1.252c0.058,0.249,1.909-0.25,2.31-0.4
			c0.4-0.15,0.45,0.877,1.501,1.589c1.051,0.712,2.151,1.664,2.102,2.114c-0.049,0.451,0.8,1.102,0.651,1.652"/>
		<path fill="#FF900B" d="M55.161,44.489c-0.084,0-0.168-0.011-0.255-0.035c-0.467-0.127-0.76-0.576-0.708-1.042
			c-0.041-0.083-0.127-0.214-0.188-0.307c-0.202-0.306-0.446-0.677-0.468-1.127c-0.172-0.243-0.762-0.803-1.678-1.424
			c-0.62-0.42-0.976-0.922-1.204-1.292c-0.721,0.216-1.922,0.499-2.486,0.195c-0.125-0.067-0.242-0.17-0.335-0.292
			c-0.261-0.176-1.099-0.585-1.928-0.944c-0.28-0.059-1.326-0.079-2.078-0.002c-0.198,0.62-0.727,1.034-1.654,1.328
			c-0.156,0.049-0.214,0.117-0.255,0.202c-0.195,0.409-0.014,1.294,0.17,1.764c0.195,0.497-0.048,1.058-0.544,1.254
			c-0.495,0.196-1.057-0.044-1.252-0.54c-0.08-0.199-0.753-1.972-0.123-3.304c0.28-0.593,0.771-1.015,1.418-1.22
			c0.207-0.065,0.334-0.121,0.404-0.16c0.105-0.869,0.75-1.111,1.142-1.181c0.699-0.126,2.799-0.234,3.492,0.063
			c1.323,0.569,2.024,0.939,2.405,1.219c0.437-0.07,1.242-0.276,1.529-0.384c0.943-0.354,1.472,0.533,1.644,0.825
			c0.169,0.287,0.361,0.613,0.741,0.869c2.312,1.568,2.537,2.442,2.533,2.863c0.037,0.064,0.099,0.157,0.143,0.225
			c0.264,0.402,0.665,1.01,0.468,1.732C55.977,44.206,55.587,44.489,55.161,44.489z"/>
	</g>
	<g>
		<path fill="#FFFFFF" d="M51.937,38.545c0,0,0.011-0.89,1.512-0.84c1.501,0.05,2.081-0.945,2.732-0.583
			c0.65,0.363,3.068,0.514,3.869,0.834c0.8,0.319,1.488,0.54,1.688,1.24c0.2,0.702,0.937,1.772,0.937,1.772v0.26"/>
		<path fill="#FF900B" d="M62.676,42.301c-0.533,0-0.959-0.433-0.959-0.967v-0.096c0-0.392-0.734-1.162-0.908-1.774
			c-0.053-0.183-0.297-0.29-0.979-0.56l-0.125-0.042c-0.27-0.108-1.025-0.222-1.624-0.314c-1.061-0.163-1.775-0.283-2.247-0.5
			c-0.075,0.031-0.18,0.081-0.263,0.12c-0.468,0.225-1.171,0.567-2.188,0.529c-0.334-0.009-0.507,0.046-0.566,0.08
			c-0.088,0.468-0.5,0.813-1,0.785c-0.535-0.028-0.945-0.481-0.917-1.016c0.034-0.645,0.589-1.845,2.547-1.782
			c0.521,0.017,0.9-0.156,1.283-0.341c0.459-0.22,1.154-0.553,1.905-0.134c0.226,0.114,1.167,0.258,1.73,0.345
			c0.837,0.129,1.562,0.24,2.036,0.429l0.103,0.041c0.828,0.328,1.766,0.701,2.089,1.827c0.117,0.413,0.596,1.151,0.828,1.521
			c0.096,0.154,0.215,0.333,0.215,0.514v0.366C63.635,41.868,63.21,42.301,62.676,42.301z"/>
	</g>
</g>
<path fill="#FF900B" d="M67.034,25.55H26.207c-0.795,0-1.44-0.645-1.44-1.439c0-0.795,0.645-1.44,1.44-1.44h40.827
	c0.795,0,1.439,0.645,1.439,1.44C68.473,24.905,67.829,25.55,67.034,25.55z"/>
<path fill="#FF900B" d="M67.034,83.585H26.207c-0.795,0-1.44-0.645-1.44-1.439s0.645-1.439,1.44-1.439h40.827
	c0.795,0,1.439,0.645,1.439,1.439S67.829,83.585,67.034,83.585z"/>
<path fill="#FF900B" d="M67.034,89.345H26.207c-0.795,0-1.44-0.645-1.44-1.439s0.645-1.44,1.44-1.44h40.827
	c0.795,0,1.439,0.646,1.439,1.44S67.829,89.345,67.034,89.345z"/>
<path fill="#FF900B" d="M140.525,103.207H97.49c-7.146,0-12.959-5.813-12.959-12.959V24.489c0-7.146,5.813-12.958,12.959-12.958
	h43.035c7.145,0,12.959,5.813,12.959,12.958v65.759C153.484,97.395,147.669,103.207,140.525,103.207z M97.49,14.41
	c-5.559,0-10.08,4.522-10.08,10.079v65.759c0,5.559,4.521,10.079,10.08,10.079h43.035c5.557,0,10.078-4.521,10.078-10.079V24.489
	c0-5.557-4.521-10.079-10.078-10.079H97.49z"/>
<path fill="#FF900B" d="M139.419,25.55H98.593c-0.795,0-1.441-0.645-1.441-1.439c0-0.795,0.646-1.44,1.441-1.44h40.826
	c0.795,0,1.439,0.645,1.439,1.44C140.859,24.905,140.214,25.55,139.419,25.55z"/>
<path fill="#FF900B" d="M139.419,78.786H98.591c-0.795,0-1.439-0.646-1.439-1.44s0.645-1.439,1.439-1.439h40.828
	c0.795,0,1.439,0.645,1.439,1.439S140.214,78.786,139.419,78.786z"/>
<path fill="#FF900B" d="M139.419,84.545H98.591c-0.795,0-1.439-0.645-1.439-1.439s0.645-1.439,1.439-1.439h40.828
	c0.795,0,1.439,0.645,1.439,1.439S140.214,84.545,139.419,84.545z"/>
<path fill="#FF900B" d="M122.839,90.305H98.591c-0.795,0-1.439-0.645-1.439-1.439s0.645-1.44,1.439-1.44h24.248
	c0.795,0,1.441,0.646,1.441,1.44S123.634,90.305,122.839,90.305z"/>
<g>
	<path fill="#FF900B" d="M136.587,68.105h-36.475c-0.531,0-0.961-0.43-0.961-0.96V41.228c0-0.53,0.43-0.96,0.961-0.96
		c0.529,0,0.959,0.43,0.959,0.96v24.958h34.557V41.228c0-0.53,0.43-0.96,0.959-0.96c0.531,0,0.961,0.43,0.961,0.96v25.917
		C137.548,67.676,137.118,68.105,136.587,68.105z"/>
	<path fill="#FF900B" d="M103.372,45.686c-0.418,0-0.924-0.087-1.363-0.414c-0.391-0.288-0.854-0.858-0.854-1.939
		c-0.016-0.414-0.154-0.56-0.182-0.57c-0.094,0.069-0.143,0.154-0.162,0.254c0.027,0.1,0.037,0.204,0.029,0.306l0,0
		c-0.057,0.929-0.504,1.46-0.869,1.741c-0.969,0.745-2.324,0.501-2.475,0.471c-0.256-0.051-0.482-0.205-0.623-0.425
		s-0.184-0.489-0.123-0.744l2.465-10.084c0.105-0.43,0.49-0.732,0.932-0.732h18.203c0.529,0,0.959,0.43,0.959,0.96
		s-0.43,0.96-0.959,0.96h-17.449l-1.496,6.128c0.135-0.166,0.297-0.31,0.479-0.429c0.6-0.39,1.355-0.433,1.975-0.111
		c0.732,0.379,1.176,1.195,1.217,2.237c0,0.318,0.061,0.423,0.076,0.435c0.082,0.061,0.385,0.041,0.506,0.004
		c0.51-0.156,1.043,0.132,1.197,0.639c0.154,0.507-0.133,1.043-0.639,1.198C104.15,45.59,103.81,45.686,103.372,45.686z"/>
	<path fill="#FF900B" d="M108.579,45.36c-0.414,0-0.875-0.087-1.281-0.369c-0.391-0.271-0.855-0.813-0.855-1.861
		c-0.014-0.326-0.117-0.495-0.164-0.519c-0.016-0.009-0.068-0.006-0.127,0.032c-0.117,0.076-0.178,0.233-0.166,0.431
		c0.004,0.07,0,0.14-0.01,0.208c-0.002,0.007-0.006,0.028-0.01,0.051c-0.074,0.908-0.529,1.385-0.902,1.626
		c-1.01,0.656-2.354,0.2-2.613,0.103c-0.496-0.187-0.748-0.741-0.561-1.237c0.186-0.495,0.74-0.746,1.232-0.562
		c0.348,0.126,0.789,0.153,0.898,0.085c-0.004-0.001,0.025-0.055,0.033-0.196c0.002-0.031,0.006-0.062,0.012-0.093
		c-0.012-0.843,0.373-1.594,1.041-2.028c0.629-0.408,1.416-0.456,2.055-0.126c0.723,0.375,1.16,1.172,1.199,2.186
		c0.002,0.26,0.047,0.335,0.047,0.335c0.09,0.043,0.473-0.002,0.682-0.081c0.496-0.187,1.049,0.067,1.234,0.563
		c0.186,0.497-0.064,1.05-0.563,1.236C109.622,45.198,109.142,45.36,108.579,45.36z"/>
	<path fill="#FF900B" d="M113.361,45.36c-0.414,0-0.875-0.087-1.281-0.369c-0.391-0.271-0.857-0.813-0.857-1.861
		c-0.012-0.326-0.115-0.495-0.164-0.519c-0.016-0.009-0.068-0.004-0.125,0.032c-0.117,0.076-0.178,0.233-0.166,0.431
		c0.004,0.06,0.002,0.12-0.006,0.179c-0.004,0.016-0.008,0.047-0.014,0.081c-0.074,0.908-0.529,1.385-0.902,1.626
		c-1.008,0.653-2.354,0.2-2.613,0.103c-0.496-0.187-0.748-0.741-0.561-1.237c0.186-0.495,0.74-0.746,1.232-0.562
		c0.348,0.126,0.789,0.155,0.896,0.085c-0.002-0.001,0.027-0.055,0.035-0.195c0.002-0.031,0.006-0.063,0.01-0.094
		c-0.01-0.842,0.373-1.594,1.043-2.027c0.627-0.409,1.416-0.458,2.055-0.126c0.723,0.375,1.16,1.172,1.199,2.186
		c0,0.26,0.045,0.335,0.047,0.335c0.08,0.038,0.441,0.005,0.688-0.083c0.498-0.176,1.047,0.077,1.229,0.573
		c0.182,0.495-0.068,1.042-0.563,1.228C114.402,45.198,113.925,45.36,113.361,45.36z"/>
	<path fill="#FF900B" d="M118.441,45.36c-0.416,0-0.875-0.087-1.283-0.369c-0.389-0.271-0.855-0.813-0.855-1.861
		c-0.012-0.326-0.115-0.495-0.164-0.519c-0.016-0.009-0.07-0.005-0.127,0.032c-0.115,0.076-0.178,0.233-0.166,0.431
		c0.004,0.06,0.002,0.12-0.006,0.179c-0.002,0.013-0.006,0.043-0.012,0.075c-0.072,0.912-0.529,1.39-0.902,1.632
		c-1.01,0.656-2.354,0.2-2.615,0.103c-0.496-0.187-0.746-0.741-0.559-1.237c0.186-0.495,0.734-0.746,1.232-0.562
		c0.346,0.126,0.789,0.153,0.896,0.085c-0.002-0.001,0.027-0.055,0.035-0.196c0.002-0.029,0.004-0.059,0.01-0.088
		c-0.014-0.845,0.371-1.598,1.041-2.033c0.629-0.409,1.416-0.458,2.055-0.126c0.725,0.375,1.162,1.172,1.201,2.186
		c0,0.26,0.045,0.335,0.047,0.335c0.08,0.038,0.441,0.005,0.688-0.083c0.496-0.176,1.047,0.077,1.229,0.573
		c0.18,0.495-0.068,1.042-0.563,1.228C119.482,45.198,119.005,45.36,118.441,45.36z"/>
	<path fill="#FF900B" d="M123.818,45.36c-0.416,0-0.875-0.087-1.283-0.369c-0.389-0.271-0.855-0.813-0.855-1.861
		c-0.012-0.326-0.115-0.495-0.164-0.519c-0.016-0.009-0.066-0.006-0.127,0.032c-0.115,0.076-0.176,0.233-0.164,0.431
		c0.002,0.06,0.002,0.12-0.006,0.179c-0.002,0.011-0.008,0.047-0.014,0.077c-0.072,0.911-0.529,1.389-0.902,1.631
		c-1.01,0.654-2.355,0.199-2.615,0.102c-0.496-0.187-0.746-0.741-0.559-1.237c0.186-0.495,0.734-0.746,1.232-0.562
		c0.348,0.127,0.793,0.152,0.896,0.085c-0.002-0.001,0.027-0.055,0.035-0.196c0.002-0.029,0.006-0.059,0.01-0.087
		c-0.012-0.845,0.373-1.598,1.043-2.033c0.629-0.408,1.416-0.456,2.053-0.126c0.725,0.375,1.162,1.172,1.201,2.186
		c0,0.26,0.045,0.335,0.047,0.335c0.08,0.038,0.441,0.005,0.688-0.083c0.498-0.176,1.047,0.077,1.229,0.573
		c0.18,0.495-0.068,1.042-0.563,1.228C124.859,45.198,124.38,45.36,123.818,45.36z"/>
	<path fill="#FF900B" d="M128.896,45.36c-0.414,0-0.873-0.087-1.279-0.369c-0.391-0.271-0.857-0.813-0.857-1.861
		c-0.014-0.326-0.115-0.495-0.164-0.519c-0.018-0.009-0.07-0.005-0.127,0.032c-0.117,0.076-0.178,0.233-0.166,0.431
		c0.004,0.06,0.002,0.12-0.006,0.179c-0.002,0.013-0.006,0.043-0.012,0.075c-0.074,0.912-0.529,1.39-0.902,1.632
		c-1.01,0.656-2.355,0.2-2.615,0.103c-0.496-0.187-0.748-0.741-0.561-1.236c0.186-0.495,0.736-0.747,1.232-0.562
		c0.35,0.127,0.791,0.152,0.898,0.085c-0.004-0.001,0.025-0.055,0.035-0.196c0.002-0.029,0.004-0.059,0.008-0.088
		c-0.012-0.845,0.373-1.598,1.043-2.033c0.629-0.409,1.416-0.458,2.055-0.126c0.725,0.375,1.16,1.172,1.201,2.186
		c0,0.26,0.045,0.335,0.047,0.335c0.088,0.043,0.471-0.002,0.68-0.081c0.496-0.187,1.051,0.067,1.236,0.563
		c0.186,0.497-0.066,1.05-0.563,1.236C129.939,45.198,129.46,45.36,128.896,45.36z"/>
	<path fill="#FF900B" d="M134.275,45.36c-0.414,0-0.873-0.087-1.279-0.369c-0.391-0.271-0.857-0.813-0.857-1.861
		c-0.014-0.326-0.115-0.495-0.164-0.519c-0.018-0.009-0.07-0.005-0.127,0.032c-0.117,0.076-0.178,0.233-0.166,0.431
		c0.004,0.06,0.002,0.12-0.006,0.179c-0.002,0.013-0.008,0.046-0.014,0.08c-0.074,0.908-0.527,1.385-0.9,1.627
		c-1.01,0.653-2.355,0.2-2.615,0.103c-0.496-0.187-0.748-0.741-0.561-1.237c0.186-0.495,0.74-0.746,1.232-0.562
		c0.35,0.126,0.789,0.155,0.896,0.085c-0.002-0.001,0.027-0.055,0.035-0.195c0.002-0.031,0.006-0.063,0.01-0.094
		c-0.01-0.843,0.375-1.594,1.043-2.027c0.629-0.409,1.416-0.458,2.055-0.126c0.725,0.375,1.16,1.172,1.201,2.186
		c0,0.26,0.045,0.335,0.047,0.335c0.088,0.043,0.471-0.002,0.68-0.081c0.494-0.187,1.051,0.067,1.236,0.563
		c0.186,0.497-0.066,1.05-0.563,1.236C135.318,45.198,134.839,45.36,134.275,45.36z"/>
	<path fill="#FF900B" d="M139.054,45.36c-0.414,0-0.873-0.087-1.279-0.369c-0.391-0.271-0.857-0.813-0.857-1.861
		c-0.012-0.326-0.117-0.495-0.164-0.519c-0.018-0.009-0.068-0.005-0.125,0.032c-0.117,0.076-0.18,0.233-0.168,0.432
		c0.004,0.06,0.002,0.119-0.006,0.178c-0.002,0.011-0.008,0.047-0.012,0.077c-0.074,0.911-0.529,1.389-0.904,1.631
		c-1.01,0.654-2.352,0.199-2.613,0.102c-0.496-0.187-0.746-0.741-0.559-1.237c0.186-0.496,0.734-0.746,1.232-0.562
		c0.348,0.127,0.791,0.152,0.896,0.085c-0.002-0.001,0.027-0.055,0.035-0.196c0.002-0.029,0.004-0.059,0.01-0.087
		c-0.012-0.845,0.373-1.599,1.043-2.033c0.629-0.408,1.416-0.456,2.053-0.126c0.723,0.375,1.162,1.171,1.201,2.186
		c0,0.26,0.045,0.335,0.047,0.335c0.088,0.043,0.473-0.002,0.68-0.081c0.496-0.187,1.051,0.067,1.236,0.563
		c0.186,0.497-0.066,1.05-0.563,1.236C140.097,45.198,139.618,45.36,139.054,45.36z"/>
	<path fill="#FF900B" d="M134.011,45.687c-0.469,0-0.836-0.085-0.912-0.105c-0.514-0.129-0.824-0.651-0.695-1.165
		c0.129-0.513,0.641-0.823,1.16-0.698c0.314,0.074,0.777,0.069,0.93-0.05c0.074-0.06,0.082-0.255,0.082-0.336
		c0.041-1.062,0.492-1.872,1.24-2.259c0.67-0.344,1.486-0.299,2.131,0.12c0.33,0.214,0.588,0.505,0.762,0.847l-1.576-6.571h-18.781
		c-0.531,0-0.961-0.43-0.961-0.96s0.43-0.96,0.961-0.96h19.539c0.445,0,0.83,0.305,0.934,0.736l2.418,10.084
		c0.061,0.254,0.016,0.522-0.127,0.743c-0.141,0.22-0.367,0.373-0.623,0.422c-0.154,0.031-1.543,0.275-2.521-0.483
		c-0.318-0.246-0.699-0.68-0.828-1.399c-0.047-0.093-0.08-0.193-0.092-0.298c-0.01-0.06-0.012-0.121-0.008-0.181
		c0.008-0.123-0.012-0.287-0.141-0.371c-0.066-0.042-0.148-0.052-0.201-0.025c-0.094,0.048-0.191,0.25-0.205,0.592
		c0,0.962-0.447,1.521-0.822,1.814C135.157,45.584,134.523,45.687,134.011,45.687z"/>
	<path fill="#FF900B" d="M115.47,67.146c-0.531,0-0.959-0.43-0.959-0.96v-6.301c0.035-1.246,0.969-3.06,3.391-3.06
		c0.531,0,0.961,0.43,0.961,0.96s-0.43,0.96-0.961,0.96c-1.266,0-1.451,0.826-1.473,1.182l0.002,6.259
		C116.431,66.717,116.001,67.146,115.47,67.146z"/>
	<path fill="#FF900B" d="M120.269,67.146c-0.529,0-0.959-0.43-0.959-0.96v-6.301c-0.02-0.313-0.205-1.14-1.471-1.14
		c-0.531,0-0.961-0.43-0.961-0.96s0.43-0.96,0.961-0.96c2.424,0,3.355,1.813,3.391,3.031v6.329
		C121.23,66.717,120.8,67.146,120.269,67.146z"/>
	<path fill="#FF900B" d="M110.671,54.667h-6.721c-0.529,0-0.959-0.431-0.959-0.96v-5.76c0-0.53,0.43-0.96,0.959-0.96h6.721
		c0.529,0,0.959,0.43,0.959,0.96v5.76C111.63,54.236,111.2,54.667,110.671,54.667z M104.911,52.747h4.799v-3.839h-4.799V52.747z"/>
	<path fill="#FF900B" d="M130.829,54.667h-5.76c-0.531,0-0.961-0.431-0.961-0.96v-5.76c0-0.53,0.43-0.96,0.961-0.96h5.76
		c0.529,0,0.959,0.43,0.959,0.96v5.76C131.788,54.236,131.359,54.667,130.829,54.667z M126.029,52.747h3.84v-3.839h-3.84V52.747z"/>
	<path fill="#FF900B" d="M130.829,63.306h-5.76c-0.531,0-0.961-0.43-0.961-0.96v-4.8c0-0.53,0.43-0.96,0.961-0.96h5.76
		c0.529,0,0.959,0.43,0.959,0.96v4.8C131.788,62.876,131.359,63.306,130.829,63.306z M126.029,61.386h3.84v-2.88h-3.84V61.386z"/>
	<path fill="#FF900B" d="M110.671,63.306h-6.721c-0.529,0-0.959-0.43-0.959-0.96v-4.8c0-0.53,0.43-0.96,0.959-0.96h6.721
		c0.529,0,0.959,0.43,0.959,0.96v4.8C111.63,62.876,111.2,63.306,110.671,63.306z M104.911,61.386h4.799v-2.88h-4.799V61.386z"/>
	<path fill="#FF900B" d="M120.269,54.667h-5.758c-0.531,0-0.961-0.431-0.961-0.96v-5.76c0-0.53,0.43-0.96,0.961-0.96h5.758
		c0.531,0,0.961,0.43,0.961,0.96v5.76C121.23,54.236,120.8,54.667,120.269,54.667z M115.47,52.747h3.84v-3.839h-3.84V52.747z"/>
</g>
<path fill="#FF900B" d="M30.781,77.145c-1.852,0-3.359-1.508-3.359-3.359c0-1.853,1.507-3.36,3.359-3.36
	c1.853,0,3.36,1.508,3.36,3.36C34.141,75.637,32.634,77.145,30.781,77.145z M30.781,73.305c-0.265,0-0.48,0.216-0.48,0.48
	c0,0.264,0.215,0.479,0.48,0.479c0.265,0,0.48-0.216,0.48-0.479C31.261,73.521,31.047,73.305,30.781,73.305z"/>
<path fill="#FF900B" d="M41.342,77.145c-1.853,0-3.36-1.508-3.36-3.359c0-1.853,1.507-3.36,3.36-3.36
	c1.852,0,3.359,1.508,3.359,3.36C44.701,75.637,43.194,77.145,41.342,77.145z M41.342,73.305c-0.265,0-0.48,0.216-0.48,0.48
	c0,0.264,0.215,0.479,0.48,0.479s0.48-0.216,0.48-0.479C41.822,73.521,41.606,73.305,41.342,73.305z"/>
<path fill="#FF900B" d="M51.9,77.145c-1.852,0-3.359-1.508-3.359-3.359c0-1.853,1.507-3.36,3.359-3.36c1.853,0,3.36,1.508,3.36,3.36
	C55.26,75.637,53.753,77.145,51.9,77.145z M51.9,73.305c-0.265,0-0.479,0.216-0.479,0.48c0,0.264,0.215,0.479,0.479,0.479
	c0.265,0,0.48-0.216,0.48-0.479C52.38,73.521,52.165,73.305,51.9,73.305z"/>
<path fill="#FF900B" d="M62.46,77.145c-1.853,0-3.36-1.508-3.36-3.359c0-1.853,1.507-3.36,3.36-3.36c1.852,0,3.36,1.508,3.36,3.36
	C65.82,75.637,64.312,77.145,62.46,77.145z M62.46,73.305c-0.265,0-0.48,0.216-0.48,0.48c0,0.264,0.215,0.479,0.48,0.479
	s0.48-0.216,0.48-0.479C62.94,73.521,62.725,73.305,62.46,73.305z"/>
<polyline fill="none" stroke="#FF900B" stroke-width="2" stroke-linecap="round" stroke-linejoin="round" stroke-miterlimit="10" points="
	160.523,51.058 165.607,56.141 161.032,61.715 "/>
<polyline fill="none" stroke="#FF900B" stroke-width="2" stroke-linecap="round" stroke-linejoin="round" stroke-miterlimit="10" points="
	6.114,51.058 1.031,56.141 5.605,61.715 "/>
<rect x="337.387" y="193.499" transform="matrix(0.9822 -0.1878 0.1878 0.9822 -34.29 71.7749)" fill="none" stroke="#FF900B" stroke-width="2" stroke-linecap="round" stroke-linejoin="round" stroke-miterlimit="10" width="48.433" height="46.666"/>
<rect x="339.179" y="201.289" transform="matrix(0.9822 -0.1879 0.1879 0.9822 -32.4286 68.172)" fill="none" stroke="#FF900B" stroke-width="2" stroke-linecap="round" stroke-linejoin="round" stroke-miterlimit="10" width="8.499" height="7.75"/>
<g>
	<g>
		
			<ellipse transform="matrix(-0.1877 -0.9822 0.9822 -0.1877 205.9699 630.6393)" fill="#FFFFFF" cx="363.764" cy="230.148" rx="3.747" ry="15.852"/>
		<path fill="#FF900B" d="M364.602,234.532c-7.837,1.498-16.535,1.74-17.111-1.272c-0.576-3.011,7.598-5.997,15.436-7.495
			s16.536-1.74,17.111,1.271C380.614,230.049,372.44,233.033,364.602,234.532z M363.196,227.173
			c-9.619,1.838-14.49,4.808-14.297,5.817c0.192,1.011,5.816,1.973,15.435,0.134c9.62-1.84,14.49-4.809,14.297-5.818
			C378.438,226.295,372.815,225.333,363.196,227.173z"/>
	</g>
	<g>
		<path fill="#FFFFFF" d="M374.315,215.479c0,0-4.303,3.994-13.342,5.609c-9.042,1.617-13.47-0.482-13.47-0.482
			s1.517,13.418,15.052,10.829C376.09,228.848,374.315,215.479,374.315,215.479z"/>
		<path fill="#FF900B" d="M362.69,232.14c-4.243,0.812-7.799,0.188-10.568-1.85c-4.578-3.371-5.302-9.351-5.331-9.604
			c-0.028-0.259,0.084-0.514,0.294-0.664c0.213-0.15,0.489-0.175,0.726-0.064c0.038,0.02,4.354,1.848,13.011,0.302
			c0.156-0.028,0.286-0.181,0.439-0.211c0.002,0,0.002,0,0.002,0c8.382-1.603,12.501-5.183,12.542-5.22
			c0.196-0.182,0.491-0.177,0.742-0.085c0.251,0.091,0.438,0.345,0.473,0.61C375.036,215.494,376.729,229.455,362.69,232.14z
			 M348.44,221.688c0.43,1.807,1.605,5.299,4.54,7.454c2.434,1.787,5.61,2.323,9.44,1.59c10.392-1.987,11.284-10.656,11.24-13.978
			c-1.794,1.275-5.787,3.479-12.131,4.691c0,0,0,0-0.001,0c-0.159,0.031-0.294,0.189-0.454,0.219
			C354.535,222.834,350.371,222.235,348.44,221.688z"/>
	</g>
	<g>
		<path fill="#FFFFFF" d="M348.513,220.073c0,0,0.315-1.797,1.407-2.119c1.095-0.322-0.129-0.467,0.526-0.705
			c0.656-0.238,1.559-1.129,2.183-1.097c0.625,0.031,1.563-0.453,2.184-0.438c0.621,0.016,2.639,1.291,2.619,2.051"/>
		<path fill="#FF900B" d="M348.648,220.777c-0.083,0.017-0.17,0.017-0.259,0.002c-0.39-0.068-0.65-0.44-0.581-0.83
			c0.038-0.218,0.399-2.071,1.72-2.616c0.005-0.039,0.012-0.079,0.021-0.119c0.073-0.293,0.293-0.508,0.654-0.639
			c0.18-0.064,0.451-0.246,0.715-0.419c0.559-0.369,1.136-0.75,1.748-0.72c0.195,0.01,0.557-0.097,0.877-0.191
			c0.427-0.127,0.87-0.258,1.288-0.247c0.725,0.017,2.056,0.839,2.718,1.536c0.413,0.436,0.61,0.844,0.6,1.249
			c-0.011,0.396-0.339,0.71-0.735,0.698c-0.38-0.01-0.685-0.316-0.697-0.691c-0.157-0.403-1.499-1.307-1.935-1.36
			c-0.179-0.005-0.526,0.1-0.833,0.19c-0.448,0.133-0.914,0.27-1.355,0.248c-0.159,0.005-0.632,0.318-0.886,0.484
			c-0.194,0.129-0.395,0.261-0.594,0.373c-0.002,0.057-0.013,0.113-0.029,0.172c-0.143,0.504-0.694,0.666-0.96,0.744
			c-0.499,0.147-0.831,1.131-0.905,1.557C349.165,220.499,348.932,220.724,348.648,220.777z"/>
	</g>
	<g>
		<path fill="#FFFFFF" d="M357.42,218.37c0,0-1.153-1.805,0.051-2.457c1.205-0.652,0.266-0.926,0.854-1.152
			c0.59-0.226,1.865-0.47,2.141-0.41c0.275,0.062,1.806,0.411,1.881,0.585c0.076,0.173,1.355-0.447,1.625-0.612
			c0.271-0.165,0.451,0.576,1.315,0.947c0.864,0.373,1.798,0.912,1.823,1.247c0.027,0.335,0.736,0.69,0.704,1.112"/>
		<path fill="#FF900B" d="M367.949,218.333c-0.061,0.012-0.123,0.016-0.19,0.011c-0.357-0.028-0.634-0.313-0.66-0.659
			c-0.04-0.055-0.122-0.139-0.179-0.198c-0.189-0.194-0.419-0.431-0.497-0.755c-0.159-0.154-0.667-0.479-1.421-0.803
			c-0.51-0.22-0.838-0.535-1.056-0.773c-0.495,0.258-1.329,0.631-1.782,0.488c-0.102-0.031-0.199-0.09-0.284-0.166
			c-0.215-0.092-0.882-0.273-1.536-0.419c-0.212-0.004-0.975,0.128-1.512,0.288c-0.059,0.479-0.386,0.854-1.02,1.197
			c-0.106,0.057-0.14,0.114-0.158,0.182c-0.085,0.325,0.17,0.944,0.37,1.261c0.212,0.335,0.112,0.776-0.222,0.988
			s-0.775,0.114-0.986-0.218c-0.086-0.135-0.822-1.331-0.549-2.389c0.12-0.471,0.42-0.846,0.861-1.085
			c0.143-0.077,0.227-0.134,0.272-0.173c-0.045-0.648,0.392-0.914,0.666-1.02c0.491-0.188,2.005-0.559,2.551-0.439
			c1.042,0.23,1.604,0.402,1.921,0.552c0.308-0.112,0.865-0.374,1.059-0.491c0.638-0.389,1.146,0.182,1.313,0.371
			c0.162,0.186,0.348,0.396,0.66,0.529c1.9,0.82,2.186,1.424,2.242,1.731c0.035,0.042,0.093,0.101,0.135,0.144
			c0.248,0.256,0.623,0.643,0.581,1.196C368.504,218.014,368.26,218.274,367.949,218.333z"/>
	</g>
	<g>
		<path fill="#FFFFFF" d="M364.775,214.456c0,0-0.115-0.65,0.983-0.822c1.101-0.173,1.385-0.979,1.908-0.805
			s2.305-0.053,2.933,0.068c0.627,0.121,1.159,0.186,1.401,0.668c0.244,0.482,0.929,1.16,0.929,1.16l0.036,0.189"/>
		<path fill="#FF900B" d="M373.115,215.694c-0.388,0.074-0.759-0.182-0.833-0.569l-0.014-0.069
			c-0.055-0.285-0.695-0.744-0.907-1.166c-0.063-0.125-0.257-0.17-0.79-0.271l-0.098-0.014c-0.213-0.041-0.776-0.019-1.227-0.002
			c-0.795,0.028-1.331,0.04-1.704-0.052c-0.052,0.033-0.12,0.084-0.175,0.124c-0.309,0.229-0.773,0.576-1.52,0.69
			c-0.244,0.039-0.361,0.104-0.4,0.137c0.001,0.353-0.25,0.661-0.619,0.711c-0.393,0.055-0.755-0.219-0.809-0.612
			c-0.064-0.474,0.172-1.425,1.606-1.651c0.381-0.061,0.633-0.238,0.887-0.427c0.304-0.224,0.764-0.563,1.368-0.362
			c0.18,0.051,0.886,0.025,1.307,0.01c0.628-0.022,1.171-0.043,1.543,0.029l0.08,0.015c0.648,0.124,1.383,0.265,1.775,1.039
			c0.143,0.284,0.594,0.756,0.813,0.992c0.091,0.099,0.204,0.212,0.229,0.344l0.051,0.267
			C373.754,215.246,373.504,215.62,373.115,215.694z"/>
	</g>
</g>
<line fill="none" stroke="#FF900B" stroke-width="2" stroke-linecap="round" stroke-linejoin="round" stroke-miterlimit="10" x1="352.395" y1="199.459" x2="371.53" y2="195.8"/>
<line fill="none" stroke="#FF900B" stroke-width="2" stroke-linecap="round" stroke-linejoin="round" stroke-miterlimit="10" x1="352.334" y1="205.37" x2="364.055" y2="203.129"/>
<g>
	
		<rect x="428.387" y="196.5" transform="matrix(0.9964 0.0844 -0.0844 0.9964 20.159 -37.3989)" fill="none" stroke="#FF900B" stroke-width="2" stroke-linecap="round" stroke-linejoin="round" stroke-miterlimit="10" width="48.433" height="46.666"/>
	
		<rect x="434.004" y="199.815" transform="matrix(0.9964 0.0844 -0.0844 0.9964 18.7655 -36.28)" fill="none" stroke="#FF900B" stroke-width="2" stroke-linecap="round" stroke-linejoin="round" stroke-miterlimit="10" width="8.5" height="7.75"/>
	
		<line fill="none" stroke="#FF900B" stroke-width="2" stroke-linecap="round" stroke-linejoin="round" stroke-miterlimit="10" x1="447.197" y1="201.311" x2="466.608" y2="202.954"/>
	
		<line fill="none" stroke="#FF900B" stroke-width="2" stroke-linecap="round" stroke-linejoin="round" stroke-miterlimit="10" x1="446.775" y1="206.293" x2="458.663" y2="207.3"/>
	
		<line fill="none" stroke="#FF900B" stroke-width="2" stroke-linecap="round" stroke-linejoin="round" stroke-miterlimit="10" x1="434.742" y1="216.314" x2="472.168" y2="219.483"/>
	
		<line fill="none" stroke="#FF900B" stroke-width="2" stroke-linecap="round" stroke-linejoin="round" stroke-miterlimit="10" x1="434.406" y1="220.3" x2="471.832" y2="223.469"/>
	
		<line fill="none" stroke="#FF900B" stroke-width="2" stroke-linecap="round" stroke-linejoin="round" stroke-miterlimit="10" x1="434.071" y1="224.286" x2="471.496" y2="227.455"/>
	
		<line fill="none" stroke="#FF900B" stroke-width="2" stroke-linecap="round" stroke-linejoin="round" stroke-miterlimit="10" x1="433.735" y1="228.272" x2="457.209" y2="230.259"/>
</g>
<g>
	
		<rect x="363.487" y="234.524" transform="matrix(0.9938 -0.1112 0.1112 0.9938 -26.2735 44.7199)" fill="#FFFFFF" stroke="#FF900B" stroke-width="2" stroke-linecap="round" stroke-linejoin="round" stroke-miterlimit="10" width="48.433" height="46.668"/>
	
		<rect x="366.236" y="240.942" transform="matrix(0.9938 -0.1112 0.1112 0.9938 -24.9287 42.7216)" fill="none" stroke="#FF900B" stroke-width="2" stroke-linecap="round" stroke-linejoin="round" stroke-miterlimit="10" width="8.5" height="7.751"/>
	
		<line fill="none" stroke="#FF900B" stroke-width="2" stroke-linecap="round" stroke-linejoin="round" stroke-miterlimit="10" x1="369.498" y1="257.884" x2="406.825" y2="253.708"/>
	
		<line fill="none" stroke="#FF900B" stroke-width="2" stroke-linecap="round" stroke-linejoin="round" stroke-miterlimit="10" x1="369.946" y1="261.858" x2="407.272" y2="257.683"/>
	
		<line fill="none" stroke="#FF900B" stroke-width="2" stroke-linecap="round" stroke-linejoin="round" stroke-miterlimit="10" x1="370.392" y1="265.835" x2="407.718" y2="261.657"/>
	
		<line fill="none" stroke="#FF900B" stroke-width="2" stroke-linecap="round" stroke-linejoin="round" stroke-miterlimit="10" x1="370.838" y1="269.81" x2="394.25" y2="267.188"/>
</g>
<g>
	
		<rect x="411.411" y="235.771" transform="matrix(0.9996 0.0296 -0.0296 0.9996 7.8657 -12.7894)" fill="#FFFFFF" stroke="#FF900B" stroke-width="2" stroke-linecap="round" stroke-linejoin="round" stroke-miterlimit="10" width="48.433" height="46.667"/>
	
		<rect x="416.166" y="239.898" transform="matrix(0.9996 0.0295 -0.0295 0.9996 7.3822 -12.3088)" fill="none" stroke="#FF900B" stroke-width="2" stroke-linecap="round" stroke-linejoin="round" stroke-miterlimit="10" width="8.499" height="7.75"/>
	
		<line fill="none" stroke="#FF900B" stroke-width="2" stroke-linecap="round" stroke-linejoin="round" stroke-miterlimit="10" x1="429.212" y1="240.907" x2="448.685" y2="241.484"/>
	
		<line fill="none" stroke="#FF900B" stroke-width="2" stroke-linecap="round" stroke-linejoin="round" stroke-miterlimit="10" x1="429.065" y1="245.905" x2="440.992" y2="246.259"/>
</g>
<g>
	
		<ellipse transform="matrix(-0.0198 -0.9998 0.9998 -0.0198 170.2788 708.863)" fill="#FFFFFF" cx="432.617" cy="270.962" rx="3.746" ry="15.853"/>
	<path fill="#FF900B" d="M432.706,275.425c-7.977,0.16-16.592-1.063-16.653-4.13c-0.063-3.064,8.497-4.635,16.475-4.794
		c7.979-0.16,16.594,1.063,16.654,4.129C449.244,273.696,440.685,275.265,432.706,275.425z M432.557,267.935
		c-9.791,0.194-15.092,2.304-15.071,3.332s5.402,2.922,15.193,2.726c9.792-0.197,15.092-2.306,15.071-3.333
		C447.73,269.63,442.349,267.737,432.557,267.935z"/>
</g>
<g>
	<path fill-rule="evenodd" clip-rule="evenodd" fill="#FF900B" d="M424.631,263.118c-1.202,1.335-1.951,2.734-2.097,4.403
		c-0.311,3.55,2.643,6.222,6.142,5.543c2.011-0.392,3.634-1.49,4.669-3.206c1.021-1.689,1.751-3.554,2.646-5.322
		c0.465-0.92,1.018-1.795,1.514-2.701c0.338-0.616,0.891-1.243,0.912-1.879c0.034-1.059,0.612-1.675,1.24-2.339
		c0.408-0.43,0.819-0.858,1.197-1.312c0.282-0.338,0.537-0.469,1.021-0.345c1.186,0.305,2.368-0.396,2.771-1.542
		c0.405-1.15-0.101-2.375-1.193-2.949c-0.234-0.123-0.476-0.304-0.614-0.521c-0.713-1.112-1.934-1.545-3.06-1.047
		c-1.185,0.525-1.747,1.752-1.311,3.006c0.133,0.381,0.067,0.6-0.188,0.867c-0.719,0.754-1.406,1.539-2.124,2.292
		c-0.15,0.157-0.375,0.33-0.572,0.34c-0.903,0.041-1.678,0.399-2.278,1.023c-1.025,1.066-2.31,1.707-3.586,2.371
		c-0.253,0.131-0.508,0.256-0.754,0.396C427.403,261.078,425.784,261.881,424.631,263.118z"/>
	<path fill-rule="evenodd" clip-rule="evenodd" fill="#FF900B" d="M424.631,263.118c1.153-1.237,2.771-2.04,4.334-2.922
		c0.246-0.14,0.501-0.265,0.754-0.396c1.276-0.664,2.561-1.305,3.586-2.371c0.601-0.624,1.375-0.982,2.278-1.023
		c0.197-0.01,0.422-0.183,0.572-0.34c0.718-0.753,1.405-1.538,2.124-2.292c0.255-0.268,0.32-0.486,0.188-0.867
		c-0.437-1.254,0.126-2.48,1.311-3.006c1.126-0.498,2.347-0.065,3.06,1.047c0.139,0.218,0.38,0.398,0.614,0.521
		c1.093,0.574,1.599,1.799,1.193,2.949c-0.402,1.146-1.585,1.847-2.771,1.542c-0.483-0.124-0.738,0.007-1.021,0.345
		c-0.378,0.453-0.789,0.882-1.197,1.312c-0.628,0.664-1.206,1.28-1.24,2.339c-0.021,0.636-0.574,1.263-0.912,1.879
		c-0.496,0.906-1.049,1.781-1.514,2.701c-0.895,1.769-1.625,3.633-2.646,5.322c-1.035,1.716-2.658,2.814-4.669,3.206
		c-3.499,0.679-6.452-1.993-6.142-5.543C422.68,265.853,423.429,264.453,424.631,263.118z M437.832,257.546
		c0.919-1,1.79-1.93,2.637-2.883c0.409-0.459,0.773-0.553,1.353-0.224c0.297,0.17,0.856,0.131,1.158-0.048
		c0.237-0.138,0.417-0.684,0.339-0.966c-0.09-0.313-0.463-0.658-0.786-0.763c-0.459-0.148-0.685-0.355-0.866-0.803
		c-0.127-0.311-0.516-0.648-0.835-0.705c-0.29-0.051-0.812,0.182-0.93,0.433c-0.148,0.314-0.132,0.872,0.063,1.152
		c0.382,0.552,0.303,0.918-0.121,1.361c-0.892,0.938-1.756,1.904-2.64,2.869C437.429,257.177,437.597,257.331,437.832,257.546z
		 M425.133,263.958c-0.448,0.889-0.958,1.668-1.247,2.524c-0.472,1.402-0.268,2.765,0.701,3.935c0.162,0.193,0.487,0.25,0.736,0.369
		c-0.064-0.253-0.103-0.517-0.197-0.758c-0.246-0.626-0.667-1.224-0.745-1.867c-0.193-1.598,0.479-2.99,1.703-3.924
		c1.359-1.038,2.914-1.819,4.385-2.712c0.503-0.305,1.026-0.583,1.506-0.921c0.117-0.084,0.102-0.354,0.146-0.537
		c-0.168,0.005-0.367-0.05-0.499,0.021c-1.08,0.581-2.163,1.161-3.217,1.79C427.299,262.543,426.225,263.261,425.133,263.958z"/>
	<path fill-rule="evenodd" clip-rule="evenodd" fill="#FFFFFF" d="M437.832,257.546c-0.235-0.215-0.403-0.369-0.628-0.575
		c0.884-0.965,1.748-1.931,2.64-2.869c0.424-0.443,0.503-0.81,0.121-1.361c-0.195-0.28-0.212-0.838-0.063-1.152
		c0.118-0.251,0.64-0.483,0.93-0.433c0.319,0.057,0.708,0.395,0.835,0.705c0.182,0.447,0.407,0.654,0.866,0.803
		c0.323,0.104,0.696,0.45,0.786,0.763c0.078,0.282-0.102,0.828-0.339,0.966c-0.302,0.179-0.861,0.218-1.158,0.048
		c-0.579-0.329-0.943-0.235-1.353,0.224C439.622,255.616,438.751,256.546,437.832,257.546z"/>
	<path fill-rule="evenodd" clip-rule="evenodd" fill="#FFFFFF" d="M425.133,263.958c1.092-0.697,2.166-1.415,3.272-2.079
		c1.054-0.629,2.137-1.209,3.217-1.79c0.132-0.071,0.331-0.017,0.499-0.021c-0.045,0.183-0.029,0.453-0.146,0.537
		c-0.479,0.338-1.003,0.616-1.506,0.921c-1.471,0.893-3.025,1.674-4.385,2.712c-1.224,0.934-1.896,2.326-1.703,3.924
		c0.078,0.644,0.499,1.241,0.745,1.867c0.095,0.241,0.133,0.505,0.197,0.758c-0.249-0.119-0.574-0.176-0.736-0.369
		c-0.969-1.17-1.173-2.532-0.701-3.935C424.175,265.626,424.685,264.847,425.133,263.958z"/>
</g>
<g>
	<path fill-rule="evenodd" clip-rule="evenodd" fill="#FF900B" d="M430.638,262.611c-1.604,0.808-2.811,1.839-3.553,3.341
		c-1.579,3.195,0.202,6.757,3.709,7.396c2.016,0.365,3.927-0.068,5.515-1.291c1.564-1.204,2.922-2.676,4.397-3.998
		c0.768-0.688,1.601-1.303,2.392-1.967c0.539-0.452,1.281-0.835,1.532-1.42c0.417-0.974,1.179-1.338,2.006-1.729
		c0.536-0.252,1.074-0.502,1.591-0.787c0.386-0.212,0.671-0.241,1.076,0.05c0.994,0.714,2.351,0.49,3.142-0.431
		c0.796-0.925,0.769-2.249-0.041-3.182c-0.173-0.199-0.332-0.455-0.383-0.709c-0.26-1.295-1.24-2.142-2.471-2.086
		c-1.294,0.059-2.264,0.997-2.313,2.324c-0.015,0.403-0.154,0.583-0.489,0.74c-0.943,0.441-1.869,0.923-2.812,1.364
		c-0.197,0.092-0.47,0.171-0.656,0.108c-0.857-0.29-1.709-0.237-2.495,0.126c-1.342,0.621-2.771,0.752-4.202,0.906
		c-0.283,0.03-0.565,0.055-0.846,0.096C433.961,261.718,432.162,261.878,430.638,262.611z"/>
	<path fill-rule="evenodd" clip-rule="evenodd" fill="#FF900B" d="M430.638,262.611c1.524-0.733,3.323-0.894,5.1-1.147
		c0.28-0.041,0.563-0.065,0.846-0.096c1.431-0.154,2.86-0.285,4.202-0.906c0.786-0.363,1.638-0.416,2.495-0.126
		c0.187,0.063,0.459-0.017,0.656-0.108c0.942-0.441,1.868-0.923,2.812-1.364c0.335-0.157,0.475-0.337,0.489-0.74
		c0.049-1.327,1.019-2.266,2.313-2.324c1.23-0.056,2.211,0.791,2.471,2.086c0.051,0.254,0.21,0.51,0.383,0.709
		c0.81,0.933,0.837,2.257,0.041,3.182c-0.791,0.921-2.147,1.145-3.142,0.431c-0.405-0.291-0.69-0.262-1.076-0.05
		c-0.517,0.285-1.055,0.535-1.591,0.787c-0.827,0.391-1.589,0.755-2.006,1.729c-0.251,0.585-0.993,0.968-1.532,1.42
		c-0.791,0.664-1.624,1.278-2.392,1.967c-1.476,1.322-2.833,2.794-4.397,3.998c-1.588,1.223-3.499,1.656-5.515,1.291
		c-3.507-0.639-5.288-4.2-3.709-7.396C427.827,264.45,429.033,263.419,430.638,262.611z M444.961,262.215
		c1.22-0.599,2.369-1.148,3.504-1.729c0.548-0.279,0.922-0.234,1.342,0.283c0.215,0.266,0.75,0.433,1.097,0.376
		c0.271-0.043,0.637-0.485,0.666-0.777c0.03-0.323-0.192-0.781-0.455-0.996c-0.374-0.305-0.509-0.579-0.516-1.063
		c-0.006-0.335-0.245-0.791-0.521-0.96c-0.252-0.152-0.822-0.126-1.023,0.065c-0.253,0.239-0.439,0.765-0.359,1.097
		c0.155,0.653-0.052,0.965-0.607,1.225c-1.172,0.55-2.328,1.136-3.502,1.714C444.72,261.725,444.821,261.929,444.961,262.215z
		 M430.801,263.576c-0.74,0.665-1.499,1.206-2.079,1.899c-0.949,1.135-1.254,2.479-0.775,3.92c0.08,0.239,0.363,0.41,0.552,0.611
		c0.032-0.259,0.092-0.519,0.092-0.777c-0.002-0.673-0.178-1.383-0.017-2.01c0.4-1.56,1.533-2.612,3.012-3.038
		c1.644-0.474,3.376-0.637,5.07-0.934c0.58-0.102,1.169-0.171,1.738-0.312c0.14-0.035,0.223-0.293,0.331-0.447
		c-0.158-0.057-0.324-0.18-0.473-0.161c-1.218,0.149-2.438,0.296-3.647,0.5C433.333,263.045,432.072,263.323,430.801,263.576z"/>
	<path fill-rule="evenodd" clip-rule="evenodd" fill="#FFFFFF" d="M444.961,262.215c-0.141-0.286-0.241-0.49-0.376-0.765
		c1.174-0.578,2.33-1.164,3.502-1.714c0.556-0.26,0.763-0.571,0.607-1.225c-0.08-0.332,0.106-0.857,0.359-1.097
		c0.201-0.191,0.771-0.218,1.023-0.065c0.276,0.169,0.516,0.625,0.521,0.96c0.007,0.483,0.142,0.758,0.516,1.063
		c0.263,0.215,0.485,0.673,0.455,0.996c-0.029,0.292-0.396,0.734-0.666,0.777c-0.347,0.057-0.882-0.11-1.097-0.376
		c-0.42-0.518-0.794-0.563-1.342-0.283C447.33,261.066,446.181,261.616,444.961,262.215z"/>
	<path fill-rule="evenodd" clip-rule="evenodd" fill="#FFFFFF" d="M430.801,263.576c1.271-0.253,2.532-0.531,3.804-0.748
		c1.21-0.204,2.43-0.351,3.647-0.5c0.148-0.019,0.314,0.104,0.473,0.161c-0.108,0.154-0.191,0.412-0.331,0.447
		c-0.569,0.141-1.158,0.21-1.738,0.312c-1.694,0.297-3.427,0.46-5.07,0.934c-1.479,0.426-2.611,1.479-3.012,3.038
		c-0.161,0.627,0.015,1.337,0.017,2.01c0,0.259-0.06,0.519-0.092,0.777c-0.188-0.201-0.472-0.372-0.552-0.611
		c-0.479-1.441-0.174-2.785,0.775-3.92C429.302,264.782,430.061,264.241,430.801,263.576z"/>
</g>
<g>
	
		<rect x="382.123" y="182.915" transform="matrix(0.9998 0.0202 -0.0202 0.9998 4.2455 -8.1592)" fill="#FFFFFF" stroke="#FF900B" stroke-width="2" stroke-linecap="round" stroke-linejoin="round" stroke-miterlimit="10" width="48.434" height="46.669"/>
	
		<rect x="386.733" y="187.186" transform="matrix(0.9998 0.0202 -0.0202 0.9998 3.9434 -7.8671)" fill="none" stroke="#FF900B" stroke-width="2" stroke-linecap="round" stroke-linejoin="round" stroke-miterlimit="10" width="8.5" height="7.752"/>
</g>
<g>
	
		<circle fill="none" stroke="#FF900B" stroke-width="2" stroke-linecap="round" stroke-linejoin="round" stroke-miterlimit="10" cx="406.598" cy="211.261" r="6.801"/>
	<path fill="none" stroke="#FF900B" stroke-width="2" stroke-linecap="round" stroke-linejoin="round" stroke-miterlimit="10" d="
		M413.637,222.958c0,0-0.277,0.056-0.664,0c-0.389-0.056-3.771-1.164-3.825-4.324"/>
	<path fill="none" stroke="#FF900B" stroke-width="2" stroke-linecap="round" stroke-linejoin="round" stroke-miterlimit="10" d="
		M414.139,222.982c0,0,5.396,0.033,5.47,7.276"/>
	<path fill="none" stroke="#FF900B" stroke-width="2" stroke-linecap="round" stroke-linejoin="round" stroke-miterlimit="10" d="
		M399.15,222.958c0,0,0.277,0.056,0.666,0s3.77-1.164,3.825-4.324"/>
	<path fill="none" stroke="#FF900B" stroke-width="2" stroke-linecap="round" stroke-linejoin="round" stroke-miterlimit="10" d="
		M398.649,222.982c0,0-5.395,0.033-5.469,7.276"/>
</g>
<path fill="none" stroke="#FF900B" stroke-width="2" stroke-linecap="round" stroke-linejoin="round" stroke-miterlimit="10" d="
	M405.637,197.104c0,0-9.868-0.686-10.313,9.684c0.167,7.43-0.647,9.518-2.145,9.627c-1.497,0.111,2.272,2.295,4.158,1.646
	c1.884-0.647,3.9-1.271,3.549-3.111"/>
<path fill="none" stroke="#FF900B" stroke-width="2" stroke-linecap="round" stroke-linejoin="round" stroke-miterlimit="10" d="
	M406.596,197.101c0,0,10.387-0.497,10.831,9.871c-0.165,7.43,1.135,9.334,2.632,9.443c1.497,0.111-2.272,2.295-4.158,1.646
	c-1.886-0.647-3.9-1.271-3.549-3.111"/>
<line fill="none" stroke="#FF900B" stroke-width="2" stroke-linecap="round" stroke-linejoin="round" stroke-miterlimit="10" x1="399.488" y1="188.384" x2="418.959" y2="188.97"/>
<line fill="none" stroke="#FF900B" stroke-width="2" stroke-linecap="round" stroke-linejoin="round" stroke-miterlimit="10" x1="399.337" y1="193.382" x2="411.263" y2="193.739"/>
</svg>
