<?xml version="1.0" encoding="utf-8"?>
<!-- Generator: Adobe Illustrator 16.0.0, SVG Export Plug-In . SVG Version: 6.00 Build 0)  -->
<!DOCTYPE svg PUBLIC "-//W3C//DTD SVG 1.1//EN" "http://www.w3.org/Graphics/SVG/1.1/DTD/svg11.dtd">
<svg version="1.1" id="Capa_1" xmlns="http://www.w3.org/2000/svg" xmlns:xlink="http://www.w3.org/1999/xlink" x="0px" y="0px"
	 width="166.637px" height="112.666px" viewBox="0 0 166.637 112.666" enable-background="new 0 0 166.637 112.666"
	 xml:space="preserve">
<g>
	<defs>
		<rect id="SVGID_1_" x="289.068" y="-10.649" width="144.5" height="112.666"/>
	</defs>
	<clipPath id="SVGID_2_">
		<use xlink:href="#SVGID_1_"  overflow="visible"/>
	</clipPath>
	<g clip-path="url(#SVGID_2_)">
		<g>
			<path fill="#FFFFFF" d="M424.818,76.653c0,6.175-5.005,11.18-11.179,11.18H307.997c-6.174,0-11.179-5.005-11.179-11.18V4.013
				c0-6.174,5.005-11.18,11.179-11.18h105.643c6.174,0,11.179,5.005,11.179,11.18V76.653z"/>
			<path fill="#FF900B" d="M414.139,88.833H308.497c-6.991,0-12.679-5.688-12.679-12.68V3.513c0-6.992,5.688-12.68,12.679-12.68
				h105.643c6.991,0,12.679,5.688,12.679,12.68v72.641C426.818,83.145,421.131,88.833,414.139,88.833z M308.497-6.167
				c-5.337,0-9.679,4.342-9.679,9.68v72.641c0,5.338,4.342,9.68,9.679,9.68h105.643c5.337,0,9.679-4.342,9.679-9.68V3.513
				c0-5.337-4.342-9.68-9.679-9.68H308.497z"/>
		</g>
		<g>
			<path fill="#FFFFFF" d="M416.818,68.836c0,5.961-2.113,11.997-6.175,11.997h-97.792c-4.063,0-8.033-6.036-8.033-11.997V10.288
				c0-5.961,3.971-10.455,8.033-10.455h97.792c4.062,0,6.175,4.494,6.175,10.455V68.836z"/>
			<path fill="#FF900B" d="M410.643,81.833h-97.792c-4.813,0-9.033-6.073-9.033-12.997V10.288c0-6.868,4.053-12.455,9.033-12.455
				h97.792c4.736,0,8.175,5.238,8.175,12.455v58.548C418.818,75.137,415.953,81.833,410.643,81.833z M312.851,0.833
				c-3.214,0-6.033,4.418-6.033,9.455v58.548c0,5.139,2.932,9.997,6.033,9.997h97.792c2.854,0,5.175-4.484,5.175-9.997V10.288
				c0-5.39-2.225-9.455-5.175-9.455H312.851z"/>
		</g>
		<g>
			<ellipse fill="#FFFFFF" cx="358.635" cy="57.369" rx="33.179" ry="7.841"/>
			<path fill="#FF900B" d="M358.635,66.71c-16.702,0-34.68-2.923-34.68-9.341s17.978-9.342,34.68-9.342s34.679,2.924,34.679,9.342
				S375.338,66.71,358.635,66.71z M358.635,51.027c-20.498,0-31.68,4.189-31.68,6.342s11.182,6.341,31.68,6.341
				c20.497,0,31.679-4.188,31.679-6.341S379.133,51.027,358.635,51.027z"/>
		</g>
		<g>
			<path fill="#FFFFFF" d="M386.09,31.361c0,0-10.412,6.521-29.635,6.288c-19.223-0.232-27.5-6.288-27.5-6.288
				s-2.156,28.182,26.688,28.182C384.488,59.543,386.09,31.361,386.09,31.361z"/>
			<path fill="#FF900B" d="M355.642,61.043c-9.042,0-16.107-2.678-20.998-7.958c-8.088-8.729-7.226-21.307-7.186-21.838
				c0.042-0.543,0.375-1.021,0.869-1.249c0.494-0.226,1.072-0.169,1.513,0.152c0.075,0.054,8.228,5.615,26.632,5.837
				c0.332,0.004,0.658-0.155,0.985-0.155c0.001,0,0.002,0,0.003,0c17.86,0,27.737-5.845,27.835-5.906
				c0.478-0.295,1.079-0.221,1.559,0.065c0.481,0.286,0.765,0.855,0.733,1.414C387.57,31.702,385.559,61.043,355.642,61.043z
				 M330.454,33.955c0.176,3.882,1.222,11.525,6.406,17.109c4.3,4.631,10.62,6.979,18.782,6.979c22.141,0,27.388-17.356,28.6-24.202
				c-4.188,1.916-13.264,4.992-26.781,4.992c-0.001,0-0.002,0-0.003,0c-0.339,0-0.677,0.159-1.021,0.155
				C342.54,38.82,334.213,35.837,330.454,33.955z"/>
		</g>
		<g>
			<path fill="#FFFFFF" d="M331.242,30.663c0,0,1.355-3.571,3.729-3.805c2.375-0.232-0.083-1.009,1.357-1.241
				c1.44-0.233,3.645-1.708,4.917-1.397c1.271,0.31,3.39-0.319,4.661-0.043c1.272,0.275,4.917,3.69,4.578,5.244"/>
			<path fill="#FF900B" d="M331.242,32.164c-0.178,0-0.357-0.032-0.532-0.098c-0.774-0.294-1.164-1.16-0.87-1.935
				c0.165-0.435,1.639-4.103,4.567-4.702c0.023-0.08,0.054-0.159,0.09-0.237c0.267-0.572,0.802-0.927,1.593-1.055
				c0.398-0.064,1.027-0.327,1.637-0.581c1.293-0.539,2.631-1.095,3.875-0.792c0.4,0.097,1.186,0.019,1.877-0.05
				c0.93-0.093,1.893-0.187,2.747-0.002c1.481,0.321,3.896,2.534,4.982,4.224c0.681,1.059,0.924,1.977,0.743,2.806
				c-0.178,0.809-0.975,1.325-1.785,1.146c-0.779-0.17-1.284-0.917-1.163-1.695c-0.164-0.889-2.567-3.273-3.44-3.555
				c-0.366-0.081-1.122-0.004-1.787,0.062c-0.977,0.097-1.986,0.197-2.885-0.021c-0.33-0.055-1.424,0.404-2.01,0.647
				c-0.451,0.188-0.912,0.38-1.367,0.532c-0.029,0.116-0.072,0.23-0.129,0.342c-0.494,0.979-1.691,1.097-2.268,1.153
				c-1.082,0.106-2.151,1.998-2.473,2.844C332.417,31.794,331.847,32.164,331.242,32.164z"/>
		</g>
		<g>
			<path fill="#FFFFFF" d="M350.222,30.663c0,0-1.661-4.165,1.071-5.032c2.733-0.868,0.909-1.8,2.209-2.033
				c1.301-0.232,4.018-0.232,4.562,0c0.543,0.233,3.55,1.555,3.638,1.941c0.089,0.388,2.961-0.388,3.582-0.621
				c0.621-0.232,0.698,1.36,2.329,2.466c1.63,1.105,3.338,2.581,3.261,3.279c-0.077,0.699,1.241,1.709,1.009,2.563"/>
			<path fill="#FF900B" d="M371.884,34.726c-0.131,0-0.263-0.017-0.396-0.053c-0.724-0.197-1.179-0.892-1.097-1.615
				c-0.063-0.128-0.198-0.332-0.293-0.476c-0.313-0.475-0.691-1.049-0.726-1.749c-0.267-0.377-1.182-1.244-2.602-2.208
				c-0.962-0.652-1.515-1.432-1.867-2.004c-1.118,0.334-2.983,0.773-3.857,0.303c-0.194-0.104-0.375-0.266-0.519-0.455
				c-0.405-0.272-1.704-0.909-2.992-1.466c-0.434-0.09-2.056-0.121-3.222-0.003c-0.307,0.96-1.128,1.603-2.566,2.06
				c-0.24,0.076-0.332,0.181-0.396,0.314c-0.302,0.634-0.021,2.007,0.265,2.736c0.302,0.77-0.075,1.641-0.844,1.944
				c-0.769,0.303-1.639-0.069-1.943-0.837c-0.123-0.307-1.168-3.058-0.19-5.125c0.435-0.919,1.196-1.574,2.2-1.893
				c0.321-0.102,0.516-0.189,0.627-0.248c0.162-1.348,1.165-1.723,1.771-1.832c1.086-0.195,4.341-0.362,5.416,0.097
				c2.053,0.882,3.14,1.458,3.732,1.891c0.678-0.108,1.927-0.429,2.37-0.596c1.464-0.549,2.283,0.826,2.549,1.279
				c0.264,0.446,0.561,0.951,1.149,1.35c3.585,2.432,3.935,3.789,3.928,4.44c0.058,0.101,0.152,0.245,0.222,0.349
				c0.41,0.624,1.031,1.566,0.726,2.688C373.148,34.287,372.544,34.726,371.884,34.726z"/>
		</g>
		<g>
			<path fill="#FFFFFF" d="M366.52,25.589c0,0,0.198-1.422,2.526-1.344c2.33,0.077,3.318-1.488,4.329-0.925
				c1.01,0.563,4.805,0.788,6.047,1.284c1.241,0.494,1.97,0.831,2.28,1.918c0.31,1.088,1.115,2.743,1.115,2.743v0.567"/>
			<path fill="#FF900B" d="M383.318,31.333c-0.828,0-1.5-0.671-1.5-1.5v-0.148c-0.359-0.608-1.022-1.802-1.292-2.751
				c-0.081-0.284-0.401-0.449-1.461-0.869l-0.166-0.066c-0.419-0.167-1.575-0.345-2.504-0.487c-1.646-0.253-2.748-0.44-3.479-0.775
				c-0.116,0.048-0.276,0.125-0.404,0.186c-0.725,0.348-1.815,0.881-3.391,0.822c-0.518-0.015-0.786,0.071-0.878,0.125
				c-0.137,0.725-0.773,1.261-1.551,1.218c-0.827-0.042-1.464-0.748-1.421-1.575c0.052-1,0.913-2.863,3.95-2.766
				c0.807,0.026,1.396-0.242,1.991-0.528c0.713-0.342,1.789-0.857,2.955-0.208c0.351,0.177,1.811,0.401,2.683,0.535
				c1.3,0.2,2.424,0.373,3.159,0.666l0.16,0.063c1.284,0.509,2.74,1.087,3.24,2.835c0.182,0.64,0.819,1.786,1.178,2.358
				c0.149,0.239,0.229,0.516,0.229,0.797v0.567C384.818,30.662,384.146,31.333,383.318,31.333z"/>
		</g>
		<g>
			<circle fill="#FFFFFF" cx="393.862" cy="31.876" r="12.308"/>
			<path fill="#FF900B" d="M393.862,45.684c-7.613,0-13.808-6.194-13.808-13.808s6.194-13.808,13.808-13.808
				s13.808,6.194,13.808,13.808S401.475,45.684,393.862,45.684z M393.862,21.068c-5.959,0-10.808,4.848-10.808,10.808
				s4.849,10.808,10.808,10.808s10.808-4.848,10.808-10.808S399.821,21.068,393.862,21.068z"/>
		</g>
		<g>
			<polyline fill="#FFFFFF" points="388.522,30.18 393.702,35.358 408.94,20.122 			"/>
			<path fill="#FF900B" d="M393.702,36.858c-0.384,0-0.768-0.146-1.061-0.439l-5.18-5.179c-0.586-0.585-0.586-1.535,0-2.121
				s1.535-0.586,2.121,0l4.119,4.118l14.178-14.176c0.586-0.586,1.535-0.586,2.121,0s0.586,1.536,0,2.121l-15.238,15.236
				C394.469,36.712,394.086,36.858,393.702,36.858z"/>
		</g>
		<g>
			<polyline fill="#FFFFFF" points="419.861,105.574 409.924,90.402 392.93,97.506 395.936,113.027 			"/>
			<path fill="#FF900B" d="M395.934,114.527c-0.704,0-1.332-0.498-1.471-1.215l-3.006-15.521c-0.135-0.698,0.238-1.395,0.895-1.669
				l16.993-7.104c0.667-0.281,1.438-0.042,1.833,0.562l9.938,15.172c0.454,0.693,0.26,1.623-0.433,2.077s-1.622,0.262-2.077-0.433
				l-9.254-14.129l-14.717,6.151l2.773,14.323c0.157,0.813-0.374,1.601-1.188,1.758
				C396.125,114.519,396.029,114.527,395.934,114.527z"/>
		</g>
		<g>
			<path fill="#FFFFFF" d="M388.652,79.96l-6.995-21.161c0,0,0.517-2.381,3.497-1.818c2.981,0.563,9.709,18.633,9.709,18.633
				s-2.64-6.918-1.242-7.186s3.609-2.189,4.541-1.083s3.202,7.221,3.202,7.221s-3.202-5.532-1.979-5.823s5.008-2.154,6.23,2.154
				s1.712,3.319,1.712,3.319l-1.712-4.774c0,0,3.9,1.455,4.832,3.027s-0.523,17.002-0.523,17.002l-16.993,8.035l-9.868-12.731
				c0,0,0.854-4.037,1.164-4.114C384.537,80.582,388.652,79.96,388.652,79.96z"/>
			<path fill="#FF900B" d="M392.931,99.006c-0.453,0-0.895-0.205-1.187-0.581l-9.868-12.731c-0.271-0.349-0.373-0.798-0.282-1.229
				c0.997-4.716,1.362-5.034,2.271-5.26c0.218-0.055,1.438-0.249,2.806-0.459l-6.438-19.476c-0.085-0.255-0.099-0.526-0.042-0.789
				c0.231-1.067,1.387-3.086,4.099-3.086c0.364,0,0.749,0.038,1.143,0.112c1.882,0.355,4.433,4.227,7.605,11.531
				c0.097-0.036,0.197-0.063,0.301-0.084c0.277-0.053,0.797-0.312,1.255-0.539c0.898-0.448,1.827-0.911,2.789-0.911
				c0.768,0,1.452,0.311,1.927,0.875c0.114,0.136,0.26,0.33,0.464,0.68c0.684-0.211,1.614-0.466,2.604-0.466
				c1.339,0,2.462,0.467,3.307,1.351c0.153,0.007,0.307,0.037,0.455,0.093c0.734,0.273,4.454,1.738,5.598,3.668
				c0.976,1.646,0.364,10.646-0.32,17.907c-0.05,0.527-0.373,0.989-0.852,1.216l-16.993,8.035
				C393.366,98.959,393.147,99.006,392.931,99.006z M384.677,84.409l8.7,11.226l15.131-7.154c0.593-6.551,0.979-13.969,0.608-15.308
				c-0.148-0.21-0.444-0.459-0.828-0.72l0.45,1.257c0.138,0.383,0.113,0.806-0.067,1.171c-0.28,0.566-0.868,0.933-1.498,0.933
				c-1.456,0-2.153-1.518-3.002-4.508c-0.448-1.58-1.161-1.713-1.794-1.713c-0.421,0-0.877,0.095-1.295,0.209
				c0.85,1.988,1.646,4.131,1.688,4.241c0.271,0.73-0.063,1.548-0.768,1.88c-0.702,0.33-1.546,0.067-1.937-0.606
				c-1.094-1.889-2.333-4.338-2.446-5.902c-0.207-0.431-0.354-0.701-0.451-0.866c-0.34,0.104-0.884,0.376-1.237,0.552
				c-0.396,0.197-0.801,0.399-1.208,0.557c0.096,0.938,0.611,2.92,1.492,5.292l0.053,0.142c0.289,0.774-0.104,1.636-0.876,1.927
				c-0.775,0.288-1.43-0.097-1.725-0.868l0.15-0.147c0-0.001,0-0.002,0-0.002v-0.005c-4-9.055-7.377-16.724-8.809-17.553
				c-0.858-0.146-1.451,0.113-1.652,0.408l6.771,20.64c0.139,0.42,0.06,0.879-0.171,1.256c-0.232,0.377-0.631,0.632-1.067,0.698
				c-1.324,0.2-2.763,0.421-3.605,0.557C385.114,82.583,384.879,83.511,384.677,84.409z"/>
		</g>
		<g>
			<line fill="#FFFFFF" x1="394.083" y1="102.506" x2="412.801" y2="95.464"/>
			<path fill="#FF900B" d="M394.083,104.006c-0.606,0-1.178-0.37-1.404-0.972c-0.291-0.775,0.101-1.641,0.876-1.933l18.718-7.042
				c0.772-0.291,1.641,0.101,1.933,0.876c0.291,0.775-0.101,1.641-0.876,1.933l-18.718,7.042
				C394.437,103.976,394.259,104.006,394.083,104.006z"/>
		</g>
		<g>
			<line fill="#FFFFFF" x1="388.652" y1="79.96" x2="390.883" y2="86.56"/>
			<path fill="#FF900B" d="M390.883,88.06c-0.626,0-1.21-0.395-1.421-1.02l-2.23-6.6c-0.266-0.785,0.156-1.637,0.94-1.901
				s1.637,0.156,1.901,0.94l2.23,6.6c0.266,0.785-0.156,1.637-0.94,1.901C391.204,88.034,391.042,88.06,390.883,88.06z"/>
		</g>
	</g>
</g>
<g>
	<defs>
		<rect id="SVGID_3_" x="13.006" y="1.564" width="144.5" height="112.666"/>
	</defs>
	<clipPath id="SVGID_4_">
		<use xlink:href="#SVGID_3_"  overflow="visible"/>
	</clipPath>
	<g clip-path="url(#SVGID_4_)">
		<g>
			<path fill="#FFFFFF" d="M149.818,92.653c0,6.175-5.005,11.18-11.179,11.18H32.997c-6.174,0-11.179-5.005-11.179-11.18V20.013
				c0-6.174,5.005-11.18,11.179-11.18h105.643c6.174,0,11.179,5.005,11.179,11.18V92.653z"/>
			<path fill="#FF900B" d="M139.139,104.833H33.497c-6.991,0-12.679-5.688-12.679-12.68V19.513c0-6.992,5.688-12.68,12.679-12.68
				h105.643c6.991,0,12.679,5.688,12.679,12.68v72.641C151.818,99.145,146.131,104.833,139.139,104.833z M33.497,9.833
				c-5.337,0-9.679,4.342-9.679,9.68v72.641c0,5.338,4.342,9.68,9.679,9.68h105.643c5.337,0,9.679-4.342,9.679-9.68V19.513
				c0-5.337-4.342-9.68-9.679-9.68H33.497z"/>
		</g>
		<g>
			<path fill="#FFFFFF" d="M141.818,84.836c0,5.961-2.113,11.997-6.175,11.997H37.851c-4.063,0-8.033-6.036-8.033-11.997V26.288
				c0-5.961,3.971-10.455,8.033-10.455h97.792c4.062,0,6.175,4.494,6.175,10.455V84.836z"/>
			<path fill="#FF900B" d="M135.643,97.833H37.851c-4.813,0-9.033-6.073-9.033-12.997V26.288c0-6.868,4.053-12.455,9.033-12.455
				h97.792c4.736,0,8.175,5.238,8.175,12.455v58.548C143.818,91.137,140.953,97.833,135.643,97.833z M37.851,16.833
				c-3.214,0-6.033,4.418-6.033,9.455v58.548c0,5.139,2.932,9.997,6.033,9.997h97.792c2.854,0,5.175-4.484,5.175-9.997V26.288
				c0-5.39-2.225-9.455-5.175-9.455H37.851z"/>
		</g>
		<g>
			<line fill="#FFFFFF" x1="59.823" y1="65.32" x2="98.823" y2="65.346"/>
			<path fill="#FF900B" d="M98.823,66.846L98.823,66.846L59.822,66.82c-0.829-0.001-1.5-0.673-1.499-1.501s0.672-1.499,1.5-1.499
				c0,0,0,0,0.001,0l39,0.025c0.828,0.001,1.5,0.673,1.499,1.501S99.651,66.846,98.823,66.846z"/>
		</g>
		<g>
			<line fill="#FFFFFF" x1="51.819" y1="72.315" x2="89.819" y2="72.34"/>
			<path fill="#FF900B" d="M89.819,73.84L89.819,73.84l-38.001-0.024c-0.829-0.001-1.5-0.673-1.499-1.501s0.672-1.499,1.5-1.499
				c0,0,0,0,0.001,0l38,0.024c0.828,0.001,1.5,0.673,1.499,1.501S90.647,73.84,89.819,73.84z"/>
		</g>
		<g>
			<line fill="#FFFFFF" x1="59.813" y1="81.32" x2="83.813" y2="81.336"/>
			<path fill="#FF900B" d="M83.813,82.836C83.813,82.836,83.813,82.836,83.813,82.836L59.812,82.82
				c-0.829-0.001-1.5-0.673-1.499-1.501s0.672-1.499,1.5-1.499c0,0,0,0,0.001,0l24,0.016c0.828,0.001,1.5,0.673,1.499,1.501
				S84.641,82.836,83.813,82.836z"/>
		</g>
		<g>
			<path fill="#FFFFFF" d="M107.813,81.352L82.25,81.335c0,0-1.156-23.983,15.867-27.242c-18.261-0.012-20.787,0.239-20.787,0.239
				l0.003-5l40,0.025l-0.003,4l-5.135-0.003c0,0-10.703,5.114-12.351,10.281c-0.593,1.859-1.356,6.71,3.713,10.714
				c8.229,0.005,32.465,0.021,32.465,0.021l4.78-0.329"/>
			<path fill="#FF900B" d="M107.813,82.852L107.813,82.852l-25.564-0.017c-0.8-0.001-1.459-0.629-1.497-1.428
				c-0.011-0.214-0.725-18.165,9.986-25.803c-11.362,0.047-13.239,0.219-13.259,0.221c-0.427,0.038-0.842-0.097-1.156-0.381
				c-0.314-0.285-0.493-0.689-0.493-1.113l0.003-5c0-0.398,0.159-0.779,0.44-1.061c0.281-0.281,0.663-0.438,1.06-0.438
				c0,0,0,0,0.001,0l40,0.025c0.397,0,0.779,0.159,1.061,0.44c0.281,0.282,0.438,0.663,0.438,1.061l-0.003,4
				c-0.001,0.828-0.672,1.499-1.5,1.499h-0.001l-4.789-0.003c-3.018,1.492-10.119,5.638-11.267,9.237
				c-0.485,1.522-1.148,5.356,2.821,8.758l31.877,0.021l4.729-0.325c0.801-0.061,1.543,0.566,1.599,1.393
				c0.058,0.827-0.566,1.543-1.394,1.6l-4.779,0.329c-0.035,0.003-0.069,0.004-0.104,0.004h-0.001l-32.465-0.021
				c-0.337,0-0.664-0.114-0.929-0.323c-6.04-4.771-4.751-10.656-4.212-12.347c1.792-5.622,11.978-10.626,13.133-11.178
				c0.202-0.096,0.423-0.146,0.646-0.146h-0.006l3.628,0.002v-1l-37-0.023v1.928c2-0.075,7.581-0.172,19.293-0.168
				c0.773,0,1.424,0.589,1.496,1.359c0.073,0.77-0.45,1.469-1.21,1.614c-13.236,2.534-14.56,19.242-14.655,24.27l24.072,0.016
				c0.828,0.001,1.5,0.673,1.499,1.501S108.641,82.852,107.813,82.852z"/>
		</g>
		<g>
			<circle fill="#FFFFFF" cx="96.338" cy="85.568" r="9.582"/>
			<path fill="#FF900B" d="M96.339,96.833h-0.008c-6.11,0-11.078-5.069-11.075-11.18c0.005-6.107,4.977-11.122,11.082-11.122
				c2.968,0.002,5.75,1.134,7.842,3.228c2.092,2.096,3.242,4.96,3.24,7.92C107.417,91.785,102.445,96.833,96.339,96.833z
				 M96.343,77.485c-4.458,0-8.084,3.624-8.087,8.078c-0.003,4.456,3.861,8.083,8.316,8.086l0.246,1.5v-1.5
				c4,0,7.838-3.623,7.842-8.076c0.002-2.159-0.958-4.189-2.483-5.717S98.502,77.487,96.343,77.485z"/>
		</g>
		<g>
			<circle fill="#FFFFFF" cx="96.564" cy="85.342" r="3.72"/>
			<path fill="#FF900B" d="M96.564,90.833c-0.001,0-0.005,0-0.005,0c-2.877,0-5.217-2.48-5.216-5.359
				c0.003-2.875,2.345-5.283,5.22-5.283c2.882,0.003,5.224,2.447,5.221,5.324C101.783,88.391,99.441,90.833,96.564,90.833z
				 M96.564,83.123c-1.223,0-2.22,0.995-2.221,2.218c-0.001,1.225,1.121,2.221,2.345,2.222l0.13,1.5v-1.5
				c1,0,2.092-0.995,2.093-2.219S97.789,83.124,96.564,83.123z"/>
		</g>
		<g>
			<line fill="#FFFFFF" x1="109.813" y1="81.353" x2="137.813" y2="81.37"/>
			<path fill="#FF900B" d="M137.813,82.87L137.813,82.87l-28.001-0.018c-0.828-0.001-1.5-0.673-1.499-1.501s0.672-1.499,1.5-1.499
				h0.001l28,0.018c0.828,0.001,1.5,0.673,1.499,1.501S138.641,82.87,137.813,82.87z"/>
		</g>
		<g>
			<rect x="81.34" y="28.345" fill="#FFFFFF" width="33" height="21"/>
			<path fill="#FF900B" d="M114.334,50.855L114.334,50.855l-33.001-0.021c-0.398,0-0.779-0.159-1.061-0.44
				c-0.281-0.282-0.439-0.663-0.438-1.061l0.014-21c0-0.828,0.672-1.499,1.5-1.499c0,0,0,0,0.001,0l33,0.021
				c0.828,0,1.5,0.672,1.499,1.501l-0.013,21c0,0.398-0.158,0.779-0.44,1.061C115.112,50.698,114.731,50.855,114.334,50.855z
				 M82.834,47.835l30,0.019l0.011-18l-30-0.019L82.834,47.835z"/>
		</g>
		<g>
			<rect x="76.348" y="25.344" fill="#FFFFFF" width="40" height="3"/>
			<path fill="#FF900B" d="M116.346,29.856L116.346,29.856l-40-0.025c-0.828,0-1.5-0.672-1.499-1.501l0.001-3
				c0-0.397,0.159-0.779,0.44-1.06c0.281-0.281,0.663-0.439,1.06-0.439c0,0,0,0,0.001,0l40,0.025c0.397,0,0.779,0.159,1.061,0.44
				c0.281,0.282,0.438,0.663,0.438,1.061l-0.002,3C117.845,29.186,117.175,29.856,116.346,29.856z M111.45,26.854l3.397,0.002
				L111.45,26.854z"/>
		</g>
		<g>
			<circle fill="#FFFFFF" cx="45.098" cy="36.813" r="12.308"/>
			<path fill="#FF900B" d="M45.098,50.833c0,0-0.008,0-0.008,0c-7.614,0-13.804-6.31-13.799-13.922
				c0.004-7.609,6.198-13.853,13.807-13.853c7.622,0.004,13.813,6.283,13.808,13.897C58.901,44.563,52.707,50.833,45.098,50.833z
				 M45.105,26.004c-5.963,0-10.811,4.846-10.814,10.802c-0.004,5.958,4.701,10.81,10.661,10.813l-0.134,1.5v-1.5
				c6,0,10.944-4.845,10.948-10.8C55.769,30.859,51.064,26.007,45.105,26.004z"/>
		</g>
		<g>
			<polyline fill="#FFFFFF" points="39.76,35.112 44.936,40.294 60.184,25.067 			"/>
			<path fill="#FF900B" d="M44.936,41.794c-0.384,0-0.769-0.146-1.062-0.44l-5.176-5.183c-0.585-0.586-0.584-1.536,0.001-2.122
				c0.586-0.585,1.536-0.585,2.122,0.001l4.116,4.122l14.187-14.168c0.586-0.586,1.536-0.585,2.122,0.001
				c0.585,0.586,0.584,1.536-0.001,2.122L45.996,41.356C45.703,41.648,45.32,41.794,44.936,41.794z"/>
		</g>
		<g>
			<g>
				<polyline fill="#FFFFFF" points="19.864,118.793 26.765,99.898 46.91,103.279 47.584,120.802 				"/>
				<path fill="#FF900B" d="M47.966,122.421c-0.103,0.023-0.208,0.038-0.318,0.043c-0.917,0.035-1.69-0.68-1.726-1.599l-0.622-16.17
					l-17.447-2.927l-6.427,17.595c-0.315,0.863-1.269,1.31-2.134,0.992c-0.863-0.314-1.307-1.27-0.992-2.132l6.901-18.895
					c0.277-0.753,1.049-1.2,1.839-1.071l20.146,3.381c0.777,0.13,1.356,0.787,1.387,1.576l0.674,17.522
					C49.278,121.547,48.725,122.242,47.966,122.421z"/>
			</g>
			<g>
				<path fill="#FFFFFF" d="M47.101,83.248l2.21-24.619c0,0-1.158-2.442-4.236-1.081c-3.078,1.361-5.779,22.574-5.779,22.574
					s1.103-8.138-0.475-8.073c-1.577,0.063-4.45-1.453-5.177-0.023c-0.727,1.431-1.636,8.605-1.636,8.605s2.062-6.782,0.668-6.788
					c-1.394-0.004-5.953-1.063-6.185,3.9c-0.232,4.963-1.011,4.018-1.011,4.018l0.643-5.59c0,0-3.846,2.559-4.455,4.491
					c-0.609,1.934,4.86,18.229,4.86,18.229l20.381,4.388l7.443-16.243c0,0-1.942-4.145-2.297-4.15
					C51.702,82.881,47.101,83.248,47.101,83.248z"/>
				<path fill="#FF900B" d="M47.29,104.898c-0.234,0.055-0.482,0.061-0.729,0.007l-20.381-4.387c-0.574-0.124-1.04-0.54-1.228-1.098
					c-2.573-7.668-5.507-17.233-4.87-19.258c0.748-2.374,4.397-4.895,5.121-5.376c0.147-0.098,0.305-0.169,0.469-0.216
					c0.688-1.167,1.782-1.954,3.226-2.293c1.071-0.251,2.143-0.209,2.934-0.155c0.132-0.43,0.241-0.676,0.33-0.852
					c0.37-0.728,1.03-1.235,1.858-1.431c1.039-0.243,2.159,0.022,3.243,0.279c0.552,0.13,1.179,0.278,1.492,0.267
					c0.116-0.006,0.232-0.001,0.346,0.013c1.582-8.691,3.358-13.513,5.301-14.374c0.406-0.18,0.811-0.315,1.202-0.408
					c2.932-0.688,4.69,1.203,5.209,2.298c0.127,0.268,0.181,0.565,0.154,0.861l-2.033,22.659c1.53-0.118,2.895-0.216,3.146-0.213
					c1.039,0.016,1.513,0.269,3.781,5.108c0.207,0.442,0.209,0.953,0.005,1.398l-7.443,16.243
					C48.203,104.452,47.778,104.785,47.29,104.898z M27.808,97.467l18.147,3.904l6.562-14.322c-0.444-0.92-0.926-1.864-1.257-2.451
					c-0.933,0.066-2.541,0.189-4.026,0.31c-0.489,0.038-0.97-0.14-1.315-0.489c-0.345-0.349-0.519-0.831-0.475-1.318l2.155-24.021
					c-0.281-0.253-0.881-0.415-1.776-0.042c-1.338,1.259-3.462,10.491-4.857,21.139l-0.022,0.17
					c-0.123,0.909-0.958,1.545-1.866,1.427c-0.908-0.119-1.548-0.95-1.433-1.859l0.021-0.17c0.353-2.779,0.408-5.051,0.274-6.089
					c-0.479-0.067-0.967-0.183-1.444-0.296c-0.427-0.101-1.082-0.256-1.476-0.283c-0.063,0.203-0.153,0.53-0.269,1.049
					c0.272,1.718-0.447,4.676-1.151,6.992c-0.251,0.827-1.092,1.327-1.939,1.144c-0.846-0.182-1.412-0.979-1.303-1.837
					c0.017-0.13,0.337-2.644,0.752-5.005c-0.48-0.019-0.998-0.006-1.453,0.101c-0.683,0.16-1.418,0.484-1.503,2.304
					c-0.161,3.441-0.53,5.257-2.103,5.627c-0.681,0.159-1.408-0.089-1.855-0.631c-0.287-0.348-0.419-0.799-0.368-1.247l0.169-1.471
					c-0.35,0.379-0.607,0.723-0.715,0.987C23.223,82.628,25.512,90.541,27.808,97.467z"/>
			</g>
			<g>
				<line fill="#FFFFFF" x1="46.928" y1="108.969" x2="24.936" y2="106.091"/>
				<path fill="#FF900B" d="M47.308,110.589c-0.19,0.045-0.391,0.057-0.596,0.029l-21.992-2.877
					c-0.912-0.119-1.553-0.955-1.435-1.865c0.12-0.912,0.958-1.557,1.866-1.434l21.992,2.877c0.912,0.119,1.553,0.954,1.434,1.865
					C48.485,109.891,47.963,110.436,47.308,110.589z"/>
			</g>
			<g>
				<line fill="#FFFFFF" x1="47.101" y1="83.248" x2="46.359" y2="90.939"/>
				<path fill="#FF900B" d="M46.739,92.559c-0.173,0.041-0.354,0.055-0.54,0.036c-0.915-0.088-1.584-0.9-1.497-1.815l0.743-7.692
					c0.088-0.913,0.9-1.584,1.815-1.495c0.915,0.088,1.585,0.901,1.497,1.816L48.015,91.1C47.945,91.828,47.414,92.4,46.739,92.559z
					"/>
			</g>
		</g>
	</g>
</g>
</svg>
