<?xml version="1.0" encoding="utf-8"?>
<!-- Generator: Adobe Illustrator 16.0.0, SVG Export Plug-In . SVG Version: 6.00 Build 0)  -->
<!DOCTYPE svg PUBLIC "-//W3C//DTD SVG 1.1//EN" "http://www.w3.org/Graphics/SVG/1.1/DTD/svg11.dtd">
<svg version="1.1" id="Capa_1" xmlns="http://www.w3.org/2000/svg" xmlns:xlink="http://www.w3.org/1999/xlink" x="0px" y="0px"
	 width="166.636px" height="112.666px" viewBox="0 0 166.636 112.666" enable-background="new 0 0 166.636 112.666"
	 xml:space="preserve">
<g>
	<path fill="#FF900B" d="M142.5,112.666h-113c-0.828,0-1.5-0.672-1.5-1.5v-78.5c0-0.828,0.672-1.5,1.5-1.5s1.5,0.672,1.5,1.5v77h110
		v-77c0-0.828,0.672-1.5,1.5-1.5s1.5,0.672,1.5,1.5v78.5C144,111.994,143.328,112.666,142.5,112.666z"/>
	<path fill="#FF900B" d="M38.469,43.304c-1.115,0-2.381-0.225-3.443-0.996c-0.925-0.67-2.027-2.02-2.027-4.642
		c-0.059-1.472-0.555-2.589-1.361-3.006c-0.564-0.294-1.29-0.234-1.894,0.156c-0.796,0.517-1.214,1.469-1.147,2.611
		c0.006,0.096,0.002,0.191-0.01,0.286c-0.014,0.099-0.027,0.166-0.042,0.225c-0.181,2.238-1.255,3.442-2.135,4.061
		c-2.56,1.8-6.288,0.789-6.705,0.668c-0.768-0.224-1.225-1.009-1.041-1.787l7.607-32.061c0.161-0.676,0.765-1.153,1.46-1.153H87
		c0.828,0,1.5,0.672,1.5,1.5s-0.672,1.5-1.5,1.5H28.916L21.95,40.023c0.922,0.078,2.03,0.02,2.738-0.481
		c0.194-0.138,0.786-0.557,0.872-1.938c0.004-0.063,0.012-0.126,0.023-0.188c0.002-0.01,0.005-0.022,0.008-0.037
		c-0.056-2.126,0.875-4.014,2.52-5.08c1.503-0.976,3.385-1.093,4.906-0.304c1.053,0.546,2.839,2,2.979,5.611
		c0.001,1.146,0.265,1.889,0.785,2.269c0.993,0.729,2.947,0.337,3.553,0.145c0.786-0.246,1.632,0.182,1.886,0.968
		s-0.173,1.629-0.959,1.886C41.047,42.944,39.878,43.304,38.469,43.304z"/>
	<path fill="#FF900B" d="M54.015,42.82c-1.04,0-2.174-0.21-3.142-0.881c-0.925-0.642-2.027-1.956-2.027-4.574
		c-0.058-1.468-0.526-2.533-1.317-2.943c-0.559-0.291-1.284-0.223-1.895,0.173c-0.827,0.537-1.263,1.515-1.195,2.683
		c0.006,0.095,0.003,0.19-0.01,0.284c-0.012,0.087-0.025,0.173-0.041,0.255c-0.17,2.268-1.254,3.427-2.142,4.001
		c-2.603,1.685-6.39,0.333-6.813,0.175c-0.775-0.292-1.167-1.157-0.876-1.933c0.292-0.775,1.157-1.165,1.93-0.877
		c0.713,0.265,3.003,0.851,4.133,0.114c0.174-0.113,0.7-0.456,0.781-1.768c0.004-0.068,0.014-0.137,0.027-0.205
		c0.003-0.015,0.006-0.029,0.008-0.044c-0.073-2.172,0.878-4.107,2.566-5.202c1.513-0.982,3.395-1.104,4.907-0.319
		c1.037,0.537,2.797,1.973,2.936,5.549c0.001,1.118,0.249,1.827,0.738,2.167c1.005,0.698,3.055,0.152,3.548-0.033
		c0.774-0.287,1.641,0.104,1.931,0.88s-0.104,1.64-0.88,1.931C56.947,42.34,55.589,42.82,54.015,42.82z"/>
	<path fill="#FF900B" d="M68.921,42.82c-1.04,0-2.174-0.21-3.142-0.881c-0.925-0.642-2.027-1.956-2.027-4.574
		c-0.059-1.468-0.526-2.533-1.318-2.943c-0.556-0.291-1.283-0.223-1.895,0.173c-0.827,0.537-1.263,1.515-1.194,2.683
		c0.006,0.095,0.003,0.189-0.01,0.284c-0.012,0.087-0.025,0.173-0.041,0.256c-0.17,2.267-1.255,3.426-2.142,4
		c-2.603,1.685-6.391,0.333-6.813,0.174c-0.775-0.291-1.167-1.156-0.875-1.932c0.29-0.775,1.155-1.165,1.929-0.877
		c0.712,0.265,2.998,0.852,4.133,0.114c0.173-0.113,0.7-0.456,0.781-1.768c0.004-0.068,0.014-0.138,0.027-0.205
		c0.003-0.015,0.006-0.029,0.008-0.044c-0.073-2.172,0.877-4.107,2.564-5.202c1.515-0.982,3.396-1.104,4.908-0.32
		c1.037,0.538,2.798,1.974,2.937,5.549c0.001,1.119,0.249,1.828,0.738,2.168c1.005,0.698,3.055,0.152,3.548-0.033
		c0.774-0.287,1.641,0.104,1.931,0.88s-0.104,1.64-0.88,1.931C71.854,42.34,70.495,42.82,68.921,42.82z"/>
	<path fill="#FF900B" d="M84.759,42.82c-1.04,0-2.174-0.21-3.142-0.881c-0.925-0.642-2.027-1.956-2.027-4.574
		c-0.059-1.468-0.526-2.533-1.317-2.943c-0.559-0.291-1.285-0.223-1.896,0.173c-0.827,0.537-1.263,1.515-1.195,2.683
		c0.006,0.095,0.003,0.19-0.01,0.284c-0.012,0.085-0.025,0.168-0.04,0.249c-0.168,2.271-1.254,3.432-2.142,4.007
		c-2.603,1.685-6.391,0.333-6.814,0.175C65.4,41.7,65.009,40.835,65.3,40.06s1.155-1.165,1.93-0.877
		c0.713,0.265,3.001,0.851,4.134,0.114c0.173-0.113,0.7-0.456,0.781-1.768c0.004-0.063,0.012-0.126,0.023-0.188l0.011-0.064
		c-0.072-2.171,0.879-4.105,2.565-5.199c1.514-0.982,3.395-1.104,4.908-0.32c1.037,0.538,2.798,1.974,2.937,5.549
		c0.001,1.119,0.249,1.828,0.738,2.168c1.005,0.698,3.055,0.152,3.548-0.033c0.775-0.287,1.641,0.104,1.931,0.88
		s-0.104,1.64-0.88,1.931C87.691,42.34,86.333,42.82,84.759,42.82z"/>
	<path fill="#FF900B" d="M101.527,42.82c-1.04,0-2.174-0.21-3.142-0.881c-0.925-0.642-2.027-1.956-2.027-4.574
		c-0.058-1.468-0.526-2.533-1.317-2.943c-0.559-0.291-1.284-0.223-1.895,0.173c-0.827,0.537-1.263,1.515-1.195,2.683
		c0.006,0.095,0.003,0.19-0.01,0.284c-0.012,0.087-0.025,0.173-0.041,0.255c-0.17,2.268-1.254,3.427-2.142,4.001
		c-2.603,1.685-6.39,0.333-6.813,0.175c-0.775-0.292-1.167-1.157-0.876-1.933c0.292-0.775,1.156-1.165,1.93-0.877
		c0.713,0.265,3.003,0.851,4.133,0.114c0.174-0.113,0.7-0.456,0.781-1.768c0.004-0.068,0.014-0.137,0.027-0.205
		c0.003-0.015,0.006-0.029,0.008-0.044c-0.073-2.172,0.878-4.107,2.566-5.202c1.513-0.982,3.395-1.104,4.907-0.319
		c1.037,0.537,2.797,1.973,2.936,5.549c0.001,1.118,0.249,1.827,0.738,2.167c1.006,0.698,3.056,0.152,3.548-0.033
		c0.774-0.287,1.641,0.104,1.931,0.88s-0.104,1.64-0.88,1.931C104.46,42.34,103.102,42.82,101.527,42.82z"/>
	<path fill="#FF900B" d="M117.365,42.82c-1.04,0-2.174-0.21-3.142-0.881c-0.925-0.642-2.027-1.956-2.027-4.574
		c-0.059-1.468-0.526-2.533-1.318-2.943c-0.557-0.291-1.282-0.223-1.895,0.173c-0.827,0.537-1.263,1.515-1.194,2.683
		c0.006,0.101,0.002,0.201-0.012,0.3c-0.012,0.081-0.025,0.161-0.039,0.238c-0.17,2.269-1.255,3.428-2.142,4.002
		c-2.603,1.685-6.391,0.333-6.814,0.175c-0.775-0.292-1.167-1.157-0.876-1.933c0.292-0.775,1.156-1.165,1.93-0.877
		c0.712,0.265,3.001,0.851,4.134,0.114c0.173-0.113,0.7-0.456,0.781-1.768c0.004-0.068,0.014-0.138,0.027-0.205
		c0.003-0.015,0.006-0.029,0.008-0.045c-0.073-2.171,0.878-4.106,2.564-5.201c1.515-0.982,3.395-1.104,4.908-0.32
		c1.037,0.538,2.798,1.974,2.937,5.549c0.001,1.119,0.249,1.828,0.738,2.168c1.005,0.698,3.055,0.152,3.548-0.033
		c0.775-0.287,1.641,0.104,1.931,0.88s-0.104,1.64-0.88,1.931C120.298,42.34,118.939,42.82,117.365,42.82z"/>
	<path fill="#FF900B" d="M134.134,42.82c-1.039,0-2.173-0.21-3.141-0.881c-0.925-0.642-2.027-1.956-2.027-4.574
		c-0.059-1.468-0.526-2.533-1.317-2.943c-0.559-0.291-1.285-0.223-1.896,0.173c-0.827,0.537-1.263,1.515-1.195,2.683
		c0.006,0.095,0.003,0.19-0.01,0.284c-0.012,0.085-0.025,0.168-0.04,0.249c-0.168,2.271-1.254,3.432-2.142,4.007
		c-2.603,1.685-6.39,0.333-6.814,0.175c-0.775-0.292-1.167-1.157-0.876-1.933s1.157-1.165,1.93-0.877
		c0.713,0.265,3.001,0.851,4.134,0.114c0.173-0.113,0.7-0.456,0.781-1.768c0.004-0.063,0.012-0.126,0.023-0.188l0.011-0.064
		c-0.072-2.171,0.879-4.105,2.565-5.199c1.514-0.982,3.396-1.104,4.908-0.32c1.037,0.538,2.798,1.974,2.937,5.549
		c0.001,1.116,0.248,1.825,0.734,2.165c0.975,0.681,2.942,0.191,3.555-0.031c0.78-0.283,1.64,0.111,1.926,0.886
		c0.287,0.775-0.104,1.636-0.879,1.926C137.066,42.339,135.708,42.82,134.134,42.82z"/>
	<path fill="#FF900B" d="M149.04,42.82c-1.04,0-2.174-0.21-3.142-0.881c-0.925-0.642-2.027-1.956-2.027-4.574
		c-0.058-1.468-0.526-2.533-1.317-2.943c-0.559-0.291-1.284-0.223-1.896,0.173c-0.827,0.537-1.263,1.515-1.194,2.683
		c0.006,0.095,0.003,0.189-0.01,0.284c-0.012,0.087-0.025,0.173-0.041,0.255c-0.17,2.268-1.254,3.427-2.142,4.001
		c-2.602,1.685-6.39,0.333-6.813,0.175c-0.775-0.292-1.167-1.157-0.876-1.933c0.292-0.775,1.156-1.165,1.93-0.877
		c0.712,0.265,3.002,0.851,4.133,0.114c0.174-0.113,0.7-0.456,0.781-1.768c0.004-0.068,0.014-0.137,0.027-0.205
		c0.003-0.015,0.006-0.029,0.008-0.044c-0.073-2.172,0.878-4.107,2.565-5.202c1.514-0.982,3.396-1.104,4.908-0.32
		c1.037,0.538,2.797,1.974,2.936,5.55c0.001,1.118,0.249,1.827,0.738,2.167c1.005,0.698,3.055,0.152,3.548-0.033
		c0.774-0.287,1.641,0.104,1.931,0.88s-0.104,1.64-0.88,1.931C151.973,42.34,150.614,42.82,149.04,42.82z"/>
	<path fill="#FF900B" d="M134.771,43.304c-1.401,0-2.563-0.36-2.776-0.431c-0.787-0.26-1.214-1.108-0.955-1.895
		c0.259-0.785,1.103-1.215,1.892-0.956c0.598,0.193,2.512,0.575,3.489-0.137c0.52-0.379,0.783-1.126,0.783-2.22
		c0.143-3.674,1.926-5.128,2.977-5.672c1.516-0.784,3.385-0.669,4.884,0.302c1.66,1.077,2.593,2.995,2.515,5.152
		c0.01,0.054,0.015,0.097,0.019,0.156c0.086,1.386,0.681,1.804,0.877,1.941c0.712,0.501,1.809,0.557,2.728,0.483l-6.976-29.363H87
		c-0.828,0-1.5-0.672-1.5-1.5s0.672-1.5,1.5-1.5h58.411c0.695,0,1.299,0.478,1.459,1.153l7.616,32.061
		c0.186,0.777-0.272,1.563-1.039,1.787c-0.416,0.122-4.138,1.134-6.699-0.667c-0.887-0.623-1.971-1.841-2.139-4.114
		c-0.009-0.049-0.013-0.085-0.019-0.132c-0.01-0.087-0.021-0.239-0.015-0.326c0.066-1.146-0.351-2.1-1.146-2.615
		c-0.604-0.391-1.304-0.448-1.87-0.155c-0.804,0.417-1.299,1.534-1.358,3.067c0.001,2.574-1.103,3.926-2.029,4.595
		C137.121,43.081,135.871,43.304,134.771,43.304z"/>
	<path fill="#FF900B" d="M78.5,111.166c-0.828,0-1.5-0.672-1.5-1.5V89.612c0.083-2.742,2.087-7.843,9.083-7.843
		c0.828,0,1.5,0.672,1.5,1.5s-0.671,1.5-1.499,1.5c-5.699,0-6.084,4.397-6.084,4.899v19.997C80,110.494,79.328,111.166,78.5,111.166
		z"/>
	<path fill="#FF900B" d="M92.5,111.166c-0.828,0-1.5-0.672-1.5-1.5V89.612c-0.021-0.445-0.385-4.843-6.083-4.843
		c-0.828,0-1.5-0.672-1.5-1.5s0.673-1.5,1.501-1.5c6.996,0,9.082,5.101,9.082,7.797v20.1C94,110.494,93.328,111.166,92.5,111.166z"
		/>
	<path fill="#FF900B" d="M61.5,71.666h-20c-0.828,0-1.5-0.672-1.5-1.5v-18c0-0.828,0.672-1.5,1.5-1.5h20c0.828,0,1.5,0.672,1.5,1.5
		v18C63,70.994,62.328,71.666,61.5,71.666z M43,68.666h17v-15H43V68.666z"/>
	<path fill="#FF900B" d="M126.5,71.666h-20c-0.828,0-1.5-0.672-1.5-1.5v-18c0-0.828,0.672-1.5,1.5-1.5h20c0.828,0,1.5,0.672,1.5,1.5
		v18C128,70.994,127.328,71.666,126.5,71.666z M108,68.666h17v-15h-17V68.666z"/>
	<path fill="#FF900B" d="M126.5,98.666h-20c-0.828,0-1.5-0.672-1.5-1.5v-18c0-0.828,0.672-1.5,1.5-1.5h20c0.828,0,1.5,0.672,1.5,1.5
		v18C128,97.994,127.328,98.666,126.5,98.666z M108,95.666h17v-15h-17V95.666z"/>
	<path fill="#FF900B" d="M61.5,98.666h-20c-0.828,0-1.5-0.672-1.5-1.5v-18c0-0.828,0.672-1.5,1.5-1.5h20c0.828,0,1.5,0.672,1.5,1.5
		v18C63,97.994,62.328,98.666,61.5,98.666z M43,95.666h17v-15H43V95.666z"/>
	<path fill="#FF900B" d="M93.5,71.666h-19c-0.828,0-1.5-0.672-1.5-1.5v-18c0-0.828,0.672-1.5,1.5-1.5h19c0.828,0,1.5,0.672,1.5,1.5
		v18C95,70.994,94.328,71.666,93.5,71.666z M76,68.666h16v-15H76V68.666z"/>
</g>
<g>
	<circle fill="#FFFFFF" cx="148.058" cy="71.882" r="12.308"/>
	<path fill="#FF900B" d="M148.058,85.689c-7.613,0-13.808-6.194-13.808-13.808s6.194-13.808,13.808-13.808
		s13.808,6.194,13.808,13.808S155.671,85.689,148.058,85.689z M148.058,61.074c-5.959,0-10.808,4.849-10.808,10.808
		s4.849,10.808,10.808,10.808s10.808-4.849,10.808-10.808S154.017,61.074,148.058,61.074z"/>
</g>
<g>
	<polyline fill="#FFFFFF" points="142.718,70.186 147.897,75.364 163.136,60.127 	"/>
	<path fill="#FF900B" d="M147.897,76.864c-0.384,0-0.768-0.146-1.061-0.439l-5.18-5.179c-0.586-0.586-0.586-1.535,0-2.121
		s1.535-0.586,2.121,0l4.119,4.118l14.178-14.177c0.586-0.586,1.535-0.586,2.121,0s0.586,1.535,0,2.121l-15.238,15.237
		C148.665,76.718,148.281,76.864,147.897,76.864z"/>
</g>
</svg>
