<?xml version="1.0" encoding="utf-8"?>
<!-- Generator: Adobe Illustrator 16.0.0, SVG Export Plug-In . SVG Version: 6.00 Build 0)  -->
<!DOCTYPE svg PUBLIC "-//W3C//DTD SVG 1.1//EN" "http://www.w3.org/Graphics/SVG/1.1/DTD/svg11.dtd">
<svg version="1.1" id="Capa_1" xmlns="http://www.w3.org/2000/svg" xmlns:xlink="http://www.w3.org/1999/xlink" x="0px" y="0px"
	 width="166.637px" height="112.666px" viewBox="0 0 166.637 112.666" enable-background="new 0 0 166.637 112.666"
	 xml:space="preserve">
<g>
	<g>
		<path fill="#FF900B" d="M90.138,91.833H78.498c-6.991,0-12.68-5.688-12.68-12.68V50.513c0-6.991,5.688-12.68,12.68-12.68h11.641
			c6.991,0,12.68,5.688,12.68,12.68v28.641C102.818,86.145,97.13,91.833,90.138,91.833z M78.498,40.833
			c-5.337,0-9.68,4.343-9.68,9.68v28.641c0,5.337,4.343,9.68,9.68,9.68h11.641c5.337,0,9.68-4.343,9.68-9.68V50.513
			c0-5.337-4.343-9.68-9.68-9.68H78.498z"/>
		<path fill="#FF900B" d="M89.854,78.863c-0.575,0-1.172-0.008-1.785-0.015c-0.637-0.008-1.292-0.016-1.961-0.016h-3.727
			c-0.67,0-1.325,0.008-1.961,0.016c-3.229,0.037-5.808,0.033-7.667-0.807c-1.948-0.88-2.936-2.545-2.936-4.95V50.896
			c0-3.012,1.632-8.063,12.563-8.063h3.727c11.059,0,12.71,5.052,12.71,8.063v22.195C98.818,78.863,93.207,78.863,89.854,78.863z
			 M82.382,75.833h3.727c0.681,0,1.349,0.008,1.997,0.016c0.601,0.007,1.186,0.015,1.749,0.015c5.063,0,5.964-0.727,5.964-2.771
			V50.896c0-4.185-5.28-5.063-9.71-5.063h-3.727c-6.346,0-9.563,1.703-9.563,5.063v22.195c0,1.558,0.604,1.961,1.171,2.217
			c1.079,0.487,2.879,0.555,4.663,0.555c0.558,0,1.136-0.008,1.732-0.015C81.032,75.841,81.699,75.833,82.382,75.833z"/>
		<path fill="#FF900B" d="M93.328,113.833c-0.803,0-1.469-0.506-1.498-1.314l-0.763-14.686H75.978l-1.416,14.272
			c-0.058,0.826-0.793,1.454-1.601,1.392c-0.826-0.058-1.449-0.774-1.392-1.601l1.514-15.668c0.055-0.786,0.708-1.396,1.496-1.396
			h17.934c0.807,0,1.47,0.639,1.499,1.445l0.815,16.131c0.03,0.828-0.616,1.424-1.444,1.424
			C93.365,113.833,93.346,113.833,93.328,113.833z"/>
		<g>
			<path fill="#FFFFFF" d="M97.013,90.246l10.555-20.93l-12.437-9.352c0,0-3.298,2.98-1.403,6.757
				c1.892,3.778,3.92,4.199,3.92,4.199"/>
			<path fill="#FF900B" d="M97.012,91.746c-0.228,0-0.458-0.052-0.675-0.161c-0.739-0.372-1.036-1.274-0.663-2.015l9.989-19.809
				l-10.289-7.737c-0.575,0.906-1.134,2.374-0.306,4.024c1.474,2.943,2.932,3.414,2.946,3.418c0.811,0.169,1.301,0.955,1.133,1.767
				c-0.168,0.811-0.994,1.327-1.805,1.156c-0.458-0.095-2.847-0.782-4.956-4.996c-1.903-3.793,0.305-7.246,1.738-8.542
				c0.533-0.48,1.335-0.516,1.907-0.086l12.437,9.352c0.58,0.437,0.765,1.227,0.438,1.875l-10.555,20.93
				C98.089,91.444,97.56,91.746,97.012,91.746z"/>
		</g>
		<g>
			<path fill="#FFFFFF" d="M74.952,63.26c0,0,2.05,1.339,1.271,3.858c-0.424,1.339-2.544,1.497-2.544,1.497l-8.059-2.678
				c0,0-3.183-2.441-0.284-5.435c1.132-0.63,9.261,2.678,9.261,2.678"/>
			<path fill="#FF900B" d="M73.679,70.115c-0.16,0-0.32-0.025-0.473-0.076l-8.059-2.678c-0.159-0.053-0.308-0.132-0.44-0.233
				c-0.195-0.15-1.917-1.53-2.078-3.714c-0.07-0.964,0.154-2.432,1.63-3.955c0.102-0.105,0.219-0.195,0.348-0.267
				c0.524-0.295,1.757-0.978,10.501,2.577c0.229,0.022,0.457,0.099,0.664,0.234c1.036,0.677,2.764,2.71,1.885,5.557
				c-0.713,2.252-3.545,2.526-3.866,2.551C73.754,70.114,73.717,70.115,73.679,70.115z M66.384,64.61l7.441,2.473
				c0.457-0.087,0.901-0.285,0.969-0.419c0.326-1.054-0.189-1.724-0.503-2.015c-0.087-0.019-0.173-0.045-0.259-0.079
				c-2.979-1.212-6.644-2.464-7.957-2.63c-0.326,0.434-0.479,0.85-0.454,1.239C65.659,63.775,66.094,64.326,66.384,64.61z"/>
		</g>
		<g>
			<path fill="#FFFFFF" d="M74.172,69.83c0,0,2.566,1.34,1.879,4.315c-0.377,1.582-2.885,1.971-2.885,1.971l-9.841-2.29
				c0,0-4.017-2.495-0.853-6.225c1.286-0.836,11.271,2.173,11.271,2.173"/>
			<path fill="#FF900B" d="M73.166,77.616c-0.114,0-0.229-0.013-0.34-0.039l-9.841-2.29c-0.16-0.037-0.313-0.101-0.452-0.187
				c-0.238-0.148-2.339-1.517-2.719-3.933c-0.166-1.06-0.038-2.707,1.515-4.537c0.094-0.11,0.204-0.208,0.326-0.287
				c0.51-0.333,1.871-1.213,12.493,1.986c0.275,0.015,0.489,0.051,0.718,0.17c1.243,0.649,3.396,2.735,2.646,5.983
				c-0.596,2.5-3.759,3.06-4.117,3.115C73.319,77.61,73.243,77.616,73.166,77.616z M63.947,72.431l9.241,2.15
				c0.631-0.156,1.337-0.506,1.403-0.783c0.335-1.452-0.539-2.248-0.935-2.525c-0.115-0.007-0.231-0.084-0.347-0.118
				c-3.827-1.153-8.484-2.321-9.962-2.321c-0.008,0-0.016,0-0.023,0c-0.447,1-0.631,1.277-0.547,1.813
				C62.901,71.43,63.584,72.147,63.947,72.431z"/>
		</g>
		<g>
			<path fill="#FFFFFF" d="M73.859,77.978c0,0,1.843,1.193,1.145,3.443c-0.382,1.194-2.288,1.335-2.288,1.335l-7.247-2.389
				c0,0-2.859-2.18-0.254-4.85c1.018-0.563,8.326,2.389,8.326,2.389"/>
			<path fill="#FF900B" d="M72.716,84.256c-0.159,0-0.317-0.025-0.47-0.075l-7.247-2.389c-0.158-0.053-0.307-0.131-0.439-0.231
				c-0.182-0.139-1.781-1.413-1.93-3.437c-0.065-0.894,0.144-2.253,1.512-3.654c0.102-0.104,0.219-0.193,0.347-0.265
				c0.53-0.293,1.639-0.905,9.55,2.284c0.22,0.025,0.438,0.101,0.637,0.229c0.968,0.626,2.58,2.508,1.762,5.146
				c-0.675,2.111-3.312,2.364-3.61,2.387C72.789,84.255,72.753,84.256,72.716,84.256z M66.235,79.04l6.619,2.183
				c0.322-0.066,0.656-0.196,0.742-0.303c0.236-0.782-0.132-1.299-0.399-1.554c-0.073-0.017-0.146-0.04-0.218-0.069
				c-2.602-1.05-5.808-2.143-7.035-2.325c-0.235,0.331-0.344,0.644-0.322,0.934C65.657,78.392,66.026,78.829,66.235,79.04z"/>
		</g>
		<g>
			<path fill="#FFFFFF" d="M72.501,82.621c0,0,1.482,0.918,1.322,3.112c-0.093,1.167-1.421,1.511-1.421,1.511l-5.485-1.438
				c0,0-2.349-1.728-0.901-4.532c0.637-0.644,6.249,1.317,6.249,1.317"/>
			<path fill="#FF900B" d="M72.402,88.744c-0.128,0-0.256-0.017-0.38-0.049l-5.485-1.438c-0.184-0.048-0.356-0.131-0.509-0.243
				c-1.169-0.859-2.955-3.31-1.346-6.428c0.069-0.136,0.16-0.26,0.267-0.367c0.516-0.522,1.294-1.304,7.664,0.905
				c0.233,0.018,0.465,0.09,0.678,0.221c0.837,0.519,2.207,2.05,2.028,4.497c-0.141,1.771-1.663,2.626-2.541,2.854
				C72.655,88.729,72.528,88.744,72.402,88.744z M67.627,84.442l4.646,1.217c0.028-0.021,0.05-0.042,0.061-0.06
				c0.059-0.847-0.268-1.341-0.47-1.563c-0.031-0.009-0.063-0.019-0.094-0.029c-1.771-0.618-3.684-1.146-4.685-1.312
				C66.916,83.582,67.356,84.173,67.627,84.442z"/>
		</g>
		<path fill="#FF900B" d="M83.818,97.833h-8.947c-2.498,0-4.571-4.174-5.87-7.675c-0.288-0.776,0.107-1.639,0.884-1.928
			c0.777-0.286,1.64,0.106,1.929,0.884c0.975,2.624,2.463,5.294,3.175,5.719h8.83c0.828,0,1.5,0.672,1.5,1.5
			S84.646,97.833,83.818,97.833z"/>
		<path fill="#FF900B" d="M92.339,97.833h-8.521c-0.828,0-1.5-0.672-1.5-1.5s0.672-1.5,1.5-1.5h8.411
			c0.729-0.406,2.323-3.099,3.396-5.757c0.311-0.77,1.185-1.141,1.952-0.83c0.769,0.31,1.141,1.183,0.831,1.951
			C97.004,93.681,94.811,97.833,92.339,97.833z"/>
		<path fill="#FF900B" d="M90.818,102.833h-15c-0.828,0-1.5-0.672-1.5-1.5s0.672-1.5,1.5-1.5h15c0.828,0,1.5,0.672,1.5,1.5
			S91.646,102.833,90.818,102.833z"/>
		<circle fill="#FF900B" cx="83.469" cy="83.831" r="3.105"/>
	</g>
	<path fill="#FF900B" d="M84.366,28.596c-7.916,0-14.356-6.44-14.356-14.355c0-7.917,6.44-14.357,14.356-14.357
		S98.722,6.324,98.722,14.24C98.722,22.155,92.282,28.596,84.366,28.596z M84.366,2.883c-6.262,0-11.356,5.095-11.356,11.357
		c0,6.261,5.095,11.355,11.356,11.355s11.356-5.095,11.356-11.355C95.722,7.978,90.628,2.883,84.366,2.883z"/>
	<path fill="#FF900B" d="M129.084,65.861c-7.917,0-14.357-6.44-14.357-14.356c0-7.917,6.44-14.357,14.357-14.357
		c7.916,0,14.356,6.44,14.356,14.357C143.44,59.421,137,65.861,129.084,65.861z M129.084,40.147
		c-6.263,0-11.357,5.095-11.357,11.357c0,6.262,5.095,11.356,11.357,11.356c6.262,0,11.356-5.095,11.356-11.356
		C140.44,45.242,135.345,40.147,129.084,40.147z"/>
	<path fill="#FF900B" d="M40.58,65.861c-7.917,0-14.357-6.44-14.357-14.356c0-7.917,6.44-14.357,14.357-14.357
		c7.916,0,14.356,6.44,14.356,14.357C54.936,59.421,48.496,65.861,40.58,65.861z M40.58,40.147c-6.263,0-11.357,5.095-11.357,11.357
		c0,6.262,5.095,11.356,11.357,11.356c6.262,0,11.356-5.095,11.356-11.356C51.936,45.242,46.842,40.147,40.58,40.147z"/>
	<path fill="#FF900B" d="M65.818,54.833h-12c-0.828,0-1.5-0.672-1.5-1.5s0.672-1.5,1.5-1.5h12c0.828,0,1.5,0.672,1.5,1.5
		S66.646,54.833,65.818,54.833z"/>
	<path fill="#FF900B" d="M84.318,40.333c-0.828,0-1.5-0.672-1.5-1.5v-11c0-0.828,0.672-1.5,1.5-1.5s1.5,0.672,1.5,1.5v11
		C85.818,39.661,85.146,40.333,84.318,40.333z"/>
	<path fill="#FF900B" d="M115.818,54.833h-14c-0.828,0-1.5-0.672-1.5-1.5s0.672-1.5,1.5-1.5h14c0.828,0,1.5,0.672,1.5,1.5
		S116.646,54.833,115.818,54.833z"/>
	<g>
		<path fill="#FF900B" d="M84.711,18.765c-2.521,0-4.57-2.051-4.57-4.572c0-2.521,2.05-4.571,4.57-4.571
			c2.521,0,4.572,2.051,4.572,4.571C89.283,16.714,87.232,18.765,84.711,18.765z M84.711,11.621c-1.417,0-2.57,1.153-2.57,2.571
			s1.153,2.572,2.57,2.572c1.418,0,2.572-1.154,2.572-2.572S86.129,11.621,84.711,11.621z"/>
		<path fill="#FF900B" d="M88.239,21.349c-0.094,0-0.201-0.006-0.317-0.022c-0.757-0.108-2.834-1.194-2.871-3.36
			c-0.01-0.553,0.431-1.133,0.983-1.133c0.005,0,0.011,0,0.017,0c0.545,0,0.99,0.553,1,1.099c0.017,0.964,1.192,1.363,1.204,1.366
			c0.545-0.107,1.048,0.277,1.153,0.818c0.105,0.543-0.267,1.081-0.809,1.187C88.552,21.312,88.421,21.349,88.239,21.349z"/>
		<path fill="#FF900B" d="M91.544,24.833c-0.548,0-0.994-0.273-1-0.822c-0.028-2.787-1.803-2.746-1.878-2.747
			c-0.553-0.003-0.997-0.169-0.994-0.722c0.004-0.55,0.45-0.709,1-0.709c0.002,0,0.004,0,0.006,0c1.32,0,3.827,0.613,3.866,4.4
			c0.006,0.553-0.438,0.6-0.989,0.6C91.551,24.833,91.547,24.833,91.544,24.833z"/>
		<path fill="#FF900B" d="M80.969,21.349c-0.182,0-0.312-0.021-0.359-0.031c-0.542-0.105-0.896-0.631-0.79-1.172
			c0.103-0.53,0.602-0.879,1.136-0.798c0.056-0.008,1.188-0.354,1.204-1.301c0.01-0.552,0.463-0.977,1.018-0.982
			c0.553,0.01,0.992,0.466,0.982,1.018c-0.038,2.167-2.114,3.136-2.867,3.243C81.173,21.343,81.063,21.349,80.969,21.349z"/>
		<path fill="#FF900B" d="M77.666,24.833c-0.003,0-0.007,0-0.011,0c-0.552,0-0.995-0.047-0.989-0.6c0.039-3.787,2.546-4.4,3.866-4.4
			c0.002,0,0.004,0,0.006,0c0.55,0,0.996,0.201,1,0.751c0.003,0.548-0.435,0.875-0.981,0.885c-0.317,0.013-1.863-0.019-1.891,2.603
			C78.66,24.62,78.214,24.833,77.666,24.833z"/>
	</g>
	<g>
		<path fill="#FF900B" d="M128.497,56.029c-2.521,0-4.57-2.051-4.57-4.572c0-2.521,2.05-4.57,4.57-4.57
			c2.521,0,4.572,2.05,4.572,4.57C133.069,53.979,131.018,56.029,128.497,56.029z M128.497,48.887c-1.417,0-2.57,1.153-2.57,2.57
			c0,1.418,1.153,2.572,2.57,2.572c1.418,0,2.572-1.154,2.572-2.572C131.069,50.04,129.915,48.887,128.497,48.887z"/>
		<path fill="#FF900B" d="M132.025,58.613c-0.094,0-0.201-0.006-0.317-0.022c-0.757-0.108-2.834-1.326-2.871-3.493
			c-0.01-0.552,0.431-0.265,0.983-1.265c0.005,0,0.011,0,0.017,0c0.545,0,0.99,0.685,1,1.231c0.017,0.963,1.192,1.429,1.204,1.432
			c0.543-0.101,1.048,0.31,1.153,0.853c0.106,0.541-0.267,1.097-0.809,1.202C132.338,58.561,132.207,58.613,132.025,58.613z"/>
		<path fill="#FF900B" d="M135.33,62.833c-0.548,0-0.994-0.641-1-1.189c-0.027-2.627-1.581-2.919-1.893-2.931
			c-0.546-0.021-0.982-0.415-0.971-0.961c0.012-0.544,0.448-0.919,0.991-0.919c0.002,0,0.004,0,0.006,0
			c1.32,0,3.827,1.113,3.866,4.899c0.006,0.553-0.438,1.101-0.989,1.101C135.337,62.833,135.333,62.833,135.33,62.833z"/>
		<path fill="#FF900B" d="M124.755,58.613c-0.182,0-0.312-0.021-0.359-0.031c-0.542-0.105-0.896-0.631-0.79-1.173
			c0.103-0.529,0.606-0.882,1.136-0.797c0.055-0.008,1.188-0.355,1.204-1.301c0.01-0.552,0.432-0.992,1.018-0.982
			c0.553,0.01,0.992,0.466,0.982,1.018c-0.038,2.167-2.114,3.136-2.867,3.244C124.959,58.607,124.849,58.613,124.755,58.613z"/>
		<path fill="#FF900B" d="M121.452,62.833c-0.003,0-0.007,0-0.011,0c-0.552,0-0.995-0.548-0.989-1.101
			c0.039-3.786,2.546-4.899,3.866-4.899c0.002,0,0.004,0,0.006,0c0.55,0,0.997,0.334,1,0.885c0.003,0.547-0.436,0.94-0.981,0.95
			c-0.316,0.013-1.863,0.382-1.891,3.004C122.446,62.22,122,62.833,121.452,62.833z"/>
	</g>
	<g>
		<path fill="#FF900B" d="M40.925,56.029c-2.521,0-4.57-2.051-4.57-4.572c0-2.521,2.05-4.57,4.57-4.57
			c2.521,0,4.572,2.05,4.572,4.57C45.497,53.979,43.446,56.029,40.925,56.029z M40.925,48.887c-1.417,0-2.57,1.153-2.57,2.57
			c0,1.418,1.153,2.572,2.57,2.572c1.418,0,2.572-1.154,2.572-2.572C43.497,50.04,42.343,48.887,40.925,48.887z"/>
		<path fill="#FF900B" d="M44.453,58.613c-0.094,0-0.201-0.006-0.317-0.022c-0.757-0.108-2.834-1.326-2.871-3.493
			c-0.01-0.552,0.431-0.265,0.983-1.265c0.005,0,0.011,0,0.017,0c0.545,0,0.99,0.685,1,1.231c0.017,0.963,1.192,1.429,1.204,1.432
			c0.542-0.101,1.048,0.31,1.153,0.853c0.106,0.541-0.267,1.097-0.809,1.202C44.765,58.561,44.635,58.613,44.453,58.613z"/>
		<path fill="#FF900B" d="M47.758,62.833c-0.548,0-0.994-0.641-1-1.189c-0.027-2.627-1.581-2.919-1.893-2.931
			c-0.546-0.021-0.982-0.415-0.971-0.961c0.012-0.544,0.448-0.919,0.991-0.919c0.002,0,0.004,0,0.006,0
			c1.32,0,3.827,1.113,3.866,4.899c0.006,0.553-0.438,1.101-0.989,1.101C47.764,62.833,47.76,62.833,47.758,62.833z"/>
		<path fill="#FF900B" d="M37.182,58.613c-0.182,0-0.312-0.021-0.359-0.031c-0.542-0.105-0.896-0.631-0.79-1.173
			c0.103-0.529,0.603-0.882,1.136-0.797c0.055-0.008,1.188-0.355,1.204-1.301c0.01-0.552,0.448-0.992,1.018-0.982
			c0.553,0.01,0.992,0.466,0.982,1.018c-0.038,2.167-2.114,3.136-2.867,3.244C37.386,58.607,37.277,58.613,37.182,58.613z"/>
		<path fill="#FF900B" d="M33.88,62.833c-0.003,0-0.007,0-0.011,0c-0.552,0-0.995-0.548-0.989-1.101
			c0.039-3.786,2.546-4.899,3.866-4.899c0.002,0,0.004,0,0.006,0c0.55,0,0.997,0.334,1,0.885c0.003,0.547-0.436,0.94-0.981,0.95
			c-0.316,0.013-1.863,0.382-1.891,3.004C34.874,62.22,34.427,62.833,33.88,62.833z"/>
	</g>
	<path fill="#FF900B" d="M128.496,48.887c-0.486,0-0.913-0.354-0.987-0.851l-0.553-3.649c-0.071-0.468,0.196-0.922,0.641-1.087
		l1.019-0.378c0.319-0.118,0.682-0.066,0.953,0.142c0.272,0.207,0.42,0.54,0.391,0.881l-0.32,3.755
		c-0.017,0.194-0.088,0.371-0.197,0.517c-0.118,0.339-0.415,0.603-0.795,0.659C128.595,48.883,128.546,48.887,128.496,48.887z"/>
	<path fill="#FF900B" d="M35.635,56.092c-1.053,0-2.178-0.58-2.576-0.993c-0.339-0.35-0.446-0.804-0.29-1.215
		c0.056-0.146,0.28-0.604,0.915-0.702c0.118-0.223,0.389-1.063,0.321-4.05c0.084-1.996,0.729-3.514,1.919-4.578
		c1.893-1.692,4.456-1.535,4.565-1.528c0.551,0.038,0.967,0.516,0.929,1.067c-0.039,0.549-0.501,0.955-1.063,0.929l0,0
		c-0.021-0.002-1.856-0.097-3.11,1.034c-0.765,0.69-1.183,1.732-1.241,3.097c0.046,1.954,0.019,3.809-0.536,4.93
		c0.115,0.018,0.21,0.02,0.271,0.001l0.099-0.033c0.354-0.121,1.011-0.347,1.133-0.508c-0.104-0.543,0.239-1.046,0.781-1.149
		c0.539-0.104,1.054,0.273,1.157,0.815c0.341,1.787-1.457,2.403-2.424,2.733l-0.097,0.033
		C36.149,56.057,35.894,56.092,35.635,56.092z"/>
	<path fill="#FF900B" d="M46.238,56.093c-0.259,0-0.514-0.036-0.752-0.117l-0.096-0.033c-0.967-0.331-2.767-0.946-2.426-2.734
		c0.104-0.543,0.626-0.895,1.17-0.795c0.543,0.104,0.898,0.628,0.795,1.17c0.096,0.121,0.754,0.346,1.107,0.467l0.098,0.033
		c0.046,0.016,0.108,0.019,0.186,0.01c-0.672-1.178-0.748-3.135-0.708-4.91c-0.183-4.218-4.192-4.173-4.644-4.162
		c-0.591,0.049-1.018-0.406-1.041-0.956s0.399-1.016,0.949-1.042c0.119-0.005,2.868-0.113,4.835,1.685
		c1.18,1.077,1.819,2.576,1.899,4.455c-0.077,3.521,0.487,4.007,0.511,4.026c0.674,0.032,0.923,0.541,0.982,0.695
		c0.156,0.411,0.049,0.865-0.29,1.215C48.416,55.512,47.291,56.092,46.238,56.093z"/>
</g>
<g>
	<path fill="#FF900B" d="M88.439,69.736c-0.364,0-0.715-0.199-0.892-0.545L78.23,50.936c-0.251-0.491-0.056-1.094,0.437-1.345
		c0.492-0.253,1.094-0.055,1.345,0.437l9.317,18.254c0.251,0.492,0.056,1.095-0.436,1.346
		C88.747,69.701,88.592,69.736,88.439,69.736z"/>
	<path fill="#FF900B" d="M82.087,57.29c-0.364,0-0.715-0.199-0.892-0.545c-0.251-0.492-0.056-1.095,0.436-1.346l2.428-1.239
		l-2.51-4.918c-0.251-0.492-0.056-1.095,0.436-1.346c0.496-0.253,1.095-0.055,1.346,0.436l2.965,5.809
		c0.251,0.492,0.056,1.095-0.436,1.346l-3.318,1.694C82.395,57.255,82.239,57.29,82.087,57.29z"/>
	<path fill="#FF900B" d="M78.766,58.984c-0.104,0-0.208-0.017-0.309-0.049c-0.252-0.082-0.462-0.261-0.582-0.496l-2.965-5.809
		c-0.251-0.492-0.056-1.095,0.436-1.346c0.496-0.252,1.095-0.056,1.346,0.436l2.511,4.918l2.428-1.239
		c0.495-0.252,1.095-0.055,1.346,0.436c0.251,0.492,0.056,1.095-0.436,1.346l-3.319,1.694
		C79.079,58.947,78.923,58.984,78.766,58.984z"/>
</g>
<g>
	<path fill="#FFFFFF" d="M79.975,68.42l8.695-13.042l1.28,1.902C89.951,57.28,85.915,65.819,79.975,68.42z"/>
	<path fill="#FF900B" d="M79.975,69.42c-0.289,0-0.572-0.126-0.767-0.357c-0.285-0.34-0.312-0.828-0.065-1.197l8.695-12.814
		c0.185-0.277,0.496-0.218,0.83-0.218c0.001,0,0.001,0,0.002,0c0.333,0,0.644-0.063,0.83,0.214l1.28,1.788
		c0.196,0.293,0.225,0.61,0.074,0.93c-0.172,0.362-4.268,8.88-10.479,11.6C80.247,69.421,80.111,69.42,79.975,69.42z M88.675,57.175
		l-4.713,7.068c2.463-2.582,4.208-5.695,4.832-6.891L88.675,57.175z"/>
</g>
<path fill="#FF900B" d="M89.329,56.844c-0.199,0-0.4-0.06-0.576-0.184l-0.659-0.466c-0.429-0.303-0.55-0.887-0.277-1.335
	l3.416-5.628c0.286-0.473,0.901-0.623,1.373-0.336c0.473,0.286,0.623,0.901,0.336,1.373l-2.936,4.838
	c0.366,0.335,0.435,0.898,0.141,1.314C89.952,56.696,89.642,56.844,89.329,56.844z"/>
</svg>
