<?xml version="1.0" encoding="utf-8"?>
<!-- Generator: Adobe Illustrator 16.0.0, SVG Export Plug-In . SVG Version: 6.00 Build 0)  -->
<!DOCTYPE svg PUBLIC "-//W3C//DTD SVG 1.1//EN" "http://www.w3.org/Graphics/SVG/1.1/DTD/svg11.dtd">
<svg version="1.1" id="Capa_1" xmlns="http://www.w3.org/2000/svg" xmlns:xlink="http://www.w3.org/1999/xlink" x="0px" y="0px"
	 width="166.637px" height="112.666px" viewBox="0 0 166.637 112.666" enable-background="new 0 0 166.637 112.666"
	 xml:space="preserve">
<g>
	<defs>
		<rect id="SVGID_1_" x="12.068" y="0.351" width="144.5" height="112.666"/>
	</defs>
	<clipPath id="SVGID_2_">
		<use xlink:href="#SVGID_1_"  overflow="visible"/>
	</clipPath>
	<g clip-path="url(#SVGID_2_)">
		<g>
			<path fill="#FFFFFF" d="M147.818,87.653c0,6.175-5.005,11.18-11.179,11.18H30.997c-6.174,0-11.179-5.005-11.179-11.18V15.013
				c0-6.174,5.005-11.18,11.179-11.18h105.643c6.174,0,11.179,5.005,11.179,11.18V87.653z"/>
			<path fill="#FF900B" d="M137.139,99.833H31.497c-6.991,0-12.679-5.688-12.679-12.68V14.513c0-6.992,5.688-12.68,12.679-12.68
				h105.643c6.991,0,12.679,5.688,12.679,12.68v72.641C149.818,94.145,144.131,99.833,137.139,99.833z M31.497,4.833
				c-5.337,0-9.679,4.342-9.679,9.68v72.641c0,5.338,4.342,9.68,9.679,9.68h105.643c5.337,0,9.679-4.342,9.679-9.68V14.513
				c0-5.337-4.342-9.68-9.679-9.68H31.497z"/>
		</g>
		<g>
			<path fill="#FFFFFF" d="M139.818,79.836c0,5.961-2.113,11.997-6.175,11.997H35.851c-4.062,0-8.033-6.036-8.033-11.997V21.288
				c0-5.961,3.971-10.455,8.033-10.455h97.792c4.062,0,6.175,4.494,6.175,10.455V79.836z"/>
			<path fill="#FF900B" d="M133.643,92.833H35.851c-4.812,0-9.033-6.073-9.033-12.997V21.288c0-6.868,4.052-12.455,9.033-12.455
				h97.792c4.736,0,8.175,5.238,8.175,12.455v58.548C141.818,86.137,138.953,92.833,133.643,92.833z M35.851,11.833
				c-3.214,0-6.033,4.418-6.033,9.455v58.548c0,5.139,2.932,9.997,6.033,9.997h97.792c2.854,0,5.175-4.484,5.175-9.997V21.288
				c0-5.39-2.225-9.455-5.175-9.455H35.851z"/>
		</g>
		<g>
			<ellipse fill="#FFFFFF" cx="81.635" cy="68.369" rx="33.179" ry="7.841"/>
			<path fill="#FF900B" d="M81.635,77.71c-16.703,0-34.68-2.923-34.68-9.341s17.977-9.342,34.68-9.342
				c16.702,0,34.679,2.924,34.679,9.342S98.338,77.71,81.635,77.71z M81.635,62.027c-20.498,0-31.68,4.189-31.68,6.342
				s11.182,6.341,31.68,6.341c20.497,0,31.679-4.188,31.679-6.341S102.133,62.027,81.635,62.027z"/>
		</g>
		<g>
			<path fill="#FFFFFF" d="M109.09,42.361c0,0-10.412,6.521-29.635,6.288c-19.223-0.232-27.5-6.288-27.5-6.288
				s-2.156,28.182,26.688,28.182C107.488,70.543,109.09,42.361,109.09,42.361z"/>
			<path fill="#FF900B" d="M78.642,72.043c-9.042,0-16.107-2.678-20.999-7.958c-8.087-8.729-7.225-21.307-7.185-21.838
				c0.042-0.543,0.374-1.021,0.868-1.249c0.495-0.226,1.073-0.169,1.513,0.152c0.076,0.054,8.227,5.615,26.632,5.837
				c0.332,0.004,0.658-0.155,0.985-0.155c0.001,0,0.002,0,0.002,0c17.861,0,27.738-5.845,27.835-5.906
				c0.478-0.295,1.079-0.221,1.559,0.065c0.481,0.286,0.765,0.855,0.733,1.414C110.57,42.702,108.559,72.043,78.642,72.043z
				 M53.454,44.955c0.176,3.882,1.222,11.525,6.406,17.109c4.3,4.631,10.62,6.979,18.782,6.979c22.141,0,27.388-17.356,28.6-24.202
				c-4.188,1.916-13.264,4.992-26.781,4.992c-0.001,0-0.002,0-0.003,0c-0.339,0-0.677,0.159-1.021,0.155
				C65.54,49.82,57.213,46.837,53.454,44.955z"/>
		</g>
		<g>
			<path fill="#FFFFFF" d="M54.242,41.663c0,0,1.355-3.571,3.729-3.805c2.375-0.232-0.083-1.009,1.357-1.241
				c1.44-0.233,3.645-1.708,4.917-1.397c1.271,0.31,3.39-0.319,4.661-0.043c1.272,0.275,4.917,3.69,4.578,5.244"/>
			<path fill="#FF900B" d="M54.241,43.164c-0.177,0-0.356-0.032-0.532-0.098c-0.774-0.294-1.164-1.16-0.87-1.935
				c0.165-0.435,1.638-4.103,4.567-4.702c0.023-0.08,0.053-0.159,0.09-0.237c0.267-0.572,0.802-0.927,1.593-1.055
				c0.397-0.064,1.027-0.327,1.637-0.581c1.293-0.539,2.631-1.095,3.875-0.792c0.4,0.097,1.185,0.019,1.877-0.05
				c0.93-0.093,1.892-0.187,2.747-0.002c1.482,0.321,3.896,2.534,4.982,4.224c0.681,1.059,0.924,1.977,0.743,2.806
				c-0.177,0.809-0.974,1.325-1.785,1.146c-0.779-0.17-1.284-0.917-1.163-1.695c-0.164-0.889-2.567-3.273-3.44-3.555
				c-0.367-0.081-1.123-0.004-1.788,0.062c-0.976,0.097-1.985,0.197-2.884-0.021c-0.33-0.055-1.424,0.404-2.01,0.647
				c-0.452,0.188-0.912,0.38-1.367,0.532c-0.03,0.116-0.073,0.23-0.13,0.342c-0.494,0.979-1.691,1.097-2.267,1.153
				c-1.083,0.106-2.152,1.998-2.473,2.844C55.417,42.794,54.847,43.164,54.241,43.164z"/>
		</g>
		<g>
			<path fill="#FFFFFF" d="M73.222,41.663c0,0-1.661-4.165,1.071-5.032c2.733-0.868,0.909-1.8,2.209-2.033
				c1.301-0.232,4.018-0.232,4.562,0c0.543,0.233,3.55,1.555,3.638,1.941c0.089,0.388,2.961-0.388,3.582-0.621
				c0.621-0.232,0.698,1.36,2.329,2.466c1.63,1.105,3.338,2.581,3.261,3.279c-0.077,0.699,1.241,1.709,1.009,2.563"/>
			<path fill="#FF900B" d="M94.884,45.726c-0.131,0-0.263-0.017-0.396-0.053c-0.724-0.197-1.179-0.892-1.097-1.615
				c-0.063-0.128-0.198-0.332-0.293-0.476c-0.313-0.475-0.691-1.049-0.726-1.749c-0.267-0.377-1.182-1.244-2.602-2.208
				c-0.962-0.652-1.515-1.432-1.867-2.004c-1.118,0.334-2.983,0.773-3.857,0.303c-0.194-0.104-0.375-0.266-0.519-0.455
				c-0.406-0.272-1.704-0.909-2.992-1.466c-0.434-0.09-2.056-0.121-3.221-0.003c-0.307,0.96-1.128,1.603-2.567,2.06
				c-0.24,0.076-0.332,0.181-0.396,0.314c-0.302,0.634-0.021,2.007,0.265,2.736c0.301,0.77-0.076,1.641-0.844,1.944
				c-0.769,0.303-1.638-0.069-1.944-0.837c-0.123-0.307-1.168-3.058-0.19-5.125c0.435-0.919,1.196-1.574,2.201-1.893
				c0.321-0.102,0.515-0.189,0.626-0.248c0.162-1.348,1.165-1.723,1.771-1.832c1.086-0.195,4.341-0.362,5.416,0.097
				c2.053,0.882,3.14,1.458,3.733,1.891c0.678-0.108,1.927-0.429,2.37-0.596c1.464-0.549,2.283,0.826,2.549,1.279
				c0.264,0.446,0.561,0.951,1.149,1.35c3.585,2.432,3.935,3.789,3.928,4.44c0.058,0.101,0.152,0.245,0.222,0.349
				c0.41,0.624,1.031,1.566,0.726,2.688C96.148,45.287,95.544,45.726,94.884,45.726z"/>
		</g>
		<g>
			<path fill="#FFFFFF" d="M89.52,36.589c0,0,0.198-1.422,2.526-1.344c2.33,0.077,3.318-1.488,4.329-0.925
				c1.01,0.563,4.805,0.788,6.047,1.284c1.241,0.494,1.97,0.831,2.28,1.918c0.31,1.088,1.115,2.743,1.115,2.743v0.567"/>
			<path fill="#FF900B" d="M106.318,42.333c-0.828,0-1.5-0.671-1.5-1.5v-0.148c-0.359-0.608-1.022-1.802-1.292-2.751
				c-0.081-0.284-0.401-0.449-1.461-0.869l-0.166-0.066c-0.419-0.167-1.575-0.345-2.504-0.487c-1.646-0.253-2.748-0.44-3.479-0.775
				c-0.116,0.048-0.276,0.125-0.404,0.186c-0.725,0.348-1.815,0.881-3.391,0.822c-0.518-0.015-0.786,0.071-0.878,0.125
				c-0.137,0.725-0.773,1.261-1.551,1.218c-0.827-0.042-1.464-0.748-1.421-1.575c0.052-1,0.913-2.863,3.95-2.766
				c0.807,0.026,1.396-0.242,1.991-0.528c0.713-0.342,1.789-0.857,2.955-0.208c0.351,0.177,1.811,0.401,2.683,0.535
				c1.3,0.2,2.424,0.373,3.159,0.666l0.16,0.063c1.284,0.509,2.74,1.087,3.24,2.835c0.182,0.64,0.819,1.786,1.178,2.358
				c0.149,0.239,0.229,0.516,0.229,0.797v0.567C107.818,41.662,107.146,42.333,106.318,42.333z"/>
		</g>
		<g>
			<circle fill="#FFFFFF" cx="116.862" cy="42.876" r="12.308"/>
			<path fill="#FF900B" d="M116.862,56.684c-7.613,0-13.808-6.194-13.808-13.808s6.194-13.808,13.808-13.808
				s13.808,6.194,13.808,13.808S124.475,56.684,116.862,56.684z M116.862,32.068c-5.959,0-10.808,4.848-10.808,10.808
				s4.849,10.808,10.808,10.808s10.808-4.848,10.808-10.808S122.821,32.068,116.862,32.068z"/>
		</g>
		<g>
			<polyline fill="#FFFFFF" points="111.522,41.18 116.702,46.358 131.94,31.122 			"/>
			<path fill="#FF900B" d="M116.702,47.858c-0.384,0-0.768-0.146-1.061-0.439l-5.18-5.179c-0.586-0.585-0.586-1.535,0-2.121
				s1.535-0.586,2.121,0l4.119,4.118l14.178-14.176c0.586-0.586,1.535-0.586,2.121,0s0.586,1.536,0,2.121l-15.238,15.236
				C117.469,47.712,117.086,47.858,116.702,47.858z"/>
		</g>
		<g>
			<polyline fill="#FFFFFF" points="142.861,116.574 132.924,101.402 115.93,108.506 118.936,124.027 			"/>
			<path fill="#FF900B" d="M118.934,125.527c-0.704,0-1.332-0.498-1.471-1.215l-3.006-15.521c-0.135-0.698,0.238-1.395,0.895-1.669
				l16.993-7.104c0.667-0.281,1.438-0.042,1.833,0.562l9.938,15.172c0.454,0.693,0.26,1.623-0.433,2.077s-1.622,0.262-2.077-0.433
				l-9.254-14.129l-14.717,6.151l2.773,14.323c0.157,0.813-0.374,1.601-1.188,1.758
				C119.125,125.519,119.029,125.527,118.934,125.527z"/>
		</g>
		<g>
			<path fill="#FFFFFF" d="M111.652,90.96l-6.995-21.161c0,0,0.517-2.381,3.497-1.818c2.981,0.563,9.709,18.633,9.709,18.633
				s-2.64-6.918-1.242-7.186s3.609-2.189,4.541-1.083s3.202,7.221,3.202,7.221s-3.202-5.532-1.979-5.823s5.008-2.154,6.23,2.154
				s1.712,3.319,1.712,3.319l-1.712-4.774c0,0,3.9,1.455,4.832,3.027s-0.523,17.002-0.523,17.002l-16.993,8.035l-9.868-12.731
				c0,0,0.854-4.037,1.164-4.114C107.537,91.582,111.652,90.96,111.652,90.96z"/>
			<path fill="#FF900B" d="M115.931,110.006c-0.453,0-0.895-0.205-1.187-0.581l-9.868-12.731c-0.271-0.349-0.373-0.798-0.282-1.229
				c0.997-4.716,1.362-5.034,2.271-5.26c0.218-0.055,1.438-0.249,2.806-0.459l-6.438-19.476c-0.085-0.255-0.099-0.526-0.042-0.789
				c0.231-1.067,1.387-3.086,4.099-3.086c0.364,0,0.749,0.038,1.143,0.112c1.882,0.355,4.433,4.227,7.605,11.531
				c0.097-0.036,0.197-0.063,0.301-0.084c0.277-0.053,0.797-0.312,1.255-0.539c0.898-0.448,1.827-0.911,2.789-0.911
				c0.768,0,1.452,0.311,1.927,0.875c0.114,0.136,0.26,0.33,0.464,0.68c0.684-0.211,1.614-0.466,2.604-0.466
				c1.339,0,2.462,0.467,3.307,1.351c0.153,0.007,0.307,0.037,0.455,0.093c0.734,0.273,4.454,1.738,5.598,3.668
				c0.976,1.646,0.364,10.646-0.32,17.907c-0.05,0.527-0.373,0.989-0.852,1.216l-16.993,8.035
				C116.366,109.959,116.147,110.006,115.931,110.006z M107.677,95.409l8.7,11.226l15.131-7.154
				c0.593-6.551,0.979-13.969,0.608-15.308c-0.148-0.21-0.444-0.459-0.828-0.72l0.45,1.257c0.138,0.383,0.113,0.806-0.067,1.171
				c-0.28,0.566-0.868,0.933-1.498,0.933c-1.456,0-2.153-1.518-3.002-4.508c-0.448-1.58-1.161-1.713-1.794-1.713
				c-0.421,0-0.877,0.095-1.295,0.209c0.85,1.988,1.646,4.131,1.688,4.241c0.271,0.73-0.063,1.548-0.768,1.88
				c-0.702,0.33-1.546,0.067-1.937-0.606c-1.094-1.889-2.333-4.338-2.446-5.902c-0.207-0.431-0.354-0.701-0.451-0.866
				c-0.34,0.104-0.884,0.376-1.237,0.552c-0.396,0.197-0.801,0.399-1.208,0.557c0.096,0.938,0.611,2.92,1.492,5.292l0.053,0.142
				c0.289,0.774-0.104,1.636-0.876,1.927c-0.775,0.288-1.43-0.097-1.725-0.868l0.15-0.147c0-0.001,0-0.002,0-0.002v-0.005
				c-4-9.055-7.377-16.724-8.809-17.553c-0.858-0.146-1.451,0.113-1.652,0.408l6.771,20.64c0.139,0.42,0.06,0.879-0.171,1.256
				c-0.232,0.377-0.631,0.632-1.067,0.698c-1.324,0.2-2.763,0.421-3.605,0.557C108.114,93.583,107.879,94.511,107.677,95.409z"/>
		</g>
		<g>
			<line fill="#FFFFFF" x1="117.083" y1="113.506" x2="135.801" y2="106.464"/>
			<path fill="#FF900B" d="M117.083,115.006c-0.606,0-1.178-0.37-1.404-0.972c-0.291-0.775,0.101-1.641,0.876-1.933l18.718-7.042
				c0.772-0.291,1.641,0.101,1.933,0.876c0.291,0.775-0.101,1.641-0.876,1.933l-18.718,7.042
				C117.437,114.976,117.259,115.006,117.083,115.006z"/>
		</g>
		<g>
			<line fill="#FFFFFF" x1="111.652" y1="90.96" x2="113.883" y2="97.56"/>
			<path fill="#FF900B" d="M113.883,99.06c-0.626,0-1.21-0.395-1.421-1.02l-2.23-6.6c-0.266-0.785,0.156-1.637,0.94-1.901
				s1.637,0.156,1.901,0.94l2.23,6.6c0.266,0.785-0.156,1.637-0.94,1.901C114.204,99.034,114.042,99.06,113.883,99.06z"/>
		</g>
	</g>
</g>
</svg>
