<?xml version="1.0" encoding="utf-8"?>
<!-- Generator: Adobe Illustrator 16.0.0, SVG Export Plug-In . SVG Version: 6.00 Build 0)  -->
<!DOCTYPE svg PUBLIC "-//W3C//DTD SVG 1.1//EN" "http://www.w3.org/Graphics/SVG/1.1/DTD/svg11.dtd">
<svg version="1.1" id="Capa_1" xmlns="http://www.w3.org/2000/svg" xmlns:xlink="http://www.w3.org/1999/xlink" x="0px" y="0px"
	 width="166.637px" height="112.666px" viewBox="0 0 166.637 112.666" enable-background="new 0 0 166.637 112.666"
	 xml:space="preserve">
<circle fill="none" stroke="#FF900B" stroke-width="3" stroke-miterlimit="10" cx="142.943" cy="47.566" r="17.375"/>
<line fill="none" stroke="#FF900B" stroke-width="3" stroke-linecap="round" stroke-linejoin="round" stroke-miterlimit="10" x1="107.818" y1="72.713" x2="129.049" y2="57.999"/>
<g>
	<path fill="#FFFFFF" d="M424.818,76.653c0,6.175-5.005,11.18-11.179,11.18H307.997c-6.174,0-11.179-5.005-11.179-11.18V4.013
		c0-6.174,5.005-11.18,11.179-11.18h105.643c6.174,0,11.179,5.005,11.179,11.18V76.653z"/>
	<path fill="#FF900B" d="M414.139,88.833H308.497c-6.991,0-12.679-5.688-12.679-12.68V3.513c0-6.992,5.688-12.68,12.679-12.68
		h105.643c6.991,0,12.679,5.688,12.679,12.68v72.641C426.818,83.145,421.131,88.833,414.139,88.833z M308.497-6.167
		c-5.337,0-9.679,4.342-9.679,9.68v72.641c0,5.338,4.342,9.68,9.679,9.68h105.643c5.337,0,9.679-4.342,9.679-9.68V3.513
		c0-5.337-4.342-9.68-9.679-9.68H308.497z"/>
</g>
<g>
	<path fill="#FFFFFF" d="M416.818,68.836c0,5.961-2.113,11.997-6.175,11.997h-97.792c-4.063,0-8.033-6.036-8.033-11.997V10.288
		c0-5.961,3.971-10.455,8.033-10.455h97.792c4.062,0,6.175,4.494,6.175,10.455V68.836z"/>
	<path fill="#FF900B" d="M410.643,81.833h-97.792c-4.813,0-9.033-6.073-9.033-12.997V10.288c0-6.868,4.053-12.455,9.033-12.455
		h97.792c4.736,0,8.175,5.238,8.175,12.455v58.548C418.818,75.137,415.953,81.833,410.643,81.833z M312.851,0.833
		c-3.214,0-6.033,4.418-6.033,9.455v58.548c0,5.139,2.932,9.997,6.033,9.997h97.792c2.854,0,5.175-4.484,5.175-9.997V10.288
		c0-5.39-2.225-9.455-5.175-9.455H312.851z"/>
</g>
<g>
	<ellipse fill="#FFFFFF" cx="358.635" cy="57.369" rx="33.179" ry="7.841"/>
	<path fill="#FF900B" d="M358.635,66.71c-16.702,0-34.68-2.923-34.68-9.341s17.978-9.342,34.68-9.342s34.679,2.924,34.679,9.342
		S375.338,66.71,358.635,66.71z M358.635,51.027c-20.498,0-31.68,4.189-31.68,6.342s11.182,6.341,31.68,6.341
		c20.497,0,31.679-4.188,31.679-6.341S379.133,51.027,358.635,51.027z"/>
</g>
<g>
	<path fill="#FFFFFF" d="M386.09,31.361c0,0-10.412,6.521-29.635,6.288c-19.223-0.232-27.5-6.288-27.5-6.288
		s-2.156,28.182,26.688,28.182C384.488,59.543,386.09,31.361,386.09,31.361z"/>
	<path fill="#FF900B" d="M355.642,61.043c-9.042,0-16.107-2.678-20.998-7.958c-8.088-8.729-7.226-21.307-7.186-21.838
		c0.042-0.543,0.375-1.021,0.869-1.249c0.494-0.226,1.072-0.169,1.513,0.152c0.075,0.054,8.228,5.615,26.632,5.837
		c0.332,0.004,0.658-0.155,0.985-0.155c0.001,0,0.002,0,0.003,0c17.86,0,27.737-5.845,27.835-5.906
		c0.478-0.295,1.079-0.221,1.559,0.065c0.481,0.286,0.765,0.855,0.733,1.414C387.57,31.702,385.559,61.043,355.642,61.043z
		 M330.454,33.955c0.176,3.882,1.222,11.525,6.406,17.109c4.3,4.631,10.62,6.979,18.782,6.979c22.141,0,27.388-17.356,28.6-24.202
		c-4.188,1.916-13.264,4.992-26.781,4.992c-0.001,0-0.002,0-0.003,0c-0.339,0-0.677,0.159-1.021,0.155
		C342.54,38.82,334.213,35.837,330.454,33.955z"/>
</g>
<g>
	<path fill="#FFFFFF" d="M331.242,30.663c0,0,1.355-3.571,3.729-3.805c2.375-0.232-0.083-1.009,1.357-1.241
		c1.44-0.233,3.645-1.708,4.917-1.397c1.271,0.31,3.39-0.319,4.661-0.043c1.272,0.275,4.917,3.69,4.578,5.244"/>
	<path fill="#FF900B" d="M331.242,32.164c-0.178,0-0.357-0.032-0.532-0.098c-0.774-0.294-1.164-1.16-0.87-1.935
		c0.165-0.435,1.639-4.103,4.567-4.702c0.023-0.08,0.054-0.159,0.09-0.237c0.267-0.572,0.802-0.927,1.593-1.055
		c0.398-0.064,1.027-0.327,1.637-0.581c1.293-0.539,2.631-1.095,3.875-0.792c0.4,0.097,1.186,0.019,1.877-0.05
		c0.93-0.093,1.893-0.187,2.747-0.002c1.481,0.321,3.896,2.534,4.982,4.224c0.681,1.059,0.924,1.977,0.743,2.806
		c-0.178,0.809-0.975,1.325-1.785,1.146c-0.779-0.17-1.284-0.917-1.163-1.695c-0.164-0.889-2.567-3.273-3.44-3.555
		c-0.366-0.081-1.122-0.004-1.787,0.062c-0.977,0.097-1.986,0.197-2.885-0.021c-0.33-0.055-1.424,0.404-2.01,0.647
		c-0.451,0.188-0.912,0.38-1.367,0.532c-0.029,0.116-0.072,0.23-0.129,0.342c-0.494,0.979-1.691,1.097-2.268,1.153
		c-1.082,0.106-2.151,1.998-2.473,2.844C332.417,31.794,331.847,32.164,331.242,32.164z"/>
</g>
<g>
	<path fill="#FFFFFF" d="M350.222,30.663c0,0-1.661-4.165,1.071-5.032c2.733-0.868,0.909-1.8,2.209-2.033
		c1.301-0.232,4.018-0.232,4.562,0c0.543,0.233,3.55,1.555,3.638,1.941c0.089,0.388,2.961-0.388,3.582-0.621
		c0.621-0.232,0.698,1.36,2.329,2.466c1.63,1.105,3.338,2.581,3.261,3.279c-0.077,0.699,1.241,1.709,1.009,2.563"/>
	<path fill="#FF900B" d="M371.884,34.726c-0.131,0-0.263-0.017-0.396-0.053c-0.724-0.197-1.179-0.892-1.097-1.615
		c-0.063-0.128-0.198-0.332-0.293-0.476c-0.313-0.475-0.691-1.049-0.726-1.749c-0.267-0.377-1.182-1.244-2.602-2.208
		c-0.962-0.652-1.515-1.432-1.867-2.004c-1.118,0.334-2.983,0.773-3.857,0.303c-0.194-0.104-0.375-0.266-0.519-0.455
		c-0.405-0.272-1.704-0.909-2.992-1.466c-0.434-0.09-2.056-0.121-3.222-0.003c-0.307,0.96-1.128,1.603-2.566,2.06
		c-0.24,0.076-0.332,0.181-0.396,0.314c-0.302,0.634-0.021,2.007,0.265,2.736c0.302,0.77-0.075,1.641-0.844,1.944
		c-0.769,0.303-1.639-0.069-1.943-0.837c-0.123-0.307-1.168-3.058-0.19-5.125c0.435-0.919,1.196-1.574,2.2-1.893
		c0.321-0.102,0.516-0.189,0.627-0.248c0.162-1.348,1.165-1.723,1.771-1.832c1.086-0.195,4.341-0.362,5.416,0.097
		c2.053,0.882,3.14,1.458,3.732,1.891c0.678-0.108,1.927-0.429,2.37-0.596c1.464-0.549,2.283,0.826,2.549,1.279
		c0.264,0.446,0.561,0.951,1.149,1.35c3.585,2.432,3.935,3.789,3.928,4.44c0.058,0.101,0.152,0.245,0.222,0.349
		c0.41,0.624,1.031,1.566,0.726,2.688C373.148,34.287,372.544,34.726,371.884,34.726z"/>
</g>
<g>
	<path fill="#FFFFFF" d="M366.52,25.589c0,0,0.198-1.422,2.526-1.344c2.33,0.077,3.318-1.488,4.329-0.925
		c1.01,0.563,4.805,0.788,6.047,1.284c1.241,0.494,1.97,0.831,2.28,1.918c0.31,1.088,1.115,2.743,1.115,2.743v0.567"/>
	<path fill="#FF900B" d="M383.318,31.333c-0.828,0-1.5-0.671-1.5-1.5v-0.148c-0.359-0.608-1.022-1.802-1.292-2.751
		c-0.081-0.284-0.401-0.449-1.461-0.869l-0.166-0.066c-0.419-0.167-1.575-0.345-2.504-0.487c-1.646-0.253-2.748-0.44-3.479-0.775
		c-0.116,0.048-0.276,0.125-0.404,0.186c-0.725,0.348-1.815,0.881-3.391,0.822c-0.518-0.015-0.786,0.071-0.878,0.125
		c-0.137,0.725-0.773,1.261-1.551,1.218c-0.827-0.042-1.464-0.748-1.421-1.575c0.052-1,0.913-2.863,3.95-2.766
		c0.807,0.026,1.396-0.242,1.991-0.528c0.713-0.342,1.789-0.857,2.955-0.208c0.351,0.177,1.811,0.401,2.683,0.535
		c1.3,0.2,2.424,0.373,3.159,0.666l0.16,0.063c1.284,0.509,2.74,1.087,3.24,2.835c0.182,0.64,0.819,1.786,1.178,2.358
		c0.149,0.239,0.229,0.516,0.229,0.797v0.567C384.818,30.662,384.146,31.333,383.318,31.333z"/>
</g>
<g>
	<circle fill="#FFFFFF" cx="393.862" cy="31.876" r="12.308"/>
	<path fill="#FF900B" d="M393.862,45.684c-7.613,0-13.808-6.194-13.808-13.808s6.194-13.808,13.808-13.808
		s13.808,6.194,13.808,13.808S401.475,45.684,393.862,45.684z M393.862,21.068c-5.959,0-10.808,4.848-10.808,10.808
		s4.849,10.808,10.808,10.808s10.808-4.848,10.808-10.808S399.821,21.068,393.862,21.068z"/>
</g>
<g>
	<polyline fill="#FFFFFF" points="388.522,30.18 393.702,35.358 408.94,20.122 	"/>
	<path fill="#FF900B" d="M393.702,36.858c-0.384,0-0.768-0.146-1.061-0.439l-5.18-5.179c-0.586-0.585-0.586-1.535,0-2.121
		s1.535-0.586,2.121,0l4.119,4.118l14.178-14.176c0.586-0.586,1.535-0.586,2.121,0s0.586,1.536,0,2.121l-15.238,15.236
		C394.469,36.712,394.086,36.858,393.702,36.858z"/>
</g>
<g>
	<g>
		<polyline fill="#FFFFFF" points="146.675,114.104 142.619,99.995 127.779,101.423 126.39,114.145 		"/>
		<path fill="#FF900B" d="M126.03,115.304c-0.545-0.168-0.911-0.704-0.847-1.291l1.388-12.723c0.063-0.572,0.519-1.021,1.092-1.076
			l14.841-1.429c0.582-0.058,1.121,0.313,1.283,0.873l4.055,14.11c0.186,0.646-0.187,1.317-0.831,1.503
			c-0.644,0.186-1.317-0.186-1.503-0.832l-3.776-13.14l-12.853,1.236l-1.282,11.74c-0.072,0.667-0.672,1.148-1.338,1.075
			C126.179,115.343,126.103,115.327,126.03,115.304z"/>
	</g>
	<g>
		<path fill="#FFFFFF" d="M128.668,86.83l-0.348-18.038c0,0,0.97-1.717,3.14-0.569c2.171,1.149,3.051,16.732,3.051,16.732
			s-0.386-5.982,0.758-5.854c1.146,0.128,3.315-0.829,3.772,0.249c0.455,1.078,0.748,6.35,0.748,6.35s-1.152-5.044-0.138-4.977
			s4.389-0.469,4.304,3.157c-0.086,3.623,0.528,2.976,0.528,2.976l-0.181-4.102c0,0,2.667,2.059,3.012,3.497
			s-4.472,13.022-4.472,13.022l-15.063,2.149l-4.586-12.208c0,0,1.626-2.917,1.885-2.902
			C125.338,86.326,128.668,86.83,128.668,86.83z"/>
		<path fill="#FF900B" d="M127.421,102.582c-0.351-0.108-0.643-0.372-0.778-0.733l-4.586-12.206
			c-0.126-0.334-0.098-0.706,0.075-1.019c1.9-3.408,2.259-3.566,3.016-3.523c0.181,0.01,1.171,0.151,2.278,0.316l-0.318-16.602
			c-0.005-0.217,0.049-0.431,0.156-0.62c0.435-0.771,1.811-2.055,3.908-1.406c0.282,0.087,0.57,0.209,0.856,0.36
			c1.37,0.726,2.417,4.329,3.123,10.737c0.083-0.005,0.168-0.002,0.253,0.007c0.227,0.025,0.69-0.05,1.1-0.117
			c0.801-0.131,1.63-0.267,2.375-0.037c0.593,0.184,1.048,0.588,1.28,1.138c0.055,0.133,0.121,0.317,0.195,0.637
			c0.579,0.001,1.36,0.026,2.126,0.264c1.035,0.32,1.793,0.949,2.234,1.835c0.116,0.042,0.228,0.102,0.329,0.181
			c0.503,0.388,3.028,2.409,3.451,4.175c0.361,1.507-2.265,8.32-4.532,13.771c-0.164,0.396-0.525,0.677-0.948,0.737l-15.063,2.148
			C127.768,102.649,127.588,102.634,127.421,102.582z M124.53,89.32l4.042,10.763l13.413-1.914
			c2.025-4.924,4.099-10.567,4.132-11.691c-0.064-0.198-0.233-0.462-0.467-0.755l0.047,1.079c0.015,0.329-0.105,0.65-0.333,0.891
			c-0.352,0.37-0.894,0.514-1.382,0.362c-1.126-0.349-1.302-1.688-1.242-4.204c0.032-1.33-0.488-1.604-0.978-1.754
			c-0.325-0.102-0.701-0.137-1.051-0.148c0.181,1.741,0.284,3.589,0.29,3.684c0.034,0.63-0.419,1.182-1.044,1.27
			c-0.622,0.088-1.211-0.317-1.353-0.932c-0.394-1.723-0.767-3.913-0.479-5.149c-0.058-0.383-0.106-0.627-0.142-0.778
			c-0.288,0-0.773,0.08-1.088,0.131c-0.354,0.058-0.716,0.118-1.068,0.142c-0.15,0.749-0.226,2.404-0.112,4.449l0.007,0.122
			c0.039,0.669-0.471,1.24-1.138,1.281c-0.669,0.037-1.478-0.476-1.522-1.144l-0.244-0.137c0-0.001,0-0.002,0-0.002v-0.004
			c0-7.888-1.308-14.639-2.216-15.622c-0.629-0.318-0.952-0.229-1.177-0.05l0.396,17.596c0.007,0.358-0.113,0.701-0.383,0.938
			c-0.27,0.235-0.614,0.341-0.967,0.288c-1.072-0.162-2.226-0.334-2.909-0.43C125.292,88.011,124.9,88.673,124.53,89.32z"/>
	</g>
	<g>
		<line fill="#FFFFFF" x1="127.473" y1="105.564" x2="143.634" y2="104.597"/>
		<path fill="#FF900B" d="M127.115,106.725c-0.469-0.145-0.822-0.568-0.854-1.088c-0.039-0.669,0.471-1.244,1.14-1.285l16.16-0.967
			c0.667-0.04,1.245,0.47,1.284,1.14c0.04,0.669-0.471,1.244-1.139,1.285l-16.16,0.967
			C127.396,106.786,127.251,106.767,127.115,106.725z"/>
	</g>
	<g>
		<line fill="#FFFFFF" x1="128.668" y1="86.83" x2="128.814" y2="92.467"/>
		<path fill="#FF900B" d="M128.455,93.628c-0.483-0.15-0.841-0.595-0.854-1.13l-0.146-5.637c-0.017-0.671,0.513-1.229,1.182-1.245
			c0.67-0.017,1.229,0.512,1.246,1.182l0.146,5.638c0.019,0.671-0.512,1.229-1.182,1.245
			C128.71,93.685,128.579,93.666,128.455,93.628z"/>
	</g>
</g>
<rect x="289.068" y="-10.649" fill="none" width="144.5" height="112.666"/>
<ellipse fill="none" stroke="#FF900B" stroke-linecap="round" stroke-linejoin="round" stroke-miterlimit="10" cx="-344.182" cy="-94.833" rx="0.667" ry="1"/>
<g>
	<ellipse fill="#FFFFFF" cx="83.635" cy="97.369" rx="33.179" ry="7.841"/>
	<path fill="#FF900B" d="M83.635,106.71c-16.702,0-34.68-2.923-34.68-9.341s17.978-9.342,34.68-9.342s34.679,2.924,34.679,9.342
		S100.338,106.71,83.635,106.71z M83.635,91.027c-20.498,0-31.68,4.189-31.68,6.342s11.182,6.341,31.68,6.341
		c20.497,0,31.679-4.188,31.679-6.341S104.133,91.027,83.635,91.027z"/>
</g>
<g>
	<path fill="#FFFFFF" d="M111.09,71.361c0,0-10.412,6.521-29.635,6.288c-19.223-0.232-27.5-6.288-27.5-6.288
		s-2.156,28.182,26.688,28.182C109.488,99.543,111.09,71.361,111.09,71.361z"/>
	<path fill="#FF900B" d="M80.642,101.043c-9.042,0-16.107-2.678-20.998-7.958c-8.088-8.729-7.226-21.307-7.186-21.838
		c0.042-0.543,0.375-1.021,0.869-1.248c0.494-0.227,1.072-0.17,1.513,0.152c0.075,0.054,8.228,5.614,26.632,5.837
		c0.332,0.004,0.658-0.155,0.985-0.155c0.001,0,0.002,0,0.003,0c17.86,0,27.737-5.845,27.835-5.906
		c0.478-0.295,1.079-0.221,1.559,0.064c0.481,0.287,0.765,0.855,0.733,1.414C112.57,71.702,110.559,101.043,80.642,101.043z
		 M55.454,73.954c0.176,3.883,1.222,11.525,6.406,17.109c4.3,4.631,10.62,6.979,18.782,6.979c22.141,0,27.388-17.356,28.6-24.202
		c-4.188,1.916-13.264,4.992-26.781,4.992c-0.001,0-0.002,0-0.003,0c-0.339,0-0.677,0.159-1.021,0.155
		C67.54,78.82,59.213,75.837,55.454,73.954z"/>
</g>
<g>
	<path fill="#FFFFFF" d="M56.242,70.663c0,0,1.355-3.571,3.729-3.805c2.375-0.232-0.083-1.009,1.357-1.241
		c1.44-0.233,3.645-1.708,4.917-1.397c1.271,0.31,3.39-0.319,4.661-0.043c1.272,0.275,4.917,3.69,4.578,5.244"/>
	<path fill="#FF900B" d="M56.242,72.163c-0.178,0-0.357-0.031-0.532-0.098c-0.774-0.294-1.164-1.16-0.87-1.935
		c0.165-0.435,1.639-4.103,4.567-4.702c0.023-0.08,0.054-0.159,0.09-0.237c0.267-0.572,0.802-0.927,1.593-1.056
		c0.398-0.064,1.027-0.326,1.637-0.58c1.293-0.539,2.631-1.096,3.875-0.793c0.4,0.098,1.186,0.02,1.877-0.05
		c0.93-0.093,1.893-0.187,2.747-0.002c1.481,0.321,3.896,2.534,4.982,4.224c0.681,1.059,0.924,1.977,0.743,2.807
		c-0.178,0.809-0.975,1.324-1.785,1.145c-0.779-0.17-1.284-0.917-1.163-1.695c-0.164-0.889-2.567-3.273-3.44-3.555
		c-0.366-0.08-1.122-0.004-1.787,0.063c-0.977,0.098-1.986,0.197-2.885-0.021c-0.33-0.055-1.424,0.404-2.01,0.647
		c-0.451,0.188-0.912,0.38-1.367,0.532c-0.029,0.115-0.072,0.229-0.129,0.342c-0.494,0.979-1.691,1.097-2.268,1.152
		c-1.082,0.107-2.151,1.998-2.473,2.845C57.417,71.794,56.847,72.163,56.242,72.163z"/>
</g>
<g>
	<path fill="#FFFFFF" d="M75.222,70.663c0,0-1.661-4.165,1.071-5.032c2.733-0.868,0.909-1.8,2.209-2.033
		c1.301-0.232,4.018-0.232,4.562,0c0.543,0.233,3.55,1.555,3.638,1.941c0.089,0.388,2.961-0.388,3.582-0.621
		c0.621-0.232,0.698,1.36,2.329,2.466c1.63,1.105,3.338,2.581,3.261,3.279c-0.077,0.699,1.241,1.709,1.009,2.563"/>
	<path fill="#FF900B" d="M96.884,74.726c-0.131,0-0.263-0.017-0.396-0.053c-0.724-0.197-1.179-0.893-1.097-1.615
		c-0.063-0.128-0.198-0.332-0.293-0.477c-0.313-0.475-0.691-1.049-0.726-1.748c-0.267-0.377-1.182-1.244-2.602-2.208
		c-0.962-0.651-1.515-1.432-1.867-2.005c-1.118,0.335-2.983,0.773-3.857,0.304c-0.194-0.104-0.375-0.266-0.519-0.454
		c-0.405-0.273-1.704-0.91-2.992-1.467c-0.434-0.09-2.056-0.121-3.222-0.002c-0.307,0.96-1.128,1.603-2.566,2.06
		c-0.24,0.076-0.332,0.181-0.396,0.314c-0.302,0.634-0.021,2.007,0.265,2.736c0.302,0.771-0.075,1.641-0.844,1.944
		c-0.769,0.303-1.639-0.068-1.943-0.837c-0.123-0.308-1.168-3.058-0.19-5.125c0.435-0.919,1.196-1.573,2.2-1.893
		c0.321-0.103,0.516-0.188,0.627-0.248c0.162-1.348,1.165-1.724,1.771-1.832c1.086-0.194,4.341-0.362,5.416,0.097
		c2.053,0.883,3.14,1.459,3.732,1.892c0.678-0.108,1.927-0.429,2.37-0.596c1.464-0.549,2.283,0.826,2.549,1.278
		c0.264,0.446,0.561,0.951,1.149,1.35c3.585,2.433,3.935,3.789,3.928,4.441c0.058,0.101,0.152,0.244,0.222,0.349
		c0.41,0.624,1.031,1.566,0.726,2.688C98.148,74.287,97.544,74.726,96.884,74.726z"/>
</g>
<g>
	<path fill="#FFFFFF" d="M91.52,65.589c0,0,0.198-1.422,2.526-1.344c2.33,0.077,3.318-1.488,4.329-0.925
		c1.01,0.563,4.805,0.788,6.047,1.284c1.241,0.494,1.97,0.831,2.28,1.918c0.31,1.088,1.115,2.743,1.115,2.743v0.567"/>
	<path fill="#FF900B" d="M108.318,71.333c-0.828,0-1.5-0.672-1.5-1.5v-0.148c-0.359-0.608-1.022-1.802-1.292-2.752
		c-0.081-0.283-0.401-0.449-1.461-0.869l-0.166-0.065c-0.419-0.167-1.575-0.345-2.504-0.487c-1.646-0.253-2.748-0.439-3.479-0.775
		c-0.116,0.049-0.276,0.125-0.404,0.187c-0.725,0.349-1.815,0.881-3.391,0.822c-0.518-0.015-0.786,0.071-0.878,0.124
		c-0.137,0.726-0.773,1.262-1.551,1.219c-0.827-0.043-1.464-0.748-1.421-1.575c0.052-1.001,0.913-2.862,3.95-2.766
		c0.807,0.026,1.396-0.241,1.991-0.528c0.713-0.342,1.789-0.857,2.955-0.207c0.351,0.176,1.811,0.4,2.683,0.535
		c1.3,0.199,2.424,0.372,3.159,0.666l0.16,0.063c1.284,0.51,2.74,1.088,3.24,2.836c0.182,0.641,0.819,1.785,1.178,2.357
		c0.149,0.239,0.229,0.516,0.229,0.798v0.567C109.818,70.661,109.146,71.333,108.318,71.333z"/>
</g>
<circle fill="none" stroke="#FF900B" stroke-width="3" stroke-miterlimit="10" cx="81.279" cy="28.148" r="17.375"/>
<line fill="none" stroke="#FF900B" stroke-width="3" stroke-linecap="round" stroke-linejoin="round" stroke-miterlimit="10" x1="81.279" y1="64.017" x2="81.279" y2="45.833"/>
<circle fill="none" stroke="#FF900B" stroke-width="3" stroke-miterlimit="10" cx="23.028" cy="48.142" r="17.375"/>
<line fill="none" stroke="#FF900B" stroke-width="3" stroke-linecap="round" stroke-linejoin="round" stroke-miterlimit="10" x1="58.153" y1="73.288" x2="36.923" y2="58.574"/>
<g>
	<path fill-rule="evenodd" clip-rule="evenodd" fill="#FF900B" d="M133.838,48.796c-1.258,1.282-2.066,2.647-2.284,4.309
		c-0.463,3.534,2.373,6.33,5.898,5.802c2.025-0.304,3.694-1.331,4.803-3.001c1.092-1.645,1.901-3.476,2.871-5.204
		c0.504-0.899,1.095-1.749,1.629-2.633c0.364-0.603,0.943-1.204,0.992-1.839c0.08-1.057,0.684-1.646,1.34-2.283
		c0.426-0.412,0.854-0.822,1.252-1.259c0.297-0.326,0.557-0.444,1.034-0.3c1.172,0.354,2.384-0.295,2.835-1.421
		c0.454-1.133,0.001-2.377-1.066-2.999c-0.228-0.133-0.461-0.324-0.591-0.547c-0.664-1.142-1.865-1.627-3.012-1.176
		c-1.206,0.473-1.821,1.674-1.438,2.946c0.116,0.387,0.042,0.602-0.225,0.858c-0.75,0.723-1.471,1.477-2.221,2.2
		c-0.157,0.151-0.389,0.313-0.586,0.314c-0.905,0.002-1.693,0.327-2.32,0.925c-1.07,1.021-2.381,1.605-3.686,2.214
		c-0.258,0.12-0.517,0.234-0.77,0.363C136.695,46.878,135.044,47.61,133.838,48.796z"/>
	<path fill-rule="evenodd" clip-rule="evenodd" fill="#FF900B" d="M133.838,48.796c1.206-1.187,2.857-1.918,4.456-2.732
		c0.253-0.129,0.512-0.243,0.77-0.363c1.305-0.608,2.615-1.193,3.686-2.214c0.627-0.598,1.415-0.923,2.32-0.925
		c0.197-0.001,0.429-0.164,0.586-0.314c0.75-0.723,1.471-1.477,2.221-2.2c0.267-0.256,0.341-0.471,0.225-0.858
		c-0.383-1.271,0.232-2.473,1.438-2.946c1.146-0.451,2.348,0.034,3.012,1.176c0.13,0.224,0.363,0.415,0.591,0.547
		c1.067,0.622,1.521,1.866,1.066,2.999c-0.451,1.126-1.663,1.776-2.835,1.421c-0.478-0.144-0.737-0.026-1.034,0.3
		c-0.397,0.437-0.826,0.847-1.252,1.259c-0.656,0.637-1.26,1.227-1.34,2.283c-0.049,0.635-0.628,1.236-0.992,1.839
		c-0.534,0.884-1.125,1.733-1.629,2.633c-0.97,1.729-1.779,3.56-2.871,5.204c-1.108,1.67-2.777,2.698-4.803,3.001
		c-3.525,0.527-6.361-2.268-5.898-5.802C131.771,51.444,132.58,50.079,133.838,48.796z M147.266,43.797
		c0.961-0.96,1.872-1.852,2.759-2.767c0.428-0.442,0.797-0.52,1.361-0.165c0.289,0.182,0.85,0.167,1.159,0.002
		c0.242-0.129,0.446-0.665,0.379-0.951c-0.075-0.316-0.434-0.678-0.752-0.796c-0.452-0.167-0.668-0.384-0.831-0.839
		c-0.113-0.315-0.487-0.67-0.804-0.74c-0.287-0.064-0.818,0.146-0.947,0.391c-0.162,0.31-0.169,0.867,0.014,1.155
		c0.358,0.568,0.263,0.93-0.18,1.355c-0.932,0.898-1.836,1.826-2.761,2.751C146.88,43.411,147.041,43.572,147.266,43.797z
		 M134.303,49.657c-0.485,0.868-1.029,1.626-1.354,2.469c-0.532,1.381-0.387,2.751,0.532,3.961c0.152,0.2,0.476,0.271,0.719,0.4
		c-0.053-0.256-0.08-0.521-0.164-0.766c-0.219-0.636-0.614-1.251-0.664-1.896c-0.125-1.605,0.607-2.968,1.869-3.848
		c1.403-0.979,2.99-1.692,4.498-2.521c0.517-0.283,1.051-0.539,1.545-0.856c0.12-0.078,0.116-0.349,0.169-0.529
		c-0.168-0.003-0.365-0.065-0.5,0c-1.104,0.534-2.211,1.066-3.29,1.65C136.529,48.336,135.425,49.007,134.303,49.657z"/>
	<path fill-rule="evenodd" clip-rule="evenodd" fill="#FFFFFF" d="M147.266,43.797c-0.226-0.225-0.387-0.386-0.603-0.603
		c0.925-0.925,1.829-1.854,2.761-2.751c0.442-0.426,0.538-0.787,0.18-1.355c-0.183-0.289-0.176-0.846-0.014-1.155
		c0.129-0.245,0.66-0.455,0.947-0.391c0.316,0.07,0.69,0.425,0.804,0.74c0.163,0.455,0.379,0.671,0.831,0.839
		c0.318,0.118,0.677,0.48,0.752,0.796c0.067,0.287-0.137,0.822-0.379,0.951c-0.31,0.166-0.87,0.18-1.159-0.002
		c-0.564-0.354-0.934-0.277-1.361,0.165C149.138,41.946,148.227,42.837,147.266,43.797z"/>
	<path fill-rule="evenodd" clip-rule="evenodd" fill="#FFFFFF" d="M134.303,49.657c1.121-0.649,2.226-1.32,3.359-1.936
		c1.079-0.584,2.186-1.116,3.29-1.65c0.135-0.065,0.332-0.003,0.5,0c-0.053,0.181-0.049,0.451-0.169,0.529
		c-0.494,0.317-1.028,0.573-1.545,0.856c-1.508,0.828-3.095,1.542-4.498,2.521c-1.262,0.88-1.994,2.242-1.869,3.848
		c0.05,0.646,0.445,1.261,0.664,1.896c0.084,0.245,0.111,0.51,0.164,0.766c-0.243-0.13-0.566-0.2-0.719-0.4
		c-0.919-1.21-1.064-2.58-0.532-3.961C133.274,51.283,133.818,50.525,134.303,49.657z"/>
</g>
<g>
	<path fill-rule="evenodd" clip-rule="evenodd" fill="#FF900B" d="M90.916,24.036c0,1.396,0,2.793,0,4.19
		c-0.602,1.431-1.23,2.852-1.797,4.296c-0.346,0.881-0.369,1.785,0.19,2.619c0.384,0.572,0.776,1.137,1.183,1.731
		c-0.347,0.311-0.682,0.613-1.017,0.913c-0.131,0-0.263,0-0.393,0c-0.101-0.115-0.199-0.231-0.302-0.344
		c-1.609-1.781-2.242-1.847-4.446-0.917c-1.106,0.466-2.32,0.792-3.512,0.918c-4.772,0.506-9.39-2.291-10.859-6.467
		c0-0.523,0-1.046,0-1.571c0.588-2.845,2.126-5.132,4.229-7.059c2.611-2.393,5.578-4.119,9.165-4.536
		c2.71-0.315,4.943,0.469,6.237,3.045C90.109,21.877,90.479,22.973,90.916,24.036z M75.435,33.904
		c0.359-0.039,0.841-0.059,1.31-0.143c3.315-0.593,6.046-2.275,8.406-4.604c1.524-1.503,2.738-3.215,3.298-5.324
		c0.703-2.647-0.51-4.58-3.216-4.939c-0.909-0.121-1.883-0.057-2.784,0.129c-3.311,0.687-6.022,2.456-8.323,4.879
		c-1.491,1.571-2.674,3.333-3.045,5.525c-0.152,0.899-0.093,1.787,0.374,2.601C72.315,33.529,73.756,33.834,75.435,33.904z"/>
	<path fill-rule="evenodd" clip-rule="evenodd" fill="#FFFFFF" d="M90.916,24.036c-0.437-1.063-0.807-2.158-1.32-3.181
		c-1.294-2.576-3.527-3.36-6.237-3.045c-3.587,0.417-6.554,2.144-9.165,4.536c-2.104,1.927-3.642,4.213-4.229,7.059
		c0-4.19,0-8.381,0-12.571c6.984,0,13.968,0,20.952,0C90.916,19.234,90.916,21.634,90.916,24.036z"/>
	<path fill-rule="evenodd" clip-rule="evenodd" fill="#FFFFFF" d="M89.475,37.785c0.335-0.3,0.67-0.602,1.017-0.913
		c-0.406-0.594-0.799-1.159-1.183-1.731c-0.56-0.834-0.536-1.738-0.19-2.619c0.566-1.445,1.195-2.865,1.797-4.296
		c0,3.187,0,6.373,0,9.56C90.436,37.785,89.955,37.785,89.475,37.785z"/>
	<path fill-rule="evenodd" clip-rule="evenodd" fill="#FFFFFF" d="M75.435,33.904c-1.679-0.07-3.12-0.375-3.981-1.875
		c-0.467-0.814-0.525-1.702-0.374-2.601c0.372-2.192,1.554-3.955,3.045-5.525c2.301-2.424,5.013-4.192,8.323-4.879
		c0.901-0.187,1.875-0.25,2.784-0.129c2.706,0.36,3.919,2.292,3.216,4.939c-0.56,2.108-1.773,3.821-3.298,5.324
		c-2.36,2.329-5.091,4.011-8.406,4.604C76.276,33.846,75.794,33.866,75.435,33.904z M75.786,32.773
		c0.005-0.023,0.01-0.048,0.016-0.071c0.196-0.009,0.393-0.016,0.588-0.032c0.152-0.012,0.304-0.028,0.453-0.056
		c3.12-0.592,5.64-2.234,7.79-4.498c1.153-1.214,2.071-2.583,2.428-4.262c0.424-2-0.654-3.54-2.68-3.753
		c-0.599-0.063-1.235-0.067-1.819,0.061c-4.061,0.892-7.161,3.167-9.356,6.673c-0.561,0.896-0.903,1.89-0.877,2.973
		c0.031,1.263,0.618,2.173,1.811,2.61C74.662,32.609,75.235,32.659,75.786,32.773z"/>
	<path fill-rule="evenodd" clip-rule="evenodd" fill="#FF900B" d="M75.786,32.773c-0.551-0.115-1.125-0.165-1.646-0.355
		c-1.193-0.438-1.78-1.347-1.811-2.61c-0.026-1.083,0.316-2.077,0.877-2.973c2.195-3.506,5.296-5.781,9.356-6.673
		c0.584-0.127,1.221-0.124,1.819-0.061c2.025,0.213,3.104,1.753,2.68,3.753c-0.356,1.678-1.274,3.047-2.428,4.262
		c-2.15,2.264-4.67,3.906-7.79,4.498c-0.149,0.028-0.301,0.044-0.453,0.056c-0.195,0.016-0.392,0.022-0.588,0.032
		C75.797,32.726,75.792,32.75,75.786,32.773z M76.006,31.664c0.155-0.019,0.506-0.036,0.845-0.11
		c3.235-0.703,5.755-2.519,7.785-5.068c0.741-0.929,1.341-1.947,1.461-3.165c0.122-1.24-0.491-2.084-1.728-2.158
		c-0.875-0.053-1.8,0.021-2.641,0.259c-2.383,0.677-4.362,2.054-6.057,3.844c-0.922,0.974-1.706,2.044-2.133,3.335
		C72.913,30.498,73.812,31.705,76.006,31.664z"/>
	<path fill-rule="evenodd" clip-rule="evenodd" fill="#FFFFFF" d="M76.006,31.664c-2.194,0.041-3.093-1.167-2.467-3.063
		c0.427-1.291,1.21-2.362,2.133-3.335c1.695-1.79,3.674-3.167,6.057-3.844c0.841-0.239,1.767-0.313,2.641-0.259
		c1.236,0.074,1.85,0.918,1.728,2.158c-0.12,1.218-0.72,2.236-1.461,3.165c-2.03,2.549-4.55,4.365-7.785,5.068
		C76.512,31.628,76.161,31.645,76.006,31.664z M76.869,30.577c0.982-0.033,2.046-0.48,3.05-1.066c1.891-1.105,3.578-2.438,4.506-4.5
		c0.735-1.635-0.103-2.801-1.884-2.684c-0.195,0.014-0.391,0.044-0.582,0.085c-1.801,0.386-3.291,1.355-4.659,2.533
		c-1.035,0.889-1.949,1.883-2.4,3.207C74.409,29.588,75.144,30.587,76.869,30.577z"/>
	<path fill-rule="evenodd" clip-rule="evenodd" fill="#FF900B" d="M76.869,30.577c-1.725,0.01-2.459-0.989-1.969-2.425
		c0.451-1.324,1.365-2.318,2.4-3.207c1.369-1.177,2.858-2.146,4.659-2.533c0.191-0.041,0.386-0.071,0.582-0.085
		c1.781-0.118,2.619,1.049,1.884,2.684c-0.928,2.062-2.615,3.395-4.506,4.5C78.915,30.097,77.851,30.544,76.869,30.577z
		 M76.699,29.539c0.039-0.002,0.126-0.003,0.211-0.016c0.129-0.019,0.259-0.036,0.384-0.072c2.51-0.71,4.493-2.162,5.903-4.343
		c0.262-0.406,0.224-1.005,0.324-1.516c-0.518-0.04-1.064-0.208-1.547-0.098c-1.425,0.327-2.64,1.103-3.754,2.031
		c-0.958,0.799-1.84,1.677-2.309,2.866C75.603,29.177,75.855,29.536,76.699,29.539z"/>
	<path fill-rule="evenodd" clip-rule="evenodd" fill="#FFFFFF" d="M76.699,29.539c-0.844-0.003-1.096-0.362-0.786-1.147
		c0.469-1.189,1.35-2.067,2.309-2.866c1.114-0.928,2.329-1.704,3.754-2.031c0.483-0.11,1.029,0.058,1.547,0.098
		c-0.1,0.511-0.062,1.11-0.324,1.516c-1.411,2.181-3.394,3.633-5.903,4.343c-0.125,0.036-0.255,0.053-0.384,0.072
		C76.825,29.536,76.738,29.537,76.699,29.539z M78.509,27.863c0.665,0.009,2.833-1.613,2.943-2.234
		c0.079-0.443-0.237-0.651-0.59-0.538c-1.147,0.371-2.098,1.059-2.773,2.063C77.843,27.521,78.08,27.856,78.509,27.863z"/>
	<path fill-rule="evenodd" clip-rule="evenodd" fill="#FF900B" d="M78.509,27.863c-0.429-0.006-0.667-0.342-0.42-0.709
		c0.675-1.004,1.625-1.692,2.773-2.063c0.354-0.113,0.669,0.095,0.59,0.538C81.342,26.25,79.174,27.872,78.509,27.863z"/>
</g>
<g>
	<path fill-rule="evenodd" clip-rule="evenodd" fill="#FF900B" d="M23.881,58.968c-0.533,0-1.066,0-1.599,0
		c-0.172-0.035-0.342-0.078-0.515-0.104c-4.255-0.638-7.291-2.882-8.938-6.882c-0.339-0.823-0.457-1.738-0.676-2.61
		c0-0.533,0-1.066,0-1.599c0.032-0.191,0.074-0.381,0.094-0.573c0.145-1.35,0.396-2.667,1.102-3.857
		c0.974-1.642,2.44-2.561,4.118-2.94c0.447,0.488,0.813,0.889,1.204,1.315c-0.621,1.056-1.813,1.409-2.874,1.924
		c0.121,0.687,0.552,1.083,1.061,1.389c1.529,0.92,3.111,0.789,4.731,0.13c0.103,0.29,0.188,0.538,0.277,0.786
		c0.409,1.143,1.111,1.995,2.295,2.418c0.42,0.15,0.667,0.03,0.906-0.292c0.472-0.637,0.648-1.37,0.727-2.138
		c0.037-0.357,0.068-0.716,0.106-1.118c1.192,0.738,2.364,0.84,3.49,0.143c0.683-0.423,0.959-1.167,1.048-1.804
		c-0.772-0.342-1.439-0.638-2.092-0.927c0.567-0.454,1.051-0.841,1.634-1.307c1.308,0.45,2.502,1.327,3.096,2.779
		c0.403,0.985,0.562,2.07,0.831,3.11c0,0.498,0,0.995,0,1.493c-0.07,0.508-0.13,1.018-0.211,1.524
		c-0.68,4.205-2.962,7.106-7.019,8.509C25.778,58.647,24.814,58.763,23.881,58.968z"/>
	<path fill-rule="evenodd" clip-rule="evenodd" fill="#FF900B" d="M28.941,39.981c-0.532,1.251-1.506,1.856-2.994,1.472
		c1.088,0.797,2.118,1.552,3.139,2.3c-1.221,0.998-2.74,0.449-5.186-1.896c0.721,1.624,1.029,3.275,0.4,5.001
		c-1.549-0.795-2.07-2.357-1.644-4.861c-1.09,2.176-2.741,2.852-4.895,2.028c0.541-0.519,1.113-1.004,1.608-1.558
		c0.809-0.905,1.056-1.053,2.603-1.345c-0.326-0.056-0.654-0.099-0.977-0.169c-0.501-0.109-1.017-0.187-1.493-0.367
		c-0.892-0.338-1.4-1.168-1.337-2.135c0.385,0.617,0.953,0.769,1.58,0.757c1.188-0.021,2.217,0.292,2.818,1.281
		c0.609-0.945,1.192-1.891,1.819-2.806c0.312-0.454,0.53-0.461,1.096-0.164c-0.847,0.882-1.382,1.909-1.526,3.121
		c0.065,0.02,0.11,0.046,0.124,0.035c0.983-0.808,2.093-0.941,3.313-0.71C27.893,40.06,28.429,39.981,28.941,39.981z"/>
</g>
</svg>
