<?xml version="1.0" encoding="utf-8"?>
<!-- Generator: Adobe Illustrator 16.0.0, SVG Export Plug-In . SVG Version: 6.00 Build 0)  -->
<!DOCTYPE svg PUBLIC "-//W3C//DTD SVG 1.1//EN" "http://www.w3.org/Graphics/SVG/1.1/DTD/svg11.dtd">
<svg version="1.1" xmlns="http://www.w3.org/2000/svg" xmlns:xlink="http://www.w3.org/1999/xlink" x="0px" y="0px"
	 width="27.875px" height="30.491px" viewBox="0 0 27.875 30.491" enable-background="new 0 0 27.875 30.491" xml:space="preserve">
<g id="Capa_1">
</g>
<g id="Capa_2">
	<g>
		<path fill-rule="evenodd" clip-rule="evenodd" fill="#FFFFFF" d="M2.563,22.417c0.75-1.506,1.486-3.016,2.256-4.512
			c0.229-0.441,0.238-0.744-0.162-1.113C1.493,13.873,1.683,8.691,5.679,5.88c4.289-3.02,11.088-3.373,15.543,0.115
			c4.5,3.523,4.188,9.008-0.66,12.068c-3.267,2.061-6.828,2.426-10.535,1.576c-0.682-0.154-1.215-0.102-1.826,0.221
			c-1.805,0.947-3.645,1.832-5.471,2.742C2.676,22.541,2.62,22.478,2.563,22.417z"/>
		<path fill-rule="evenodd" clip-rule="evenodd" fill="#FFFFFF" d="M24.539,16.167c1.698,1.887,1.7,4.324-0.038,6.256
			c-0.476,0.529-0.531,0.895-0.178,1.498c0.5,0.857,0.889,1.785,1.45,2.939c-1.483-0.732-2.716-1.375-3.979-1.943
			c-0.374-0.168-0.865-0.223-1.27-0.152c-2.933,0.52-5.695,0.262-8.083-1.709c-0.526-0.434-0.935-1.016-1.589-1.744
			C16.438,21.835,21.093,20.636,24.539,16.167z"/>
	</g>
</g>
</svg>
