<?xml version="1.0" encoding="utf-8"?>
<!-- Generator: Adobe Illustrator 16.0.0, SVG Export Plug-In . SVG Version: 6.00 Build 0)  -->
<!DOCTYPE svg PUBLIC "-//W3C//DTD SVG 1.1//EN" "http://www.w3.org/Graphics/SVG/1.1/DTD/svg11.dtd">
<svg version="1.1" xmlns="http://www.w3.org/2000/svg" xmlns:xlink="http://www.w3.org/1999/xlink" x="0px" y="0px"
	 width="27.875px" height="30.491px" viewBox="0 0 27.875 30.491" enable-background="new 0 0 27.875 30.491" xml:space="preserve">
<g id="Capa_1">
</g>
<g id="Capa_2">
	<g>
		<g>
			<path fill-rule="evenodd" clip-rule="evenodd" fill="#FFFFFF" d="M25.355,25.299c-2.746,0-5.23,0.015-7.717-0.011
				c-0.588-0.006-0.918,0.056-1.051,0.766c-0.215,1.163-1.361,1.94-2.574,1.937c-1.215-0.006-2.27-0.802-2.582-1.955
				c-0.061-0.224-0.107-0.453-0.174-0.736c-0.313,0-0.594,0-0.875,0c-2.369,0-4.737-0.007-7.107,0.008
				c-0.418,0.002-0.609-0.089-0.699-0.559c-0.137-0.717,0.039-1.21,0.531-1.77c2.521-2.866,3.789-6.229,3.799-10.061
				c0.006-2.396,0.895-4.378,2.841-5.838c0.095-0.07,0.188-0.149,0.294-0.198c0.914-0.426,1.636-0.844,1.736-2.114
				c0.092-1.186,1.471-1.841,2.682-1.629c1.166,0.204,2.016,1.201,1.977,2.416c-0.014,0.447,0.102,0.664,0.511,0.856
				c2.58,1.221,3.94,3.313,4.003,6.131c0.092,4.146,1.338,7.785,4.154,10.888C25.433,23.792,25.277,24.596,25.355,25.299z
				 M12.961,5.796c0.6,0,1.143-0.027,1.678,0.008c0.521,0.034,0.557-0.231,0.447-0.614c-0.152-0.534-0.746-0.904-1.279-0.764
				C13.178,4.594,12.865,5.007,12.961,5.796z"/>
			<path fill-rule="evenodd" clip-rule="evenodd" fill="#FF900B" d="M12.961,5.796c-0.096-0.789,0.217-1.202,0.846-1.37
				c0.533-0.141,1.127,0.229,1.279,0.764c0.109,0.383,0.074,0.648-0.447,0.614C14.104,5.769,13.561,5.796,12.961,5.796z"/>
		</g>
		<path fill-rule="evenodd" clip-rule="evenodd" fill="#FF900B" d="M6,22.158c0,0,2.041-2.167,2.208-4.333s-0.625-6.458,1.125-8.042
			C11.167,8.2,11.167,8.2,11.167,8.2s-1.268,1.374-1.708,2.708C8.177,14.785,10.25,20.492,6,22.158z"/>
	</g>
</g>
</svg>
