<?xml version="1.0" encoding="utf-8"?>
<!-- Generator: Adobe Illustrator 16.0.0, SVG Export Plug-In . SVG Version: 6.00 Build 0)  -->
<!DOCTYPE svg PUBLIC "-//W3C//DTD SVG 1.1//EN" "http://www.w3.org/Graphics/SVG/1.1/DTD/svg11.dtd">
<svg version="1.1" id="Capa_1" xmlns="http://www.w3.org/2000/svg" xmlns:xlink="http://www.w3.org/1999/xlink" x="0px" y="0px"
	 width="65.5px" height="60.167px" viewBox="0 0 65.5 60.167" enable-background="new 0 0 65.5 60.167" xml:space="preserve">
<g>
	<g>
		<path fill="none" stroke="#160B2D" stroke-linecap="round" stroke-linejoin="round" stroke-miterlimit="10" d="M48.238,18.984
			c0,8.25-6.689,14.939-14.939,14.939c-8.249,0-14.936-6.689-14.936-14.939S25.05,4.049,33.299,4.049
			C41.549,4.049,48.238,10.734,48.238,18.984z"/>
		<path fill="none" stroke="#160B2D" stroke-linecap="round" stroke-linejoin="round" stroke-miterlimit="10" d="M48.764,44.677
			c0,0-0.608,0.122-1.461,0S39.023,42.12,38.9,35.18"/>
		<path fill="none" stroke="#160B2D" stroke-linecap="round" stroke-linejoin="round" stroke-miterlimit="10" d="M48.764,44.677
			c0,0,12.949,0.126,13.113,16.036"/>
		<path fill="none" stroke="#160B2D" stroke-linecap="round" stroke-linejoin="round" stroke-miterlimit="10" d="M16.945,44.677
			c0,0,0.609,0.122,1.461,0c0.853-0.122,8.28-2.557,8.401-9.497"/>
		<path fill="none" stroke="#160B2D" stroke-linecap="round" stroke-linejoin="round" stroke-miterlimit="10" d="M17.063,44.731
			c0,0-13.066,0.071-13.23,15.981"/>
	</g>
</g>
</svg>
