<?xml version="1.0" encoding="utf-8"?>
<!-- Generator: Adobe Illustrator 16.0.0, SVG Export Plug-In . SVG Version: 6.00 Build 0)  -->
<!DOCTYPE svg PUBLIC "-//W3C//DTD SVG 1.1//EN" "http://www.w3.org/Graphics/SVG/1.1/DTD/svg11.dtd">
<svg version="1.1" xmlns="http://www.w3.org/2000/svg" xmlns:xlink="http://www.w3.org/1999/xlink" x="0px" y="0px" width="21.5px"
	 height="19.964px" viewBox="0 0 21.5 19.964" enable-background="new 0 0 21.5 19.964" xml:space="preserve">
<g id="Capa_1">
</g>
<g id="Capa_2">
	<path fill-rule="evenodd" clip-rule="evenodd" d="M12.318,16.822c-0.634-0.973-0.543-1.643,0.364-2.51
		c0.831-0.795,1.244-2.055,1.725-3.159c0.094-0.216-0.261-0.766-0.545-0.98c-0.706-0.534-1.51-0.938-2.238-1.447
		c-0.535-0.374-1.102-0.36-1.697-0.468C9.106,8.109,8.389,7.287,7.7,6.669C7.645,6.621,8.084,5.837,8.432,5.588
		c0.191-0.137,0.67,0.128,1.076,0.226c0.385-0.514,0.791-1.252,1.381-1.795c0.566-0.525,1.319-0.852,2.096-1.328
		c-0.369-0.276-0.738-0.553-1.11-0.828c-0.005,0.078-0.012,0.156-0.017,0.231c-0.451,0.063-0.902,0.126-1.354,0.189
		c0.082-0.392,0.164-0.783,0.283-1.343c-0.98-0.748-2.227,0.467-3.299-0.105c2.906-1.67,8.004-0.848,10.881,2.564
		c3.086,3.664,3.041,8.933-0.168,12.6c-2.994,3.422-8.297,4.242-11.977,1.854c0.779-1.63,0.115-2.748-1.746-2.833
		c-1.125-0.051-1.807-0.507-2.254-1.582C0.6,9.535,1.611,5.023,4.836,2.346c0.27-0.223,0.738-0.204,1.114-0.298
		c0.044,0.264,0.182,0.554,0.116,0.787C5.297,5.591,6.67,7.37,8.594,8.22c0.321,0.142,0.641,0.284,0.979,0.434
		c-0.4,1.236,0.031,2.209,0.693,3.188c0.328,0.485,0.445,1.144,0.549,1.743c0.125,0.723,0.037,1.492,0.232,2.188
		c0.131,0.469,0.596,0.845,0.912,1.261C12.079,16.963,12.199,16.892,12.318,16.822z"/>
</g>
</svg>
